<svg width="72" height="72" viewBox="0 0 72 72" fill="none" xmlns="http://www.w3.org/2000/svg">
<mask id="mask0_339_44" style="mask-type:alpha" maskUnits="userSpaceOnUse" x="0" y="0" width="72" height="72">
<rect width="72" height="72" fill="#D9D9D9"/>
</mask>
<g mask="url(#mask0_339_44)">
<path d="M14.2 62.55C12.9166 62.55 11.8041 62.0792 10.8625 61.1375C9.92083 60.1959 9.45 59.0834 9.45 57.8V14.2C9.45 12.9166 9.92083 11.8041 10.8625 10.8625C11.8041 9.92084 12.9166 9.45001 14.2 9.45001H45.925C46.5732 9.45001 47.1915 9.57709 47.7799 9.83124C48.3683 10.0854 48.8833 10.4334 49.325 10.875L61.125 22.675C61.5667 23.1167 61.9146 23.6317 62.1688 24.2201C62.4229 24.8085 62.55 25.4268 62.55 26.075V57.8C62.55 59.0834 62.0792 60.1959 61.1375 61.1375C60.1959 62.0792 59.0834 62.55 57.8 62.55H14.2ZM45.35 14.2V24.2625C45.35 24.9292 45.5813 25.4937 46.0438 25.9562C46.5063 26.4187 47.0709 26.65 47.7375 26.65H57.8L45.35 14.2ZM48.4375 50.1C49.0875 50.1 49.6437 49.8679 50.1062 49.4037C50.5687 48.9396 50.8 48.3729 50.8 47.7038C50.8 47.0513 50.5687 46.4958 50.1062 46.0375C49.6437 45.5792 49.0875 45.35 48.4375 45.35H23.5875C22.9209 45.35 22.3563 45.5821 21.8938 46.0463C21.4313 46.5105 21.2 47.0688 21.2 47.7213C21.2 48.3905 21.4313 48.9542 21.8938 49.4125C22.3563 49.8708 22.9209 50.1 23.5875 50.1H48.4375ZM33.6375 26.65C34.2875 26.65 34.8438 26.4179 35.3063 25.9538C35.7688 25.4896 36 24.9229 36 24.2537C36 23.6012 35.7688 23.0458 35.3063 22.5875C34.8438 22.1292 34.2875 21.9 33.6375 21.9H23.5875C22.9209 21.9 22.3563 22.1321 21.8938 22.5963C21.4313 23.0605 21.2 23.6188 21.2 24.2713C21.2 24.9404 21.4313 25.5042 21.8938 25.9625C22.3563 26.4208 22.9209 26.65 23.5875 26.65H33.6375ZM48.4375 38.3625C49.0875 38.3625 49.6437 38.1346 50.1062 37.6787C50.5687 37.2229 50.8 36.6604 50.8 35.9912C50.8 35.3221 50.5687 34.7583 50.1062 34.3C49.6437 33.8417 49.0875 33.6125 48.4375 33.6125H23.5875C22.9209 33.6125 22.3563 33.8446 21.8938 34.3088C21.4313 34.773 21.2 35.3396 21.2 36.0088C21.2 36.6779 21.4313 37.2375 21.8938 37.6875C22.3563 38.1375 22.9209 38.3625 23.5875 38.3625H48.4375Z" fill="white"/>
</g>
</svg>
