<svg xmlns="http://www.w3.org/2000/svg" width="72" height="72" viewBox="0 0 72 72">
	<path fill="white"
		d="M35.9821 65.625C31.844 65.625 27.9675 64.8523 24.3526 63.3069C20.7377 61.7615 17.5979 59.6502 14.9332 56.9731C12.2685 54.2959 10.176 51.1436 8.6556 47.5162C7.1352 43.8887 6.375 40.006 6.375 35.8679C6.375 31.706 7.1352 27.8333 8.6556 24.2498C10.176 20.6662 12.2685 17.5463 14.9332 14.8901C17.5979 12.2339 20.7377 10.1506 24.3526 8.64038C27.9675 7.13013 31.844 6.375 35.9821 6.375C40.144 6.375 44.0292 7.13033 47.6377 8.64098C51.2463 10.1516 54.3849 12.2353 57.0536 14.8922C59.7224 17.5491 61.8181 20.6697 63.3409 24.2541C64.8636 27.8384 65.625 31.7037 65.625 35.85C65.625 40 64.8636 43.8887 63.3409 47.5162C61.8181 51.1436 59.7224 54.2959 57.0536 56.9731C54.3849 59.6502 51.2463 61.7615 47.6377 63.3069C44.0292 64.8523 40.144 65.625 35.9821 65.625ZM36 61.575C37.7805 59.7605 39.2568 57.6819 40.4291 55.3391C41.6014 52.9964 42.575 50.2125 43.35 46.9875H28.7625C29.4375 50.0125 30.3736 52.7339 31.5709 55.1516C32.7682 57.5694 34.2446 59.7105 36 61.575ZM29.85 60.6375C28.575 58.7125 27.4813 56.6438 26.5688 54.4313C25.6562 52.2188 24.8977 49.7375 24.2931 46.9875H13.0125C14.8875 50.5625 17.0875 53.3625 19.6125 55.3875C22.1375 57.4125 25.55 59.1625 29.85 60.6375ZM42.225 60.5625C45.875 59.4125 49.1437 57.6813 52.0312 55.3688C54.9188 53.0563 57.25 50.2625 59.025 46.9875H47.8194C47.1648 49.6875 46.3875 52.1438 45.4875 54.3563C44.5875 56.5688 43.5 58.6375 42.225 60.5625ZM11.625 42.675H23.475C23.325 41.3 23.2375 40.075 23.2125 39C23.1875 37.925 23.175 36.875 23.175 35.85C23.175 34.625 23.2 33.525 23.25 32.55C23.3 31.575 23.4 30.475 23.55 29.25H11.625C11.25 30.475 11 31.5585 10.875 32.5004C10.75 33.4422 10.6875 34.5588 10.6875 35.85C10.6875 37.1412 10.75 38.2953 10.875 39.3122C11 40.3291 11.25 41.45 11.625 42.675ZM27.975 42.675H44.1375C44.3375 41.1 44.4625 39.8291 44.5125 38.8622C44.5625 37.8953 44.5875 36.8912 44.5875 35.85C44.5875 34.8587 44.5625 33.9047 44.5125 32.9879C44.4625 32.071 44.3375 30.825 44.1375 29.25H27.975C27.75 30.825 27.6125 32.071 27.5625 32.9879C27.5125 33.9047 27.4875 34.8587 27.4875 35.85C27.4875 36.8912 27.5125 37.8953 27.5625 38.8622C27.6125 39.8291 27.75 41.1 27.975 42.675ZM48.45 42.675H60.4125C60.7625 41.45 61 40.3291 61.125 39.3122C61.25 38.2953 61.3125 37.1412 61.3125 35.85C61.3125 34.5588 61.25 33.4422 61.125 32.5004C61 31.5585 60.7625 30.475 60.4125 29.25H48.525C48.675 31.025 48.775 32.375 48.825 33.3C48.875 34.225 48.9 35.075 48.9 35.85C48.9 36.925 48.8625 37.95 48.7875 38.925C48.7125 39.9 48.6 41.15 48.45 42.675ZM47.7444 24.9375H59.025C57.35 21.4625 55.0688 18.575 52.1813 16.275C49.2938 13.975 45.95 12.3375 42.15 11.3625C43.425 13.2375 44.5125 15.2563 45.4125 17.4188C46.3125 19.5813 47.0898 22.0875 47.7444 24.9375ZM28.7625 24.9375H43.425C42.875 22.2625 41.9451 19.6724 40.6354 17.1671C39.3256 14.6618 37.7805 12.4644 36 10.575C34.3946 11.9394 33.0307 13.7306 31.9084 15.9484C30.7861 18.1661 29.7375 21.1625 28.7625 24.9375ZM13.0125 24.9375H24.3681C24.9227 22.2375 25.6375 19.825 26.5125 17.7C27.3875 15.575 28.475 13.4875 29.775 11.4375C25.975 12.4125 22.6625 14.0188 19.8375 16.2563C17.0125 18.4938 14.7375 21.3875 13.0125 24.9375Z" />
</svg>
