<svg xmlns="http://www.w3.org/2000/svg" width="72" height="72" viewBox="0 0 72 72">
	<path fill="white"
		d="M36.0016 41.8125C37.6005 41.8125 38.9687 41.2432 40.1062 40.1046C41.2437 38.966 41.8125 37.5973 41.8125 35.9984C41.8125 34.3995 41.2432 33.0313 40.1046 31.8938C38.966 30.7563 37.5972 30.1875 35.9983 30.1875C34.3994 30.1875 33.0312 30.7568 31.8937 31.8954C30.7562 33.034 30.1875 34.4028 30.1875 36.0017C30.1875 37.6006 30.7568 38.9688 31.8954 40.1063C33.034 41.2438 34.4027 41.8125 36.0016 41.8125ZM24.1875 53.625H47.8125V52.0875C47.8125 50.923 47.4949 49.8555 46.8597 48.8851C46.2245 47.9146 45.3546 47.1821 44.25 46.6875C42.973 46.1745 41.6503 45.765 40.2817 45.459C38.9132 45.153 37.4824 45 35.9894 45C34.4965 45 33.069 45.153 31.7069 45.459C30.3449 45.765 29.0259 46.1745 27.75 46.6875C26.6454 47.1821 25.7755 47.9146 25.1403 48.8851C24.5051 49.8555 24.1875 50.923 24.1875 52.0875V53.625ZM55.35 65.625H16.65C15.5015 65.625 14.4957 65.1934 13.6324 64.3301C12.7691 63.4668 12.3375 62.461 12.3375 61.3125V10.6875C12.3375 9.53905 12.7691 8.5332 13.6324 7.66995C14.4957 6.80665 15.5015 6.375 16.65 6.375H40.1625C40.7374 6.375 41.301 6.49348 41.8533 6.73043C42.4055 6.96738 42.8794 7.2864 43.275 7.6875L58.35 22.7625C58.7511 23.1581 59.0701 23.632 59.3071 24.1842C59.544 24.7365 59.6625 25.3001 59.6625 25.875V61.3125C59.6625 62.461 59.2309 63.4668 58.3675 64.3301C57.5043 65.1934 56.4985 65.625 55.35 65.625Z" />
</svg>
