<svg xmlns="http://www.w3.org/2000/svg" version="1.1" style="font-family:Lato, &#x27;Helvetica Neue&#x27;, Helvetica, Arial, sans-serif;font-size:18px;background-color:white;text-rendering:optimizeLegibility;-webkit-font-smoothing:antialiased" width="850" height="600"><g class="HeaderView"><g transform="translate(774, 15) scale(0.29)"><svg width="210" height="120" viewBox="0 0 210 120" fill="none" xmlns="http://www.w3.org/2000/svg"><defs>
        <clipPath id="clip0">
            <rect width="210" height="120" fill="white"/>
        </clipPath>
    </defs>
</svg></g><a href="https://ourworldindata.org/grapher/absolute-increase-global-population" target="_blank"><text font-size="25.20" x="15.0" y="35.2" fill="#555"><tspan x="15" y="35.160000000000004">Absolute increase in global population per year</tspan></text></a><text font-size="14.40" x="15.0" y="53.7" fill="#666"><tspan x="15" y="53.72">Absolute population change measures the net increase in total population in any given year e.g. data for 1950</tspan><tspan x="15" y="69.56">represents the net change in total population from 1950 to 1951. Data projections to 2100 are based on the UN</tspan><tspan x="15" y="85.4">Population Division&#x27;s &#x27;medium variant&#x27; projection.</tspan></text></g><g class="LineChart"><defs><clipPath id="boundsClip-1"><rect x="78.526" y="0" width="830" height="901.8"></rect></clipPath></defs><g class="AxisBoxView"><g class="HorizontalAxis"><text x="88.5" y="556.5" fill="#666" text-anchor="middle" font-size="16.2">1900</text><text x="214.8" y="556.5" fill="#666" text-anchor="middle" font-size="16.2">1950</text><text x="341" y="556.5" fill="#666" text-anchor="middle" font-size="16.2">2000</text><text x="467.3" y="556.5" fill="#666" text-anchor="middle" font-size="16.2">2050</text><text x="591" y="556.5" fill="#666" text-anchor="middle" font-size="16.2">2099</text></g><g class="VerticalAxis"><text x="83.53" y="535.3" fill="#666" dominant-baseline="middle" text-anchor="end" font-size="16.2">0</text><text x="83.53" y="442.7" fill="#666" dominant-baseline="middle" text-anchor="end" font-size="16.2">20 million</text><text x="83.53" y="350.1" fill="#666" dominant-baseline="middle" text-anchor="end" font-size="16.2">40 million</text><text x="83.53" y="257.6" fill="#666" dominant-baseline="middle" text-anchor="end" font-size="16.2">60 million</text><text x="83.53" y="165" fill="#666" dominant-baseline="middle" text-anchor="end" font-size="16.2">80 million</text></g><g class="AxisGridLines"><line x1="88.53" y1="535.3" x2="591.02" y2="535.3" stroke="#ccc"></line><line x1="88.53" y1="442.7" x2="591.02" y2="442.7" stroke="#ddd" stroke-dasharray="3,2"></line><line x1="88.53" y1="350.1" x2="591.02" y2="350.1" stroke="#ddd" stroke-dasharray="3,2"></line><line x1="88.53" y1="257.6" x2="591.02" y2="257.6" stroke="#ddd" stroke-dasharray="3,2"></line><line x1="88.53" y1="165" x2="591.02" y2="165" stroke="#ddd" stroke-dasharray="3,2"></line></g></g><g clip-path="url(#boundsClip-1)"><g class="HeightedLegend" style="cursor:default"><g class="legendMark"><rect x="591.02" y="481.55" width="243.98000000000002" height="13.5" fill="#fff" opacity="0"></rect><text font-size="13.50" x="595.0" y="492.4" fill="#3360a9"><tspan x="595.02" y="492.35">Projected net change in population</tspan></text></g></g><g class="Lines"><rect x="89" y="106" width="502" height="430" fill="rgba(255,255,255,0)" opacity="0"></rect><g class="key-World_0"><path stroke="#3360a9" stroke-linecap="round" d="M89 489L91 489L94 489L96 488L99 488L101 488L104 489L106 489L109 490L111 491L114 492L116 492L119 492L121 491L124 489L126 486L129 483L132 479L134 474L137 468L139 462L142 455L144 450L147 444L149 439L152 434L154 430L157 426L159 422L162 420L164 417L167 416L169 416L172 418L174 421L177 425L179 431L182 439L185 448L187 459L190 470L192 478L195 479L197 475L200 466L202 450L205 429L207 400L210 365L212 298L215 319L217 322L220 322L222 319L225 315L227 309L230 302L233 295L235 287L238 280L240 273L243 265L245 255L248 244L250 232L253 220L255 208L258 199L260 193L263 190L265 187L268 184L270 183L273 183L275 185L278 188L280 189L283 188L286 184L288 177L291 170L293 163L296 155L298 144L301 133L303 121L306 111L308 106L311 108L313 116L316 125L318 134L321 142L323 150L326 157L328 164L331 171L334 176L336 177L339 177L341 176L344 174L346 172L349 169L351 166L354 162L356 159L359 155L361 152L364 150L366 148L369 146L371 146L374 146L376 148L379 149L381 150" fill="none" stroke-width="1.5"></path><g fill="#3360a9"><circle cx="89" cy="489" r="2"></circle><circle cx="91" cy="489" r="2"></circle><circle cx="94" cy="489" r="2"></circle><circle cx="96" cy="488" r="2"></circle><circle cx="99" cy="488" r="2"></circle><circle cx="101" cy="488" r="2"></circle><circle cx="104" cy="489" r="2"></circle><circle cx="106" cy="489" r="2"></circle><circle cx="109" cy="490" r="2"></circle><circle cx="111" cy="491" r="2"></circle><circle cx="114" cy="492" r="2"></circle><circle cx="116" cy="492" r="2"></circle><circle cx="119" cy="492" r="2"></circle><circle cx="121" cy="491" r="2"></circle><circle cx="124" cy="489" r="2"></circle><circle cx="126" cy="486" r="2"></circle><circle cx="129" cy="483" r="2"></circle><circle cx="132" cy="479" r="2"></circle><circle cx="134" cy="474" r="2"></circle><circle cx="137" cy="468" r="2"></circle><circle cx="139" cy="462" r="2"></circle><circle cx="142" cy="455" r="2"></circle><circle cx="144" cy="450" r="2"></circle><circle cx="147" cy="444" r="2"></circle><circle cx="149" cy="439" r="2"></circle><circle cx="152" cy="434" r="2"></circle><circle cx="154" cy="430" r="2"></circle><circle cx="157" cy="426" r="2"></circle><circle cx="159" cy="422" r="2"></circle><circle cx="162" cy="420" r="2"></circle><circle cx="164" cy="417" r="2"></circle><circle cx="167" cy="416" r="2"></circle><circle cx="169" cy="416" r="2"></circle><circle cx="172" cy="418" r="2"></circle><circle cx="174" cy="421" r="2"></circle><circle cx="177" cy="425" r="2"></circle><circle cx="179" cy="431" r="2"></circle><circle cx="182" cy="439" r="2"></circle><circle cx="185" cy="448" r="2"></circle><circle cx="187" cy="459" r="2"></circle><circle cx="190" cy="470" r="2"></circle><circle cx="192" cy="478" r="2"></circle><circle cx="195" cy="479" r="2"></circle><circle cx="197" cy="475" r="2"></circle><circle cx="200" cy="466" r="2"></circle><circle cx="202" cy="450" r="2"></circle><circle cx="205" cy="429" r="2"></circle><circle cx="207" cy="400" r="2"></circle><circle cx="210" cy="365" r="2"></circle><circle cx="212" cy="298" r="2"></circle><circle cx="215" cy="319" r="2"></circle><circle cx="217" cy="322" r="2"></circle><circle cx="220" cy="322" r="2"></circle><circle cx="222" cy="319" r="2"></circle><circle cx="225" cy="315" r="2"></circle><circle cx="227" cy="309" r="2"></circle><circle cx="230" cy="302" r="2"></circle><circle cx="233" cy="295" r="2"></circle><circle cx="235" cy="287" r="2"></circle><circle cx="238" cy="280" r="2"></circle><circle cx="240" cy="273" r="2"></circle><circle cx="243" cy="265" r="2"></circle><circle cx="245" cy="255" r="2"></circle><circle cx="248" cy="244" r="2"></circle><circle cx="250" cy="232" r="2"></circle><circle cx="253" cy="220" r="2"></circle><circle cx="255" cy="208" r="2"></circle><circle cx="258" cy="199" r="2"></circle><circle cx="260" cy="193" r="2"></circle><circle cx="263" cy="190" r="2"></circle><circle cx="265" cy="187" r="2"></circle><circle cx="268" cy="184" r="2"></circle><circle cx="270" cy="183" r="2"></circle><circle cx="273" cy="183" r="2"></circle><circle cx="275" cy="185" r="2"></circle><circle cx="278" cy="188" r="2"></circle><circle cx="280" cy="189" r="2"></circle><circle cx="283" cy="188" r="2"></circle><circle cx="286" cy="184" r="2"></circle><circle cx="288" cy="177" r="2"></circle><circle cx="291" cy="170" r="2"></circle><circle cx="293" cy="163" r="2"></circle><circle cx="296" cy="155" r="2"></circle><circle cx="298" cy="144" r="2"></circle><circle cx="301" cy="133" r="2"></circle><circle cx="303" cy="121" r="2"></circle><circle cx="306" cy="111" r="2"></circle><circle cx="308" cy="106" r="2"></circle><circle cx="311" cy="108" r="2"></circle><circle cx="313" cy="116" r="2"></circle><circle cx="316" cy="125" r="2"></circle><circle cx="318" cy="134" r="2"></circle><circle cx="321" cy="142" r="2"></circle><circle cx="323" cy="150" r="2"></circle><circle cx="326" cy="157" r="2"></circle><circle cx="328" cy="164" r="2"></circle><circle cx="331" cy="171" r="2"></circle><circle cx="334" cy="176" r="2"></circle><circle cx="336" cy="177" r="2"></circle><circle cx="339" cy="177" r="2"></circle><circle cx="341" cy="176" r="2"></circle><circle cx="344" cy="174" r="2"></circle><circle cx="346" cy="172" r="2"></circle><circle cx="349" cy="169" r="2"></circle><circle cx="351" cy="166" r="2"></circle><circle cx="354" cy="162" r="2"></circle><circle cx="356" cy="159" r="2"></circle><circle cx="359" cy="155" r="2"></circle><circle cx="361" cy="152" r="2"></circle><circle cx="364" cy="150" r="2"></circle><circle cx="366" cy="148" r="2"></circle><circle cx="369" cy="146" r="2"></circle><circle cx="371" cy="146" r="2"></circle><circle cx="374" cy="146" r="2"></circle><circle cx="376" cy="148" r="2"></circle><circle cx="379" cy="149" r="2"></circle><circle cx="381" cy="150" r="2"></circle></g></g><g class="key-World_1"><path stroke="#3360a9" stroke-linecap="round" d="M384 153L387 157L389 161L392 165L394 170L397 174L399 179L402 183L404 188L407 192L409 197L412 201L414 206L417 210L419 215L422 219L424 224L427 228L429 232L432 237L435 241L437 246L440 250L442 254L445 259L447 263L450 268L452 273L455 278L457 282L460 287L462 293L465 298L467 303L470 308L472 314L475 319L477 324L480 330L482 335L485 340L488 345L490 349L493 354L495 358L498 362L500 366L503 370L505 374L508 378L510 382L513 385L515 389L518 393L520 396L523 400L525 404L528 407L530 411L533 415L536 418L538 422L541 425L543 428L546 431L548 435L551 438L553 441L556 444L558 447L561 450L563 453L566 456L568 459L571 462L573 465L576 468L578 471L581 475L583 478L586 481L589 485L591 488" fill="none" stroke-width="1.5" stroke-dasharray="1,4"></path></g></g></g></g><g class="SourcesFooter" style="fill:#777"><g class="clickable" style="fill:#777"><text font-size="12.60" x="15.0" y="581.6"><tspan x="15" y="581.58">Source: Absolute population change - OWID based on HYDE &amp; UN</tspan></text></g><text font-size="12.60" x="796.4" y="581.6"><tspan x="796.444" y="581.58"><a style="fill: #777;" class="cclogo" href="http://creativecommons.org/licenses/by/4.0/deed.en_US" target="_blank">CC BY</a></tspan></text></g></svg>