<?xml version="1.0" encoding="UTF-8"?>
<svg width="1800" height="900" xmlns="http://www.w3.org/2000/svg" version="1.1">
<style type="text/css">#ices{fill:#E8F0F6;}</style>
<rect id="frame" width="1800" height="900" fill="#332211" fill-opacity="0"/>
<g id="ices">
<polygon points="61,29 69,41 69,41 80,34 87,38 88,42 88,42 98,42 104,36 113,44 119,39 120,39 123,35 136,35 138,32 
	147,35 152,40 160,37 164,31 177,40 183,38 190,42 197,37 199,36 203,38 215,33 218,40 227,41 231,35 240,36 242,38 253,37 256,34 
	266,34 267,33 278,40 281,38 296,41 298,38 306,36 306,36 322,38 322,38 327,37 328,36 340,39 341,37 356,39 356,39 364,37 369,33 
	369,33 379,39 383,38 392,43 400,37 406,38 408,42 422,41 422,42 431,41 435,37 445,43 450,34 456,32 461,39 469,38 472,34 483,41 
	489,37 492,38 494,40 508,39 510,36 526,38 527,38 532,37 533,37 544,43 549,36 557,35 562,29 570,46 577,38 583,38 587,34 597,46 
	601,36 609,36 614,40 622,34 629,40 639,38 640,37 649,37 651,38 659,34 661,36 674,36 675,36 684,44 694,37 695,37 699,39 708,39 
	710,41 722,38 728,44 737,35 747,36 748,36 752,41 763,41 767,35 776,41 781,36 785,36 790,33 796,33 800,42 810,42 812,40 820,44 
	828,44 832,38 843,36 846,38 853,38 857,42 868,43 869,42 872,42 875,39 885,39 886,39 900,39 901,41 915,36 919,39 927,39 932,35 
	938,33 945,41 953,40 958,37 960,37 970,33 975,44 976,44 982,34 988,34 990,40 1002,37 1004,31 1013,35 1016,39 1027,38 1032,41 
	1041,31 1056,36 1056,36 1066,40 1073,36 1080,41 1086,33 1095,34 1095,35 1102,40 1110,35 1119,41 1123,38 1127,37 1134,30 
	1144,42 1145,41 1155,35 1161,39 1166,36 1177,40 1181,36 1189,37 1196,32 1204,36 1209,45 1209,45 1219,34 1225,35 1229,33 
	1239,39 1246,34 1255,39 1257,39 1258,38 1271,43 1275,35 1286,38 1289,41 1296,40 1298,38 1310,44 1314,43 1316,38 1323,35 
	1329,38 1337,36 1338,35 1350,34 1351,38 1362,40 1363,38 1374,36 1375,38 1382,43 1389,37 1397,46 1403,33 1413,43 1421,37 
	1423,37 1427,33 1439,33 1441,43 1449,41 1455,42 1461,42 1465,37 1472,40 1476,43 1489,37 1492,41 1502,40 1506,31 1518,38 
	1519,38 1524,40 1525,38 1542,40 1542,40 1558,39 1558,39 1568,43 1575,39 1577,34 1593,39 1593,39 1604,38 1607,41 1614,38 
	1616,34 1629,35 1630,33 1643,35 1647,41 1656,45 1659,41 1664,38 1669,41 1680,38 1681,39 1689,38 1695,44 1703,36 1710,41 
	1716,40 1721,35 1731,38 1733,36 1745,35 1749,43 1757,42 1757,42 1769,40 1769,40 1776,41 1780,36 1799,40 1800,39.7 1800,28 
	1800,28 1800,28 1800,0 1161,0 1161,0 1159,0 1159,0 1005,0 1005,0 1005,0 895,0 895,0 895,0 749,0 749,0 749,0 0,0 0,36 11,36 
	12,35 22,46 27,34 35,35 40,42 43,40 54,42 "/>
<polygon points="35,43 25,45 24,45 23,44 27,35 33,36 36,41 "/>
<polygon points="56,49 52,54 42,50 41,46 42,44 45,43 52,44 "/>
<polygon points="69,41 76,49 65,53 61,49 61,49 "/>
<polygon points="80,49 77,47 70,41 79,36 84,39 85,42 82,49 "/>
<polygon points="111,44 104,47 99,42 104,37 111,43 "/>
<polygon points="134,36 132,46 130,47 122,39 124,36 "/>
<polygon points="146,46 139,47 136,46 137,36 139,34 145,36 149,40 "/>
<polygon points="164,51 153,53 149,48 153,41 159,38 165,47 "/>
<polygon points="171,45 167,45 161,37 164,32 176,40 "/>
<polygon points="185,50 180,50 174,46 177,42 181,40 186,43 186,46 "/>
<polygon points="209,49 206,50 192,46 192,42 197,38 199,37 202,39 208,47 "/>
<polygon points="214,34 216,39 210,44 205,38 "/>
<polygon points="225,49 217,52 213,48 213,46 218,41 224,42 "/>
<polygon points="230,51 229,50 228,41 231,36 239,37 241,38 242,45 236,53 "/>
<polygon points="261,46 254,46 253,37 256,35 264,35 "/>
<polygon points="276,44 265,48 263,47 266,36 267,35 276,40 "/>
<polygon points="315,50 311,48 308,37 308,37 320,39 321,45 "/>
<polygon points="368,51 360,49 359,44 359,41 359,41 364,40 369,49 "/>
<polygon points="374,48 371,49 365,37 369,34 369,34 377,39 "/>
<polygon points="433,46 425,54 422,50 423,43 430,42 "/>
<polygon points="444,43 444,47 438,49 434,45 431,41 435,37 "/>
<polygon points="458,43 452,47 448,47 446,46 446,42 450,35 455,34 459,39 "/>
<polygon points="473,48 468,51 462,44 463,40 468,40 474,46 473,47 "/>
<polygon points="480,40 476,44 470,38 473,35 "/>
<polygon points="492,53 478,49 478,47 483,42 488,39 490,40 492,42 493,49 "/>
<polygon points="507,50 497,49 495,40 507,39 511,45 "/>
<polygon points="518,44 513,44 509,39 511,36 523,38 524,38 520,43 "/>
<polygon points="544,50 535,52 533,40 534,40 541,44 "/>
<polygon points="554,48 549,48 546,42 549,37 555,36 "/>
<polygon points="559,50 556,49 557,35 561,30 568,45 567,47 "/>
<polygon points="573,50 570,48 571,45 577,38 582,38 585,50 "/>
<polygon points="587,49 586,49 584,39 587,36 594,44 594,45 "/>
<polygon points="607,45 600,45 599,45 599,44 602,37 608,37 611,40 610,43 "/>
<polygon points="619,50 615,44 615,41 622,36 627,41 625,48 "/>
<polygon points="657,47 655,47 653,39 658,36 660,38 662,44 "/>
<polygon points="668,44 665,43 663,37 672,37 "/>
<polygon points="671,48 670,45 674,37 675,37 682,43 682,44 "/>
<polygon points="708,53 701,52 700,47 700,42 706,42 707,44 709,51 "/>
<polygon points="721,49 715,50 713,42 721,40 725,44 725,45 "/>
<polygon points="736,48 730,44 730,43 736,37 744,37 "/>
<polygon points="747,48 738,52 738,49 746,39 746,39 749,43 749,45 "/>
<polygon points="762,53 755,44 755,42 762,42 767,49 766,51 763,53 "/>
<polygon points="769,47 765,41 767,37 773,41 772,46 "/>
<polygon points="788,46 782,50 776,47 777,41 781,38 784,38 "/>
<polygon points="791,44 787,37 791,35 795,35 797,41 794,45 "/>
<polygon points="800,54 798,48 801,44 808,44 808,49 802,56 "/>
<polygon points="816,56 810,50 810,42 812,41 819,44 "/>
<polygon points="845,52 845,52 847,40 852,40 855,43 855,46 848,53 "/>
<polygon points="862,54 859,46 859,44 866,44 865,52 "/>
<polygon points="878,53 868,53 869,44 870,43 872,43 878,51 "/>
<polygon points="880,48 874,42 876,40 883,40 883,40 882,47 "/>
<polygon points="892,49 886,48 888,41 897,41 897,42 897,44 "/>
<polygon points="928,48 919,52 919,52 921,42 926,42 "/>
<polygon points="934,50 931,47 928,39 932,36 937,34 943,41 942,44 939,50 "/>
<polygon points="967,45 962,37 969,35 973,42 "/>
<polygon points="992,47 991,40 1001,37 1000,48 993,47 "/>
<polygon points="1002,49 1002,37 1004,32 1011,36 1014,39 1011,45 1003,49 "/>
<polygon points="1069,47 1067,41 1073,37 1078,41 1080,45 1076,50 1075,51 "/>
<polygon points="1106,46 1105,40 1110,37 1115,41 1114,46 1108,48 "/>
<polygon points="1121,47 1122,42 1124,41 1127,40 1132,47 1127,50 1122,48 "/>
<polygon points="1135,46 1128,37 1134,32 1141,41 1140,45 1140,46 "/>
<polygon points="1144,46 1145,42 1146,41 1154,36 1160,39 1160,46 1158,48 "/>
<polygon points="1162,46 1162,40 1166,37 1174,40 1174,40 1168,46 "/>
<polygon points="1172,50 1170,48 1175,43 1178,50 "/>
<polygon points="1216,45 1213,43 1219,36 1223,37 1224,45 1219,47 "/>
<polygon points="1238,45 1240,40 1245,35 1253,40 1243,49 "/>
<polygon points="1247,54 1245,50 1253,42 1254,42 1254,45 "/>
<polygon points="1269,52 1259,52 1258,45 1258,42 1259,41 1268,45 1271,50 "/>
<polygon points="1274,41 1277,36 1284,38 1286,40 1280,46 1277,46 "/>
<polygon points="1287,54 1281,50 1289,42 1295,41 1295,46 1293,53 "/>
<polygon points="1305,52 1297,46 1297,42 1299,40 1308,45 "/>
<polygon points="1316,42 1318,39 1322,37 1327,39 1324,49 1323,49 "/>
<polygon points="1327,49 1330,40 1335,39 1337,47 1336,49 "/>
<polygon points="1353,45 1353,39 1360,40 1359,46 1353,46 "/>
<polygon points="1369,51 1375,39 1381,43 1382,49 1382,50 1374,54 1373,54 "/>
<polygon points="1412,47 1413,43 1420,38 1422,38 1428,48 1413,51 "/>
<polygon points="1444,44 1444,44 1449,42 1453,43 1449,49 "/>
<polygon points="1464,45 1463,44 1466,40 1471,42 1474,44 1474,47 1467,50 "/>
<polygon points="1494,46 1494,42 1501,41 1504,46 1500,49 "/>
<polygon points="1502,39 1506,32 1516,38 1517,38 1507,45 1507,45 "/>
<polygon points="1513,54 1510,47 1518,41 1521,42 1521,43 "/>
<polygon points="1527,41 1528,39 1540,41 1541,49 1539,51 1529,46 "/>
<polygon points="1543,40 1543,40 1556,39 1553,44 1543,50 1543,50 "/>
<polygon points="1576,53 1570,49 1569,43 1575,40 1582,50 "/>
<polygon points="1589,49 1582,50 1575,39 1577,35 1591,39 1589,45 "/>
<polygon points="1595,40 1595,40 1603,40 1606,42 1609,49 1606,51 1593,46 "/>
<polygon points="1615,38 1616,35 1625,36 1624,42 1621,45 1620,45 "/>
<polygon points="1639,50 1647,42 1654,45 1654,48 1654,53 1641,55 "/>
<polygon points="1657,45 1659,41 1664,38 1668,41 1670,48 1670,49 1657,47 "/>
<polygon points="1678,39 1679,40 1679,44 1671,47 1670,41 "/>
<polygon points="1683,45 1683,40 1688,39 1693,44 1693,47 1688,51 1686,50 "/>
<polygon points="1695,43 1702,36 1709,41 1705,50 1695,47 "/>
<polygon points="1719,42 1722,39 1728,40 1730,48 1729,48 1722,48 "/>
<polygon points="1734,49 1732,38 1733,36 1744,35 1747,42 1746,44 1743,48 "/>
<polygon points="1767,49 1769,43 1774,43 1774,45 1772,51 "/>
<polygon points="1780,43 1779,41 1782,38 1794,41 1786,47 "/>
<polygon points="48,59 42,61 41,60 43,55 49,57 "/>
<polygon points="110,57 103,57 103,54 105,50 111,47 112,52 "/>
<polygon points="149,61 142,65 139,51 146,51 149,55 "/>
<polygon points="169,52 170,49 173,48 178,52 172,56 "/>
<polygon points="198,59 196,59 191,55 190,52 192,47 205,51 "/>
<polygon points="213,62 202,61 200,60 207,52 210,51 214,56 "/>
<polygon points="261,56 256,59 253,57 255,51 255,51 259,51 260,52 "/>
<polygon points="273,60 266,56 265,50 276,46 279,50 276,58 "/>
<polygon points="327,52 328,57 326,58 322,58 321,53 324,51 "/>
<polygon points="365,64 359,66 354,60 359,53 368,55 369,58 "/>
<polygon points="379,55 380,57 378,58 376,56 376,55 376,54 377,54 "/>
<polygon points="422,60 416,62 410,57 410,56 410,55 419,54 420,56 "/>
<polygon points="454,59 449,59 449,58 449,53 451,53 "/>
<polygon points="480,63 472,62 469,61 471,56 475,54 481,62 "/>
<polygon points="485,63 485,63 478,51 478,50 491,54 490,58 "/>
<polygon points="505,61 498,58 498,55 499,53 506,53 507,59 "/>
<polygon points="524,61 520,59 521,48 522,48 528,55 528,58 "/>
<polygon points="556,64 548,64 550,57 550,56 554,56 556,57 "/>
<polygon points="571,64 564,66 563,64 562,55 568,53 570,55 "/>
<polygon points="595,60 593,58 592,55 596,53 597,53 598,58 "/>
<polygon points="610,58 610,58 609,50 612,48 616,52 616,58 "/>
<polygon points="624,61 621,58 621,53 626,51 631,55 631,56 "/>
<polygon points="652,62 649,60 650,55 654,52 656,52 659,57 654,62 "/>
<polygon points="667,51 667,54 663,54 662,51 664,49 666,50 "/>
<polygon points="703,62 700,62 698,59 701,58 704,59 704,59 "/>
<polygon points="727,57 723,52 728,47 734,50 735,54 736,57 "/>
<polygon points="778,60 774,56 774,56 776,55 779,56 779,58 "/>
<polygon points="786,56 784,52 790,49 793,50 795,56 788,58 "/>
<polygon points="814,59 806,59 805,57 810,52 814,56 815,58 "/>
<polygon points="832,60 832,59 834,54 840,55 840,55 838,59 838,60 "/>
<polygon points="898,57 896,52 900,49 903,54 901,57 "/>
<polygon points="948,58 943,51 945,47 951,52 950,57 "/>
<polygon points="1007,59 1005,52 1013,47 1018,51 1017,58 1012,61 "/>
<polygon points="1026,59 1018,59 1019,51 1027,51 "/>
<polygon points="1031,59 1032,54 1033,53 1037,57 1036,60 1032,61 "/>
<polygon points="1067,59 1061,57 1061,56 1067,51 1072,54 1070,57 "/>
<polygon points="1133,58 1132,56 1136,53 1139,53 1141,59 1139,60 "/>
<polygon points="1149,57 1147,51 1148,50 1155,51 1155,57 1154,58 "/>
<polygon points="1172,56 1173,53 1176,53 1176,53 1175,56 "/>
<polygon points="1225,59 1224,56 1226,55 1227,55 1228,59 1226,60 "/>
<polygon points="1248,55 1255,46 1256,52 1253,58 1249,58 "/>
<polygon points="1257,60 1259,54 1268,54 1268,55 1261,61 "/>
<polygon points="1277,55 1278,54 1281,54 1285,57 1286,64 1285,65 1279,60 1277,56 "/>
<polygon points="1297,53 1298,49 1303,53 1303,55 1299,56 "/>
<polygon points="1360,63 1366,55 1367,55 1370,58 1369,60 1361,65 "/>
<polygon points="1386,53 1386,52 1393,52 1395,58 1388,63 "/>
<polygon points="1401,52 1402,51 1407,51 1408,53 1408,55 1404,56 1402,56 "/>
<polygon points="1417,56 1417,53 1424,52 1426,53 1426,53 1420,58 1418,57 "/>
<polygon points="1426,68 1423,62 1429,56 1432,59 "/>
<polygon points="1434,51 1441,45 1447,52 1449,58 1449,59 1443,59 1437,56 1434,52 "/>
<polygon points="1456,57 1462,45 1466,51 1467,58 "/>
<polygon points="1469,57 1469,57 1468,51 1474,48 1475,51 1471,57 "/>
<polygon points="1493,57 1492,54 1494,52 1497,53 1497,57 1497,57 "/>
<polygon points="1502,59 1501,52 1506,49 1507,49 1510,55 1510,58 "/>
<polygon points="1513,54 1522,43 1524,48 1520,59 1517,59 1514,58 "/>
<polygon points="1544,57 1545,56 1545,56 1552,61 1551,62 1546,65 1544,58 "/>
<polygon points="1561,59 1562,56 1569,51 1574,55 1574,57 1564,63 "/>
<polygon points="1622,60 1622,54 1623,54 1623,54 1626,60 1626,61 1626,61 "/>
<polygon points="1631,57 1628,52 1629,51 1633,53 1633,55 1633,55 "/>
<polygon points="1660,55 1659,53 1659,49 1668,51 1669,56 1668,57 1663,57 "/>
<polygon points="1681,63 1677,59 1684,56 1686,56 1687,59 1687,59 "/>
<polygon points="1702,60 1692,57 1691,54 1695,50 1703,52 1704,55 1704,60 "/>
<polygon points="1721,61 1720,52 1721,51 1731,52 1731,60 1727,63 "/>
<polygon points="1737,59 1737,54 1738,54 1743,53 1746,59 1742,62 "/>
<polygon points="1763,57 1763,55 1764,52 1767,50 1771,52 1771,58 1770,59 1764,58 "/>
<polygon points="18,70 10,71 9,71 9,66 13,61 19,65 "/>
<polygon points="36,70 30,75 26,75 22,71 23,66 26,63 35,64 36,66 "/>
<polygon points="134,72 129,76 128,74 130,71 "/>
<polygon points="153,69 151,74 146,73 145,71 146,70 151,67 "/>
<polygon points="201,73 196,71 198,67 199,67 200,68 "/>
<polygon points="210,74 206,75 204,74 202,64 213,65 213,67 213,72 "/>
<polygon points="229,71 227,74 222,71 222,68 227,68 229,69 "/>
<polygon points="249,74 247,74 246,73 246,63 250,63 254,65 255,70 "/>
<polygon points="317,69 318,76 316,77 313,71 313,71 "/>
<polygon points="371,72 368,76 362,70 362,69 366,67 "/>
<polygon points="405,75 395,78 392,73 394,66 399,65 "/>
<polygon points="408,74 408,74 402,63 406,58 415,65 410,74 "/>
<polygon points="443,72 438,69 437,65 438,63 445,63 445,64 "/>
<polygon points="540,77 532,80 531,73 540,68 541,68 541,73 "/>
<polygon points="556,73 547,71 546,67 547,66 557,67 558,69 "/>
<polygon points="573,76 565,78 564,75 565,72 571,71 574,76 "/>
<polygon points="581,70 581,70 579,67 579,67 584,65 582,70 "/>
<polygon points="593,71 584,73 588,64 588,64 592,67 "/>
<polygon points="607,73 601,74 598,70 597,66 601,62 607,62 607,62 607,72 "/>
<polygon points="618,71 610,71 610,63 617,62 620,65 620,68 "/>
<polygon points="636,70 626,67 625,64 633,59 640,63 "/>
<polygon points="648,77 644,74 644,73 646,69 646,69 649,70 648,76 "/>
<polygon points="691,69 685,63 688,60 689,60 692,61 694,66 692,69 "/>
<polygon points="771,68 769,67 766,63 767,61 768,61 773,65 773,67 "/>
<polygon points="789,71 789,71 789,62 797,59 799,60 800,63 799,69 798,71 "/>
<polygon points="849,69 846,70 843,63 843,62 851,65 850,69 "/>
<polygon points="884,73 882,67 883,64 891,66 890,75 889,76 884,74 "/>
<polygon points="927,73 927,72 932,64 937,68 936,72 935,73 "/>
<polygon points="952,77 942,73 942,68 948,65 948,65 954,75 "/>
<polygon points="1008,77 1005,73 1006,66 1007,64 1011,66 1013,71 "/>
<polygon points="1038,75 1036,73 1036,70 1040,68 1043,70 1045,74 1041,77 "/>
<polygon points="1088,65 1089,63 1092,60 1101,61 1098,70 1093,72 "/>
<polygon points="1145,71 1144,71 1146,67 1147,66 1152,67 1151,73 "/>
<polygon points="1171,71 1167,63 1170,62 1176,62 1179,68 1179,69 1179,70 "/>
<polygon points="1216,68 1216,66 1218,65 1220,66 1219,69 "/>
<polygon points="1292,70 1291,68 1292,68 1298,64 1299,71 1297,72 1293,72 "/>
<polygon points="1303,68 1302,64 1302,64 1304,63 1306,65 "/>
<polygon points="1330,69 1330,69 1336,67 1337,68 1337,69 1335,72 "/>
<polygon points="1342,76 1344,72 1347,76 1346,77 "/>
<polygon points="1461,71 1458,67 1456,64 1456,63 1458,63 1464,63 1464,63 1463,70 "/>
<polygon points="1467,72 1469,63 1472,63 1475,65 1473,70 "/>
<polygon points="1549,67 1552,64 1552,69 1551,69 1548,69 "/>
<polygon points="1569,68 1569,65 1574,61 1576,65 1574,69 1570,69 "/>
<polygon points="1607,65 1608,64 1613,66 1613,71 1607,73 "/>
<polygon points="1619,72 1618,71 1618,67 1619,67 1622,68 "/>
<polygon points="1661,72 1664,64 1669,64 1669,71 1668,73 "/>
<polygon points="1673,63 1674,63 1675,63 1678,66 1680,69 1674,71 "/>
<polygon points="1690,70 1691,61 1691,60 1701,63 1698,68 1690,71 "/>
<polygon points="1746,68 1750,64 1757,64 1758,65 1755,73 1746,73 "/>
<polygon points="1759,74 1761,68 1766,69 1766,74 1760,77 "/>
<polygon points="1774,74 1774,68 1775,67 1781,68 1782,78 1780,80 1779,80 1774,75 "/>
<polygon points="32,86 31,86 31,86 31,86 31,85 "/>
<polygon points="74,80 74,83 71,83 71,83 72,80 "/>
<polygon points="98,83 97,83 97,83 97,82 98,82 "/>
<polygon points="199,78 198,80 198,79 196,78 197,77 "/>
<polygon points="237,78 236,79 236,78 236,78 236,78 237,78 "/>
<polygon points="274,84 274,85 273,85 273,85 273,84 "/>
<polygon points="363,85 360,85 356,82 356,77 359,75 365,80 365,83 "/>
<polygon points="437,84 435,88 433,86 434,83 434,82 "/>
<polygon points="525,83 521,83 519,75 524,72 527,74 528,81 528,83 "/>
<polygon points="551,79 551,79 550,78 550,78 551,78 551,78 "/>
<polygon points="571,86 569,84 569,84 572,83 572,85 "/>
<polygon points="643,86 641,87 639,84 640,82 643,84 643,85 "/>
<polygon points="657,80 653,80 653,79 653,79 656,76 658,77 "/>
<polygon points="680,87 680,87 677,80 686,80 687,84 683,87 "/>
<polygon points="698,79 697,80 697,80 697,79 697,79 697,79 "/>
<polygon points="714,89 713,86 712,79 713,78 719,77 724,86 721,89 "/>
<polygon points="726,84 721,76 724,73 731,74 732,78 731,82 "/>
<polygon points="857,87 855,79 856,79 861,81 861,81 861,85 "/>
<polygon points="883,89 876,88 880,82 885,84 886,86 "/>
<polygon points="918,86 918,83 920,83 921,86 921,87 "/>
<polygon points="1031,83 1030,87 1026,87 1029,82 1030,82 "/>
<polygon points="1033,88 1033,88 1033,86 1034,86 1034,87 1034,87 "/>
<polygon points="1075,87 1074,85 1074,83 1075,83 1075,83 1077,84 1077,87 1077,87 "/>
<polygon points="1086,88 1086,85 1089,83 1090,87 1090,88 "/>
<polygon points="1126,88 1125,87 1127,84 1128,84 1129,87 1129,88 "/>
<polygon points="1392,85 1391,85 1391,84 1391,83 1392,84 1392,84 "/>
<polygon points="1437,87 1436,86 1436,86 1436,86 1437,86 "/>
<polygon points="1533,82 1535,79 1540,79 1542,87 1537,88 "/>
<polygon points="1555,81 1554,80 1555,80 1555,80 1555,80 1555,80 "/>
<polygon points="1581,85 1582,85 1582,85 1582,85 1582,86 "/>
<polygon points="1592,83 1593,83 1595,84 1595,84 1592,85 1592,85 "/>
<polygon points="1657,80 1660,79 1668,79 1670,83 1666,90 1656,87 "/>
<polygon points="1678,77 1679,77 1679,77 1679,77 1679,77 1679,77 1679,77 1679,77 "/>
<polygon points="1714,87 1713,87 1712,86 1713,86 1713,86 "/>
<polygon points="1726,80 1726,79 1727,79 1727,79 1727,80 "/>
<polygon points="1770,83 1770,82 1771,83 1770,84 "/>
<polygon points="7,97 5,98 4,96 6,95 7,95 "/>
<polygon points="49,101 48,101 43,101 43,100 45,96 46,96 49,100 49,100 "/>
<polygon points="79,89 73,92 71,91 71,89 76,88 "/>
<polygon points="97,96 94,96 92,90 100,87 105,91 "/>
<polygon points="122,100 116,101 115,100 112,93 115,89 124,91 124,98 "/>
<polygon points="137,96 136,96 136,95 136,95 137,94 "/>
<polygon points="194,90 187,93 185,91 186,89 193,89 194,89 "/>
<polygon points="225,93 219,96 218,96 219,90 224,89 225,90 226,92 "/>
<polygon points="242,86 246,93 246,93 236,92 236,89 "/>
<polygon points="291,99 290,98 290,98 291,98 291,98 "/>
<polygon points="312,98 305,100 302,99 302,96 303,90 305,88 309,89 311,91 "/>
<polygon points="443,90 443,90 443,90 443,89 443,89 443,89 "/>
<polygon points="457,99 447,99 445,97 448,92 456,92 458,95 "/>
<polygon points="486,92 478,96 476,94 482,88 "/>
<polygon points="506,94 505,94 505,93 505,93 506,93 506,93 "/>
<polygon points="553,91 554,98 547,103 546,100 544,94 549,90 "/>
<polygon points="619,93 613,95 611,92 614,90 618,89 619,89 "/>
<polygon points="674,97 673,99 672,99 671,98 671,98 671,97 "/>
<polygon points="682,105 677,101 679,93 684,93 686,98 "/>
<polygon points="844,100 844,100 844,100 845,100 845,100 845,100 "/>
<polygon points="860,96 858,96 857,93 858,91 862,90 863,91 861,96 "/>
<polygon points="871,102 866,100 869,94 870,94 875,99 "/>
<polygon points="997,93 997,92 998,91 1000,90 1000,93 "/>
<polygon points="1045,92 1045,92 1045,91 1046,92 1046,92 "/>
<polygon points="1114,97 1114,93 1114,93 1116,93 1117,94 1117,97 "/>
<polygon points="1162,97 1162,96 1162,95 1164,95 1165,95 1165,95 1163,97 "/>
<polygon points="1214,92 1214,91 1214,91 1215,92 1215,92 "/>
<polygon points="1237,95 1237,89 1240,88 1242,92 1242,94 "/>
<polygon points="1366,98 1366,93 1369,94 1370,95 1370,98 "/>
<polygon points="1382,97 1382,95 1383,95 1384,95 1384,96 "/>
<polygon points="1396,91 1398,89 1400,89 1400,90 1398,93 1398,93 1396,92 "/>
<polygon points="1403,99 1407,92 1411,94 1411,98 1410,100 1404,100 "/>
<polygon points="1473,91 1474,89 1474,89 1483,90 1484,91 1483,93 1480,96 1477,95 "/>
<polygon points="1494,100 1492,97 1493,96 1497,98 1497,98 "/>
<polygon points="1522,92 1525,86 1526,86 1526,95 1522,94 "/>
<polygon points="1540,97 1540,97 1540,96 1541,96 1541,96 1541,98 "/>
<polygon points="1654,92 1655,91 1664,94 1665,96 1660,103 1659,103 1655,100 "/>
<polygon points="1675,92 1675,91 1676,91 1676,91 1676,92 "/>
<polygon points="1703,91 1703,90 1703,90 1703,90 1703,90 1703,91 1703,91 "/>
<polygon points="1715,94 1715,95 1714,95 1714,94 "/>
<polygon points="1733,99 1736,90 1739,89 1743,97 1738,101 "/>
<polygon points="29,110 27,110 26,109 25,107 27,106 29,107 29,107 "/>
<polygon points="235,113 234,113 234,113 235,112 235,112 "/>
<polygon points="516,114 511,117 507,114 507,113 510,106 513,105 516,106 "/>
<polygon points="571,103 572,110 571,111 566,108 566,104 570,102 "/>
<polygon points="608,111 606,112 606,110 608,109 609,111 "/>
<polygon points="638,115 630,109 632,105 635,104 639,113 "/>
<polygon points="645,107 645,107 644,105 644,105 645,106 646,107 "/>
<polygon points="676,108 675,108 675,106 676,106 677,107 677,108 "/>
<polygon points="705,109 703,109 702,108 702,106 703,105 705,105 706,106 706,108 "/>
<polygon points="975,107 975,107 975,107 976,106 976,106 976,107 "/>
<polygon points="997,109 997,108 997,108 997,107 998,107 998,108 998,108 998,108 "/>
<polygon points="1015,113 1015,113 1014,113 1014,113 1014,113 "/>
<polygon points="1038,109 1038,109 1038,109 1038,109 1039,109 "/>
<polygon points="1087,110 1087,110 1087,110 1087,110 1088,110 "/>
<polygon points="1150,106 1150,105 1151,105 1151,105 1151,105 1151,106 "/>
<polygon points="1205,111 1205,110 1206,110 1206,110 1207,111 1206,111 "/>
<polygon points="1304,109 1304,108 1304,108 1305,108 1305,109 "/>
<polygon points="1421,108 1419,105 1420,104 1423,105 1423,108 1423,108 1422,108 "/>
<polygon points="1476,104 1475,103 1475,103 1475,103 1476,103 1476,103 "/>
<polygon points="1518,110 1517,105 1520,103 1524,104 1525,104 1525,105 1521,111 "/>
<polygon points="1558,106 1557,101 1560,104 1560,105 "/>
<polygon points="1633,113 1633,112 1633,112 1634,113 1634,113 "/>
<polygon points="195,122 192,123 191,119 192,118 196,120 "/>
<polygon points="549,127 546,126 545,117 546,115 546,115 553,118 555,122 "/>
<polygon points="1231,121 1231,121 1231,120 1232,120 1232,120 1232,121 "/>
<polygon points="67,782 66,782 66,782 66,781 "/>
<polygon points="257,779 257,779 256,779 256,779 256,779 257,779 "/>
<polygon points="956,776 961,779 961,780 961,781 956,781 956,781 955,779 "/>
<polygon points="1173,784 1179,782 1181,787 1179,792 "/>
<polygon points="1355,787 1355,783 1360,780 1362,782 1364,789 1362,790 "/>
<polygon points="1658,785 1659,785 1659,786 1657,787 "/>
<polygon points="1751,778 1752,777 1755,779 1758,784 1755,787 1750,784 "/>
<polygon points="1785,778 1793,773 1796,782 1794,785 1784,783 "/>
<polygon points="87,795 86,796 84,796 83,795 83,793 86,794 "/>
<polygon points="126,793 125,796 122,796 121,795 121,795 124,792 "/>
<polygon points="159,791 159,791 158,791 158,791 158,791 159,791 "/>
<polygon points="233,795 233,795 232,795 232,795 "/>
<polygon points="269,783 274,790 272,794 268,794 266,785 "/>
<polygon points="379,793 378,792 381,791 381,793 "/>
<polygon points="393,791 393,794 390,794 390,794 390,791 390,791 "/>
<polygon points="447,796 447,797 447,797 446,798 445,796 445,796 446,795 447,795 "/>
<polygon points="517,798 517,799 517,799 517,799 516,798 517,798 "/>
<polygon points="608,790 610,789 611,790 609,791 "/>
<polygon points="745,795 746,799 742,801 738,798 739,793 "/>
<polygon points="785,795 785,795 785,795 784,795 785,794 "/>
<polygon points="816,790 816,790 816,790 816,790 815,790 815,789 "/>
<polygon points="889,795 890,800 889,801 882,799 882,799 884,795 887,794 "/>
<polygon points="910,790 912,793 910,796 910,796 907,791 907,790 "/>
<polygon points="949,793 949,794 949,794 949,794 949,793 "/>
<polygon points="1078,800 1078,800 1079,801 1078,801 1078,801 1078,801 "/>
<polygon points="1094,791 1104,793 1101,800 1098,801 1096,801 1093,791 "/>
<polygon points="1482,796 1487,797 1487,798 1485,801 1482,799 "/>
<polygon points="1567,797 1568,796 1570,797 1570,798 1568,800 "/>
<polygon points="1698,790 1701,791 1701,791 1701,793 1698,794 1698,794 1698,794 "/>
<polygon points="1717,800 1716,801 1711,796 1712,793 1717,793 "/>
<polygon points="1784,795 1784,795 1784,795 1784,795 1783,795 1783,795 1783,795 "/>
<polygon points="104,810 100,817 93,812 92,811 92,804 94,802 95,802 104,806 "/>
<polygon points="272,803 270,806 270,806 270,806 267,803 269,802 271,802 "/>
<polygon points="377,801 380,801 380,802 379,804 378,805 377,805 377,805 376,803 "/>
<polygon points="460,814 460,815 458,816 451,813 451,811 452,810 456,808 460,812 "/>
<polygon points="513,811 511,815 510,816 509,816 507,814 510,810 "/>
<polygon points="545,807 544,808 540,808 533,804 534,797 536,797 545,804 "/>
<polygon points="615,808 617,814 613,814 613,813 612,808 "/>
<polygon points="628,804 632,808 632,810 631,811 625,814 624,814 622,805 624,802 "/>
<polygon points="662,803 666,805 666,808 663,810 660,809 660,807 660,806 "/>
<polygon points="701,799 707,808 702,809 696,803 697,802 "/>
<polygon points="768,807 768,808 768,808 765,809 765,808 766,805 "/>
<polygon points="810,806 810,807 808,808 807,808 807,807 808,805 "/>
<polygon points="826,802 826,808 823,810 820,809 817,807 816,803 821,798 822,797 "/>
<polygon points="836,801 841,804 838,807 832,807 832,802 "/>
<polygon points="1007,802 1008,804 1002,811 999,811 997,809 997,808 998,802 1003,800 "/>
<polygon points="1005,815 1012,807 1016,810 1017,815 1016,815 1010,818 "/>
<polygon points="1028,808 1028,809 1029,813 1024,814 1023,811 "/>
<polygon points="1129,807 1136,813 1132,816 1125,812 1125,808 "/>
<polygon points="1159,809 1161,810 1161,812 1160,813 1157,812 "/>
<polygon points="1200,806 1200,806 1201,807 1200,808 1199,808 1199,808 1199,806 "/>
<polygon points="1218,807 1221,804 1221,808 "/>
<polygon points="1223,800 1227,802 1229,808 1227,811 1225,811 1223,810 1222,802 "/>
<polygon points="1285,805 1295,809 1293,813 1287,817 "/>
<polygon points="1315,804 1321,798 1322,798 1324,802 1322,809 1315,807 "/>
<polygon points="1329,807 1333,807 1331,812 1328,813 1327,810 "/>
<polygon points="1372,808 1373,809 1375,812 1375,813 1373,814 1369,812 1369,810 "/>
<polygon points="1450,799 1457,801 1458,803 1458,810 1453,812 1450,810 1450,800 "/>
<polygon points="1463,804 1470,804 1470,811 1468,811 1463,809 "/>
<polygon points="1512,805 1515,806 1515,808 1515,808 1514,808 1512,808 1511,806 1511,805 "/>
<polygon points="1553,809 1558,805 1564,807 1565,809 1563,813 1558,814 "/>
<polygon points="1616,810 1617,805 1621,805 1621,811 "/>
<polygon points="1755,813 1760,808 1760,808 1764,813 1759,816 "/>
<polygon points="46,821 46,822 45,825 40,829 38,829 35,826 41,819 46,819 "/>
<polygon points="97,821 97,822 88,824 86,822 90,816 96,820 "/>
<polygon points="108,812 115,814 112,820 112,820 106,818 105,818 "/>
<polygon points="150,817 149,818 146,817 145,815 146,812 149,813 "/>
<polygon points="166,826 165,828 159,823 164,819 165,820 "/>
<polygon points="175,819 179,821 178,822 177,823 175,823 174,819 "/>
<polygon points="177,812 184,817 182,819 175,814 "/>
<polygon points="193,824 191,827 190,825 190,824 191,824 191,823 "/>
<polygon points="289,816 287,824 283,824 281,822 280,818 288,815 "/>
<polygon points="314,815 313,819 312,818 311,816 311,815 "/>
<polygon points="321,819 320,819 319,820 319,820 319,818 320,818 "/>
<polygon points="367,820 365,823 363,822 363,821 363,820 "/>
<polygon points="472,822 473,822 472,823 "/>
<polygon points="517,823 524,824 519,829 515,824 "/>
<polygon points="634,821 636,825 633,826 630,823 630,823 "/>
<polygon points="800,821 800,821 800,822 799,822 799,822 799,821 800,820 "/>
<polygon points="869,815 869,815 869,816 869,816 869,816 "/>
<polygon points="911,822 912,826 904,830 902,825 902,822 907,820 "/>
<polygon points="923,813 927,814 926,822 920,824 920,823 918,819 "/>
<polygon points="990,817 993,818 992,821 989,827 985,826 983,818 "/>
<polygon points="1024,816 1029,815 1030,817 1029,819 1026,819 "/>
<polygon points="1041,817 1043,814 1051,815 1049,822 1046,822 1045,822 "/>
<polygon points="1060,823 1061,823 1062,824 1062,824 1060,824 1060,824 "/>
<polygon points="1089,816 1093,813 1093,819 1093,819 1089,818 "/>
<polygon points="1096,820 1096,813 1097,812 1100,820 1100,820 "/>
<polygon points="1140,820 1142,820 1143,824 1137,825 1137,822 "/>
<polygon points="1152,818 1153,818 1156,820 1155,822 1155,822 1153,822 1152,821 "/>
<polygon points="1179,817 1184,823 1182,825 1176,823 1176,818 "/>
<polygon points="1206,824 1207,823 1209,825 1207,826 "/>
<polygon points="1260,819 1263,820 1263,824 1259,824 1258,824 1257,823 "/>
<polygon points="1375,819 1380,817 1380,817 1385,825 1385,826 1377,829 1373,825 "/>
<polygon points="1409,820 1417,817 1421,818 1421,820 1418,826 1412,829 1411,827 "/>
<polygon points="1435,822 1436,822 1437,823 1436,824 1435,822 "/>
<polygon points="1461,819 1463,819 1461,821 1460,821 1460,819 "/>
<polygon points="1509,821 1512,822 1512,823 1510,825 1508,825 1507,824 "/>
<polygon points="1616,815 1621,816 1622,818 1622,819 1619,821 1612,817 "/>
<polygon points="1695,823 1695,823 1695,823 1695,824 1695,824 1695,824 "/>
<polygon points="1761,821 1769,816 1771,817 1771,823 1767,829 1761,824 "/>
<polygon points="23,828 19,832 16,831 15,829 21,826 "/>
<polygon points="48,831 50,834 49,836 45,833 "/>
<polygon points="56,831 55,832 52,828 53,826 56,829 "/>
<polygon points="112,833 111,836 106,837 104,834 105,827 105,826 111,828 "/>
<polygon points="141,834 135,838 133,837 130,832 131,831 138,828 "/>
<polygon points="143,826 146,827 147,832 143,831 142,828 "/>
<polygon points="178,838 173,841 167,836 169,831 171,829 178,829 "/>
<polygon points="185,835 185,836 181,836 181,833 183,832 "/>
<polygon points="207,829 206,833 204,832 204,826 205,825 "/>
<polygon points="220,831 218,833 215,834 214,833 215,830 219,830 219,830 "/>
<polygon points="252,832 251,837 251,837 247,838 244,832 250,830 "/>
<polygon points="286,836 286,838 284,841 281,840 283,835 285,835 "/>
<polygon points="301,830 303,839 299,840 294,837 292,831 "/>
<polygon points="346,832 341,838 335,837 333,835 333,835 339,826 "/>
<polygon points="355,839 353,842 347,843 345,840 349,834 351,834 "/>
<polygon points="381,827 381,832 375,832 378,825 "/>
<polygon points="397,830 394,836 390,836 389,834 389,828 394,827 "/>
<polygon points="408,837 407,841 400,839 400,839 403,833 404,833 "/>
<polygon points="428,831 430,832 432,842 431,844 424,834 "/>
<polygon points="440,832 441,836 439,838 437,839 436,833 "/>
<polygon points="482,822 485,829 474,837 471,832 472,829 481,822 "/>
<polygon points="500,829 499,831 496,831 495,830 497,829 "/>
<polygon points="539,835 538,836 535,838 531,835 531,825 531,825 532,825 539,829 "/>
<polygon points="553,829 553,833 553,834 547,833 547,830 549,828 "/>
<polygon points="568,827 571,830 567,833 564,833 563,828 565,827 "/>
<polygon points="593,831 592,834 588,834 586,830 588,828 "/>
<polygon points="625,822 633,829 629,836 623,835 623,829 "/>
<polygon points="660,830 660,835 655,836 654,835 654,832 656,831 "/>
<polygon points="709,834 714,837 711,838 709,836 "/>
<polygon points="758,830 757,832 751,833 750,828 752,827 757,827 "/>
<polygon points="789,828 789,828 787,833 784,832 783,830 784,828 "/>
<polygon points="874,829 878,838 870,839 867,834 867,832 870,831 "/>
<polygon points="886,829 887,834 883,836 882,835 878,828 878,828 884,827 "/>
<polygon points="915,834 916,838 914,841 910,837 910,837 "/>
<polygon points="930,830 933,839 930,841 922,838 920,830 927,828 "/>
<polygon points="932,828 938,825 943,831 943,839 942,839 936,839 "/>
<polygon points="950,829 953,831 951,835 948,834 948,831 "/>
<polygon points="991,829 996,820 1000,834 998,836 994,834 "/>
<polygon points="1040,831 1039,830 1038,827 1042,827 1042,827 "/>
<polygon points="1042,835 1047,827 1050,826 1050,827 1053,835 1050,837 1043,837 "/>
<polygon points="1071,826 1076,826 1074,831 1070,831 1070,828 "/>
<polygon points="1095,830 1101,830 1102,830 1104,838 1097,843 1092,836 1094,830 "/>
<polygon points="1116,840 1126,832 1129,832 1129,834 1129,837 1122,844 "/>
<polygon points="1134,830 1146,826 1149,829 1145,835 1135,832 "/>
<polygon points="1153,831 1157,831 1159,839 1157,842 1150,839 1149,837 "/>
<polygon points="1163,831 1168,831 1169,837 1169,837 1164,837 1162,831 "/>
<polygon points="1189,829 1192,828 1192,837 1190,837 1187,835 1187,830 "/>
<polygon points="1215,825 1217,826 1218,827 1218,833 1210,834 1210,832 "/>
<polygon points="1238,828 1246,825 1250,827 1252,829 1249,838 1245,839 1237,834 1237,829 "/>
<polygon points="1257,834 1258,834 1259,837 1257,839 1255,838 "/>
<polygon points="1261,837 1259,831 1266,830 1268,834 1269,836 1269,838 "/>
<polygon points="1278,831 1284,827 1286,830 1285,833 1284,834 1279,833 "/>
<polygon points="1295,833 1299,832 1299,833 1297,836 1294,835 "/>
<polygon points="1302,842 1301,839 1304,832 1307,836 1305,841 "/>
<polygon points="1342,830 1343,828 1345,827 1345,831 1342,831 "/>
<polygon points="1393,830 1396,829 1398,831 1397,835 1394,832 "/>
<polygon points="1417,835 1420,834 1422,837 1421,838 1418,838 1416,837 "/>
<polygon points="1423,828 1426,822 1436,832 1433,838 1429,837 "/>
<polygon points="1446,835 1448,835 1449,838 1445,840 1444,839 1445,836 "/>
<polygon points="1454,832 1457,833 1458,833 1458,837 1455,838 1454,837 1453,833 "/>
<polygon points="1531,833 1535,827 1537,826 1540,829 1539,834 1532,834 "/>
<polygon points="1572,826 1574,827 1577,830 1579,837 1575,840 1568,840 1568,831 "/>
<polygon points="1607,831 1615,831 1615,837 1613,838 1609,836 1607,835 "/>
<polygon points="1703,836 1706,828 1715,828 1714,834 "/>
<polygon points="1733,833 1738,833 1741,840 1735,844 1735,844 1731,839 "/>
<polygon points="1743,832 1745,828 1750,832 1750,836 1746,837 1745,837 "/>
<polygon points="20,846 20,850 13,851 8,846 8,845 12,838 17,840 "/>
<polygon points="67,842 63,847 62,849 53,845 53,842 56,838 60,836 67,839 "/>
<polygon points="79,849 77,854 68,849 71,845 "/>
<polygon points="76,835 83,838 81,846 81,846 73,841 73,839 "/>
<polygon points="99,843 97,848 95,849 84,847 87,838 89,837 96,838 "/>
<polygon points="119,852 116,856 107,855 103,850 105,845 113,843 118,849 "/>
<polygon points="129,839 121,845 116,840 118,837 126,834 "/>
<polygon points="136,850 136,850 127,853 123,851 122,847 131,841 132,841 "/>
<polygon points="153,839 144,848 139,849 135,840 143,835 151,836 "/>
<polygon points="158,847 155,857 154,856 147,850 155,842 157,843 "/>
<polygon points="171,848 167,852 162,846 161,843 165,841 170,845 "/>
<polygon points="207,840 206,841 199,847 193,846 192,844 192,841 193,836 202,838 206,839 "/>
<polygon points="224,848 222,852 219,853 213,848 210,841 211,841 222,839 "/>
<polygon points="229,833 237,847 226,847 224,838 "/>
<polygon points="246,843 254,842 253,851 251,855 242,847 "/>
<polygon points="266,851 266,853 254,851 256,842 256,842 266,846 "/>
<polygon points="282,850 279,855 270,851 270,847 273,845 277,844 282,847 "/>
<polygon points="291,840 297,843 294,847 290,850 286,849 285,846 "/>
<polygon points="306,844 306,856 305,858 302,859 296,848 299,844 304,843 "/>
<polygon points="316,842 320,852 308,856 309,845 "/>
<polygon points="331,841 328,849 326,850 325,850 325,850 321,841 321,841 330,839 "/>
<polygon points="354,845 357,851 353,855 345,851 346,847 "/>
<polygon points="383,839 385,841 381,851 372,851 372,839 372,839 372,839 "/>
<polygon points="396,856 394,857 386,853 384,852 389,843 394,843 394,843 "/>
<polygon points="407,846 410,852 406,853 399,855 397,843 "/>
<polygon points="420,834 420,848 416,851 414,851 411,844 412,837 417,834 "/>
<polygon points="423,835 430,845 430,846 422,847 422,835 "/>
<polygon points="450,848 450,851 437,850 435,848 436,847 437,845 440,844 "/>
<polygon points="470,846 470,852 457,852 457,852 457,852 457,849 459,847 "/>
<polygon points="501,849 501,851 501,853 495,854 490,854 487,845 491,841 "/>
<polygon points="493,838 501,838 502,839 501,847 493,841 "/>
<polygon points="548,849 546,851 538,848 538,844 541,842 "/>
<polygon points="543,838 556,839 555,845 549,848 541,840 "/>
<polygon points="566,838 572,845 571,847 562,851 558,845 559,838 559,838 "/>
<polygon points="615,845 617,850 616,853 608,854 612,845 "/>
<polygon points="632,844 631,848 630,850 622,848 620,842 623,840 628,840 "/>
<polygon points="651,840 661,838 664,840 663,849 654,849 "/>
<polygon points="678,844 673,852 671,853 666,851 665,850 666,840 674,838 679,839 "/>
<polygon points="680,845 689,854 688,858 685,860 676,853 "/>
<polygon points="723,838 724,839 719,847 713,848 709,846 710,841 719,838 "/>
<polygon points="746,841 754,851 751,854 742,855 740,852 739,844 "/>
<polygon points="762,841 762,846 760,849 756,849 749,840 750,839 760,837 "/>
<polygon points="785,838 787,841 781,849 780,849 779,848 777,839 781,835 "/>
<polygon points="795,843 797,848 791,856 782,850 789,842 "/>
<polygon points="813,840 812,850 812,850 807,850 800,846 798,842 801,837 812,838 "/>
<polygon points="816,839 829,843 822,848 816,850 "/>
<polygon points="832,844 837,853 837,854 835,856 834,856 824,850 830,845 "/>
<polygon points="839,838 846,841 849,848 840,853 834,842 834,840 "/>
<polygon points="855,847 862,836 865,842 866,848 861,850 860,850 "/>
<polygon points="879,840 882,841 882,842 875,849 873,850 870,849 870,841 "/>
<polygon points="883,843 889,852 888,856 876,851 "/>
<polygon points="897,841 898,848 891,850 886,843 886,842 890,839 "/>
<polygon points="921,840 930,843 927,852 926,852 923,853 917,848 917,845 "/>
<polygon points="936,843 941,843 940,856 938,857 930,853 933,845 "/>
<polygon points="952,847 952,847 951,852 944,856 944,855 944,845 945,845 950,845 "/>
<polygon points="956,844 969,839 971,850 967,850 "/>
<polygon points="1011,845 1014,846 1016,854 1015,855 1014,856 1006,853 "/>
<polygon points="1024,840 1029,848 1025,854 1020,854 1018,844 1023,840 "/>
<polygon points="1037,839 1039,841 1037,846 1031,846 1027,839 1034,837 "/>
<polygon points="1043,841 1050,841 1051,849 1043,852 1041,848 "/>
<polygon points="1056,840 1061,841 1062,846 1058,851 1054,848 1053,842 "/>
<polygon points="1068,837 1074,838 1078,842 1078,846 1072,848 1067,846 1066,839 "/>
<polygon points="1089,837 1095,846 1094,848 1089,851 1086,851 1082,847 1082,842 "/>
<polygon points="1107,841 1110,843 1109,852 1107,855 1099,849 1100,847 "/>
<polygon points="1114,843 1121,847 1121,850 1112,852 1113,843 "/>
<polygon points="1148,842 1156,845 1157,848 1153,854 1145,849 "/>
<polygon points="1163,842 1170,842 1170,848 1169,850 1161,847 1161,845 "/>
<polygon points="1174,840 1182,838 1187,842 1184,848 1174,849 "/>
<polygon points="1190,845 1193,845 1197,846 1199,852 1190,855 1190,855 1188,850 "/>
<polygon points="1203,852 1200,843 1207,838 1213,847 1208,856 "/>
<polygon points="1211,838 1218,837 1221,840 1219,844 1215,845 "/>
<polygon points="1235,837 1243,842 1240,851 1235,851 1233,840 "/>
<polygon points="1250,843 1253,845 1258,851 1256,852 1247,854 1244,851 1247,843 "/>
<polygon points="1261,838 1271,839 1268,848 1262,850 1255,842 "/>
<polygon points="1275,841 1275,839 1284,841 1287,849 1284,851 1273,849 1272,849 "/>
<polygon points="1303,846 1307,845 1319,850 1319,851 1310,854 1302,852 1301,850 "/>
<polygon points="1311,837 1317,836 1321,841 1319,846 1319,846 1309,842 "/>
<polygon points="1326,841 1333,839 1342,850 1332,855 1323,849 "/>
<polygon points="1337,835 1347,836 1349,839 1347,847 1345,849 1343,849 1334,838 "/>
<polygon points="1353,841 1359,839 1363,842 1359,849 1351,847 "/>
<polygon points="1378,845 1384,842 1392,846 1386,852 1378,847 "/>
<polygon points="1385,840 1389,834 1396,840 1398,843 1397,844 1393,845 "/>
<polygon points="1405,846 1410,844 1414,846 1414,849 1409,853 1406,852 1404,847 "/>
<polygon points="1417,845 1423,844 1424,857 1422,857 1421,857 1417,849 "/>
<polygon points="1428,844 1432,844 1433,847 1434,850 1433,852 1425,855 1425,845 "/>
<polygon points="1439,844 1451,839 1454,842 1453,848 1450,851 1441,849 "/>
<polygon points="1456,842 1461,839 1465,840 1465,848 1455,848 "/>
<polygon points="1466,840 1476,836 1480,841 1477,851 1473,852 1470,852 1466,848 "/>
<polygon points="1482,842 1486,842 1492,851 1484,854 1479,851 "/>
<polygon points="1503,843 1508,844 1511,853 1500,856 1498,852 "/>
<polygon points="1515,840 1524,838 1526,839 1527,847 1516,853 1515,852 1512,842 "/>
<polygon points="1529,839 1541,838 1542,838 1539,849 1533,849 1530,847 "/>
<polygon points="1545,840 1551,843 1552,844 1551,849 1549,849 1544,850 1542,849 "/>
<polygon points="1558,845 1565,845 1567,853 1565,858 1565,858 1557,851 "/>
<polygon points="1569,853 1567,844 1568,843 1575,843 1576,848 "/>
<polygon points="1581,841 1584,842 1586,843 1586,846 1584,851 1581,851 1578,848 1577,843 "/>
<polygon points="1590,842 1601,838 1603,840 1598,849 1590,845 "/>
<polygon points="1605,840 1612,844 1611,856 1610,856 1601,855 1599,850 "/>
<polygon points="1619,844 1622,844 1625,846 1627,852 1614,855 1615,846 "/>
<polygon points="1641,849 1641,836 1642,835 1651,840 1652,841 1651,850 1650,850 "/>
<polygon points="1683,841 1695,841 1690,851 1684,851 1681,846 "/>
<polygon points="1698,842 1698,842 1705,851 1703,853 1696,856 1692,852 "/>
<polygon points="1720,842 1729,841 1733,845 1727,850 1720,851 1719,849 "/>
<polygon points="1746,843 1752,842 1753,843 1753,849 1747,853 "/>
<polygon points="1756,842 1765,841 1768,848 1766,853 1760,853 1756,849 "/>
<polygon points="1783,836 1784,836 1793,844 1792,847 1786,848 1781,846 1780,837 "/>
<polygon points="22,858 22,862 13,862 11,861 14,855 20,855 "/>
<polygon points="41,866 39,868 29,864 29,864 30,860 34,858 "/>
<polygon points="78,859 71,864 70,864 64,857 64,852 66,850 78,855 "/>
<polygon points="95,852 91,863 89,864 79,859 80,856 83,850 83,850 "/>
<polygon points="105,861 102,868 93,863 97,853 100,851 105,857 "/>
<polygon points="108,861 108,859 115,859 116,866 114,867 "/>
<polygon points="122,856 125,857 126,866 124,866 119,866 118,859 "/>
<polygon points="138,866 138,868 128,866 127,855 138,852 "/>
<polygon points="140,852 145,852 152,859 141,866 "/>
<polygon points="160,847 166,854 164,860 161,862 161,862 156,858 "/>
<polygon points="178,852 181,862 180,863 177,864 168,861 169,855 174,850 "/>
<polygon points="190,849 188,859 183,860 181,851 188,847 "/>
<polygon points="192,849 199,849 203,856 203,862 201,864 191,860 "/>
<polygon points="218,855 213,860 205,862 205,856 211,850 "/>
<polygon points="222,857 226,861 220,868 216,862 220,858 "/>
<polygon points="238,848 237,859 234,861 228,859 224,854 226,849 "/>
<polygon points="249,856 250,860 239,858 240,850 242,849 "/>
<polygon points="266,853 264,858 253,861 253,860 252,856 254,852 "/>
<polygon points="289,854 292,862 291,864 283,860 283,857 286,853 "/>
<polygon points="326,863 325,865 318,863 323,856 323,856 "/>
<polygon points="352,857 353,863 345,867 343,864 343,854 344,853 "/>
<polygon points="367,854 366,859 359,863 356,863 355,857 359,853 "/>
<polygon points="382,856 379,865 374,866 370,860 371,854 371,854 381,854 "/>
<polygon points="393,866 393,866 385,867 381,865 384,857 392,860 "/>
<polygon points="433,851 435,859 421,865 419,863 417,853 421,851 431,850 "/>
<polygon points="454,854 462,861 462,862 459,867 448,864 "/>
<polygon points="470,853 464,858 457,853 470,852 "/>
<polygon points="472,855 478,859 470,865 466,862 466,861 "/>
<polygon points="495,856 495,863 486,867 484,860 490,856 "/>
<polygon points="501,855 505,868 499,869 496,864 496,856 "/>
<polygon points="516,854 516,862 507,867 507,867 504,855 504,854 515,854 "/>
<polygon points="532,859 526,867 524,867 519,862 519,854 531,853 "/>
<polygon points="537,850 546,853 547,860 544,861 536,857 535,852 "/>
<polygon points="559,852 559,859 556,861 551,859 550,853 551,851 556,848 "/>
<polygon points="575,857 572,860 564,860 564,852 571,849 "/>
<polygon points="586,857 589,861 583,870 576,868 574,863 577,858 585,857 "/>
<polygon points="630,852 629,860 624,863 623,862 619,855 621,850 "/>
<polygon points="647,855 646,860 641,863 633,860 633,853 635,851 "/>
<polygon points="662,854 663,856 660,865 654,862 653,861 654,857 656,854 "/>
<polygon points="674,857 682,863 682,866 676,868 671,866 673,858 "/>
<polygon points="700,851 703,860 702,861 692,858 693,855 698,850 "/>
<polygon points="708,848 712,849 709,860 706,860 702,849 "/>
<polygon points="721,857 720,858 718,859 712,859 711,859 713,850 718,850 "/>
<polygon points="725,859 736,855 739,858 739,859 733,867 725,860 "/>
<polygon points="751,857 753,866 750,868 749,868 743,859 743,858 "/>
<polygon points="761,853 765,863 761,866 755,867 752,856 756,853 "/>
<polygon points="778,850 779,851 774,864 773,864 767,863 763,852 765,848 "/>
<polygon points="781,853 790,857 791,861 781,866 776,864 780,853 "/>
<polygon points="797,861 795,860 794,856 799,850 805,853 "/>
<polygon points="811,854 812,858 799,865 797,863 807,853 "/>
<polygon points="832,860 834,860 832,863 829,867 823,861 "/>
<polygon points="860,855 861,865 853,869 850,864 858,855 "/>
<polygon points="871,854 875,865 868,869 862,865 861,854 868,852 "/>
<polygon points="876,853 887,857 887,860 884,864 881,865 877,864 874,854 "/>
<polygon points="915,849 923,855 916,865 915,866 915,866 908,863 907,853 "/>
<polygon points="928,855 937,860 935,865 932,867 930,866 927,855 "/>
<polygon points="946,859 953,855 956,860 953,864 "/>
<polygon points="955,853 956,847 965,852 961,858 959,858 "/>
<polygon points="970,854 974,855 975,857 970,864 964,860 968,855 "/>
<polygon points="1005,856 1012,859 1011,864 1004,864 1004,856 "/>
<polygon points="1020,857 1026,857 1032,863 1029,870 1019,858 "/>
<polygon points="1038,848 1041,854 1041,860 1034,863 1026,855 1031,849 "/>
<polygon points="1065,847 1072,850 1069,861 1060,859 1060,855 "/>
<polygon points="1080,849 1084,853 1082,860 1077,865 1074,864 1070,861 1073,851 "/>
<polygon points="1096,850 1106,859 1106,860 1105,861 1097,862 1090,853 "/>
<polygon points="1113,854 1122,852 1123,853 1121,860 1111,859 1111,858 "/>
<polygon points="1127,854 1134,854 1131,868 1131,868 1125,862 1125,862 "/>
<polygon points="1133,869 1136,854 1137,854 1142,864 1133,870 "/>
<polygon points="1144,852 1152,856 1152,861 1149,864 1144,863 1140,853 1141,852 "/>
<polygon points="1160,851 1167,854 1167,858 1158,861 1158,860 1157,856 "/>
<polygon points="1175,851 1184,850 1185,857 1184,858 1175,859 1173,858 1173,853 "/>
<polygon points="1224,853 1232,855 1231,862 1221,862 "/>
<polygon points="1264,855 1268,854 1269,855 1272,864 1271,865 1263,867 1262,866 1262,857 "/>
<polygon points="1276,863 1272,853 1284,854 1284,862 "/>
<polygon points="1290,852 1298,852 1299,854 1298,863 1295,864 1289,862 1288,862 1288,854 "/>
<polygon points="1322,852 1330,857 1331,864 1330,866 1322,865 1320,861 1322,854 "/>
<polygon points="1350,850 1358,852 1360,857 1352,860 1351,860 1349,852 "/>
<polygon points="1374,864 1369,863 1366,859 1374,853 "/>
<polygon points="1395,849 1398,848 1400,854 1397,862 1390,864 1389,862 1388,855 "/>
<polygon points="1400,863 1404,855 1407,857 1412,861 1411,862 1402,864 "/>
<polygon points="1414,859 1410,854 1415,850 1418,858 "/>
<polygon points="1427,860 1435,857 1436,862 1435,866 1428,868 1425,861 "/>
<polygon points="1441,854 1448,856 1451,861 1449,865 1440,862 1439,856 "/>
<polygon points="1455,849 1465,849 1468,853 1460,859 1455,858 1451,853 "/>
<polygon points="1469,856 1471,856 1471,860 1466,866 1462,861 "/>
<polygon points="1479,854 1483,856 1488,865 1479,866 1476,859 1476,856 "/>
<polygon points="1485,855 1492,852 1495,853 1497,857 1495,863 1494,864 1492,864 1490,864 "/>
<polygon points="1502,859 1511,856 1512,857 1513,862 1500,864 "/>
<polygon points="1518,855 1527,850 1529,852 1528,862 1527,863 1521,862 1519,860 "/>
<polygon points="1544,854 1550,854 1549,862 1542,864 "/>
<polygon points="1553,854 1554,853 1563,861 1555,865 1551,863 "/>
<polygon points="1590,848 1597,851 1598,855 1594,859 1592,859 1588,853 "/>
<polygon points="1602,859 1608,859 1609,862 1603,868 1599,866 1598,863 "/>
<polygon points="1615,857 1627,855 1628,855 1625,864 1620,864 1616,860 1614,857 "/>
<polygon points="1633,857 1634,857 1640,862 1634,870 1630,866 "/>
<polygon points="1652,851 1663,852 1664,858 1652,863 1651,862 1651,851 "/>
<polygon points="1666,852 1668,848 1677,848 1680,853 1678,857 1670,860 1667,857 "/>
<polygon points="1685,856 1690,855 1694,859 1694,863 1685,864 1683,859 "/>
<polygon points="1734,849 1734,849 1739,857 1735,859 1730,853 "/>
<polygon points="1749,855 1754,851 1759,855 1750,862 1747,859 "/>
<polygon points="1750,864 1760,855 1767,855 1769,861 1767,865 1757,868 1757,868 "/>
<polygon points="1787,852 1795,851 1798,857 1785,867 1780,862 "/>
<polygon points="11,864 26,864 26,864 41,871 44,868 49,866 49,866 63,858 70,866 71,866 79,860 90,865 92,864 103,869 
	106,861 116,869 118,868 125,869 128,868 139,870 140,868 154,859 155,860 162,865 162,865 166,863 178,866 182,865 183,864 
	190,862 202,866 204,864 214,862 220,871 228,860 235,863 238,860 253,862 253,863 265,859 270,865 275,866 281,862 293,869 
	296,865 299,864 303,861 306,860 313,866 317,864 327,866 329,864 341,866 344,870 355,865 359,866 369,860 374,868 380,866 
	385,869 396,867 396,867 406,870 407,871 418,864 421,866 436,860 440,865 446,865 447,864 460,868 464,862 470,867 480,859 
	483,860 485,868 496,864 499,870 506,869 507,870 518,863 524,868 527,868 534,859 545,865 549,863 557,866 562,862 573,863 
	576,869 583,871 590,861 596,864 602,861 609,870 616,866 623,865 624,866 631,862 642,866 649,862 650,863 660,869 662,871 
	670,868 676,871 686,868 686,863 689,860 704,864 706,862 710,862 711,862 720,862 723,860 734,869 741,858 749,871 750,871 
	755,868 762,867 767,864 774,866 775,866 781,868 793,862 796,864 798,867 815,858 816,860 820,860 830,870 836,864 838,858 
	840,856 850,865 853,871 862,866 869,870 876,866 881,867 886,866 889,861 903,865 907,864 916,868 916,868 917,867 930,867 
	933,868 937,866 939,860 942,858 943,859 954,868 959,861 962,860 971,867 979,855 986,863 992,862 999,867 1000,867 1002,866 
	1014,866 1016,859 1018,857 1030,872 1035,864 1042,861 1044,863 1054,866 1059,860 1070,862 1074,866 1078,867 1084,861 1092,866 
	1097,863 1107,862 1108,861 1123,863 1123,863 1131,871 1132,871 1133,872 1144,865 1150,867 1155,863 1156,864 1171,860 1173,862 
	1187,860 1189,867 1200,865 1203,866 1208,865 1210,864 1217,864 1219,864 1232,863 1236,869 1245,864 1250,868 1260,869 1261,870 
	1274,867 1275,866 1287,864 1288,864 1296,867 1300,866 1307,869 1309,866 1319,861 1322,866 1332,868 1333,865 1349,863 1350,863 
	1363,859 1363,860 1368,866 1375,867 1376,867 1387,865 1389,867 1398,864 1400,866 1414,863 1415,862 1421,860 1423,860 1427,870 
	1437,867 1438,862 1451,867 1454,860 1460,861 1466,869 1474,859 1479,868 1491,866 1493,867 1496,866 1497,865 1517,863 1519,866 
	1528,867 1530,866 1541,866 1541,866 1550,864 1555,867 1567,862 1567,862 1568,862 1573,864 1579,870 1592,862 1595,863 1597,868 
	1603,870 1613,861 1619,868 1627,867 1634,873 1642,862 1648,864 1651,863 1652,864 1666,859 1670,863 1680,859 1683,865 1696,864 
	1699,870 1701,870 1707,864 1720,865 1720,866 1730,868 1736,863 1743,860 1745,861 1749,865 1749,865 1757,870 1757,870 1768,866 
	1771,862 1779,863 1785,869 1800,857.8 1800,880 1800,880 1800,881 1800,881 1800,900 0,900 0,865.4 8,863 "/></g>
</svg>
