<?xml version="1.0" encoding="utf-8"?>
<svg width="1800" height="900" version="1.1" xmlns="http://www.w3.org/2000/svg">
<style type="text/css">
	#states{fill:none;stroke:#000000;stroke-width:2;stroke-miterlimit:10;}
	#provs{fill:none;stroke:#000000;stroke-miterlimit:10;}
</style>
<rect id="frame" width="1800" height="900" fill="#332211" fill-opacity="0"/>
<g id="states">
	<polyline points="944,543 937,553 937,555 942,557 946,557 954,563 946,573 941,588 946,591 949,596 943,602 938,610 937,610 923,619"/>
	<polyline points="1065,119 1063,127 1056,134 1057,136 1055,140 1055,147 1068,156 1067,159 1070,164 1064,178 
		1059,178 1057,191 1054,195 1061,204 1059,209 1060,212 1056,220 1058,226 1054,229 1056,242 1058,244 1058,245 1058,264 1048,260 
		1042,273 1044,278 1043,281 1046,290 1047,291 1046,302 1049,302 1058,312 1060,312 1067,303 1072,304 1076,315"/>
	<polyline points="689,300 682,300 680,307 672,304 670,306 662,303"/>
	<polyline points="611,436 614,449 613,450 610,456 610,460 611,461 608,469 612,475 608,485 598,487 597,494 599,496 
		599,504 604,510 596,519 597,520 602,533 597,538 600,546 599,553 586,552 584,555 586,565 584,568 587,575 580,583 580,585 
		571,592 564,580 557,588 557,596 550,598 546,607 534,606 533,612 532,620 531,622 524,623 520,633 523,639 523,642 526,648 
		518,660 522,663 521,677 519,678 523,689 519,693 519,694 524,704"/>
	<polyline points="728,412 719,403 716,403 716,396 708,389 707,382 706,382 699,369 703,363 702,360 703,359 694,345 691,346 689,343 688,332"/></g>
<g id="provs">
	<line x1="904" y1="255" x2="911" y2="252"/>
	<line x1="304" y1="267" x2="306" y2="269"/>
	<polyline points="829,511 836,512 837,513 845,513 847,514 855,514 859,519"/>
	<polyline points="973,409 973,399 978,396 977,386 966,382 963,371 959,370 952,363 953,357 943,350 942,350 935,355 930,355 929,346 918,342 914,338"/>
	<polyline points="911,252 913,243 915,241 925,243 927,250 938,255 940,262 946,261 952,248 952,247 969,243 984,240 986,240 994,242 997,241 1006,240 1008,238 1018,237 1021,241 1031,240 1033,239 1040,239 1041,238 1056,242"/>
	<polyline points="911,252 918,260 916,263 916,277 918,279 915,289 919,295 919,305 920,306 920,313 912,321 918,331 915,335 914,338"/>
	<polyline points="743,406 744,397 748,393 748,388 754,385 753,374 761,367 763,367 763,365 776,349 776,348 787,344 794,351 796,351 802,346 806,345 808,345 812,353 815,354 825,351 826,346 830,342 835,344 842,347 849,345 853,341 864,346 865,346 867,345 882,347 885,344 891,344 893,343 906,350 907,347 914,338"/>
	<polyline points="859,520 851,525 849,531 845,533 844,534 842,540 836,544 839,556 834,561 829,563 833,574 821,581 815,577 810,587 799,588 795,586 790,595 784,595 776,592 771,602"/>
	<polyline points="743,627 726,629 725,625 718,621 715,622 706,620 700,629 688,619 684,625 670,621"/>
	<polyline points="750,669 745,676 737,678 734,687 728,688 725,690 727,701 726,703 718,706 714,712 714,713 714,714 701,721"/>
	<polyline points="1467,234 1472,236 1477,235 1478,230 1488,227 1490,223 1502,231 1506,229 1511,230 1512,230 1516,231 1522,228 1526,219 1532,215 1537,214 1540,218 1555,218 1571,218 1578,219 1580,216 1588,219"/>
	<polyline points="1467,295 1465,305 1475,304 1476,305 1476,308 1469,316 1477,322 1476,328 1483,332 1487,339 1498,340 1502,345 1501,352 1503,355 1517,354 1518,356 1518,359 1515,364 1516,367 1528,375"/>
	<polyline points="1621,213 1615,204 1613,204 1607,209 1601,208"/>
	<polyline points="1372,429 1374,421 1371,415 1368,418 1361,417 1357,409 1356,410 1344,407 1336,411 1335,399 1326,397 1320,393 1315,394 1310,387 1310,384 1300,380 1299,379 1297,371 1298,368 1298,367 1292,359"/>
	<polyline points="904,255 901,257 895,257 889,252 881,252 867,256 862,253 857,255 852,258 843,252 834,257 832,257 827,248 817,252 814,258 813,258 799,250 799,251 794,252 785,256 782,255 771,262"/>
	<polyline points="904,255 898,242 896,241 896,240 901,228 903,219 901,216 902,206 902,205 902,193 900,190 903,183 902,177 903,177 905,162 906,160 900,155 908,144 909,142 902,137 901,128 899,127 890,129 890,116"/>
	<polyline points="1152,130 1149,140 1143,141 1140,153 1146,160 1145,162 1146,164 1143,178 1142,179 1141,186 1135,190 1136,204 1137,217 1131,219 1133,230 1126,231 1123,229 1117,235"/>
	<polyline points="1282,345 1278,333 1273,329"/>
	<polyline points="655,625 641,621 636,623 635,624 628,624 625,623 620,610 612,609 610,601 597,595 596,596 590,597 583,588 580,585"/>
	<polyline points="349,574 352,584 345,587 342,589 340,598 341,599 345,614 342,616 340,624 341,628 339,631 341,638 337,645 341,650 340,658 337,660 339,671"/>
	<polyline points="341,559 344,555 342,550 345,532 341,530 342,519 344,517 348,512 346,509 344,496"/>
	<polyline points="341,559 341,573 349,574"/>
	<polyline points="306,269 315,268 318,260 326,263 334,259 334,256 345,251"/>
	<polyline points="707,548 700,555 700,556 703,560 695,571 692,570 686,576 685,581 678,584 678,598 685,601 687,603 688,612 672,614 670,621"/>
	<polyline points="265,543 263,543 250,551 251,554 251,556 241,563 240,562 228,564"/>
	<polyline points="306,269 306,280 304,282 305,292 306,295 303,305 305,314 309,320 306,330 304,331 307,343"/>
	<polyline points="341,559 327,564 323,559 321,558 315,562 306,560"/>
	<polyline points="463,570 462,570 459,572 448,574 444,568 431,574 429,573 419,580 410,572 405,574 395,566 390,569 386,566 383,566 373,571 373,572 366,575 355,569 349,574"/>
	<polyline points="611,461 625,463 625,473 634,479 639,471 644,471 650,480 651,480 656,476 658,471 668,472"/>
	<polyline points="463,570 469,578 468,583 464,588 460,590 460,595 466,603 465,609 466,611 466,619 471,624 482,622 483,623 497,624 499,628 507,628 510,632 520,633"/>
	<polyline points="670,621 668,623 662,625 658,624 655,625"/>
	<polyline points="655,625 648,638 648,639 647,641 639,648 642,661 640,663 635,672 632,673 628,672 621,685 625,687 623,703 616,700 604,713 607,716 607,725 600,729 599,736"/>
	<polyline points="463,570 471,557 470,555 469,554 467,546 472,536 472,535 472,527 467,524 467,512 467,511 471,502 470,497 471,492"/>
	<polyline points="385,337 383,332 385,326 377,317 379,314 377,308 388,295 380,290 382,275 382,269 385,266 384,254 388,251 387,242"/>
	<polyline points="440,354 444,344 445,334 443,320 450,315 447,304 456,299 459,294 455,287 465,282"/></g>
</svg>
