<?xml version="1.0" encoding="utf-8"?>
<svg width="1800" height="900" version="1.1" xmlns="http://www.w3.org/2000/svg">
<style type="text/css">
	.cool{stroke:#FFE066;stroke-width:3;stroke-linecap:round;fill-opacity:0}
	.warm{stroke:#FFD633;stroke-width:3;stroke-linecap:round;fill-opacity:0}
	.mod{stroke:#FF8533;stroke-width:3;stroke-linecap:round;fill-opacity:0}
	.hot{stroke:#FF6600;stroke-width:3;stroke-linecap:round;fill-opacity:0}
	#labels{font-family:monospace;font-weight:bold;font-style:italic;font-size:14px}
</style>
<rect id="frame" width="1800" height="900" fill="#332211" fill-opacity="0"/>
<path class="cool" d="M-5.7,864.7c1.1,0.6,3.4,1,8.2,0.8s14.2-0.8,22.7-0.8s16.1,0.6,23.6,1c7.5,0.3,14.9,0.3,23.9,0.8
	s19.6,1.5,28.6,2s16.4,0.5,24.9-1.2c8.5-1.6,18.1-5,25-6c6.8-1,10.8,0.4,16.8,0.9s14,0.1,23,1.5c9,1.3,19,4.3,29.5,4.3
	s21.5-3,30.7-3.8c9.1-0.9,16.5,0.5,24.1,0.8c7.7,0.3,15.7-0.3,22.7-0.7c7-0.3,13-0.3,20.5,0.7s16.5,3,26,3.7
	c9.5,0.6,19.5,0,28.2-0.5c8.6-0.5,16-0.9,23.8-1.2s16.2-0.7,24.7-1.2s17.1-1.1,27-2.3c9.8-1.2,20.8-2.8,29.5-1.8
	c8.6,1,15,4.6,22.3,6.1s15.7,0.9,24-0.3s16.7-2.8,25.3-2.7c8.7,0.2,17.7,2.2,26.5,1.9c8.9-0.4,17.5-3,25.5-3.5s15.4,1.1,23.4,1.5
	c8,0.3,16.6-0.7,25.3,0.1c8.7,0.9,17.3,3.5,26.3,3.7s18.4-2.2,25.7-3.7s12.7-2.1,20.2-1c7.5,1.2,17.1,4.2,25,4.5
	c7.8,0.4,13.8-2,21.1-3.5c7.4-1.5,16-2.1,24.2-2.8s15.8-1.3,23.3-2s14.9-1.3,22.5-0.3c7.7,1,15.7,3.6,23.7,5c8,1.3,16,1.3,25,1.6
	c9,0.4,19,1,26.8,1.4c7.9,0.3,13.5,0.3,18-1.2s7.9-4.5,14.2-4.7c6.3-0.1,15.7,2.5,25,3.9c9.3,1.3,18.7,1.3,26.2,0
	c7.5-1.4,13.1-4,20.3-5c7.2-1,15.8-0.4,24.8,0.1s18.4,0.9,26.7,1.7s15.7,2.2,24.5,2.3c8.8,0.2,19.2-0.8,26,0.2s10.2,4,15.7,4.2
	c5.5,0.1,13.1-2.5,22.5-3.4c9.3-0.8,20.3,0.2,29.3,0.2s16-1,23.8-0.7c7.9,0.4,16.5,2,25,3s16.9,1.4,25.5,0.5
	c8.7-0.8,17.7-2.8,25.7-3.5c8-0.6,15,0,22.5,0.2s15.5-0.2,24.5-1.2s19-2.6,28-2.6s17,1.6,25.5,2.1s17.5-0.1,24.2,0.7
	c6.6,0.8,11,3.2,17.6,2.7c6.7-0.5,15.7-3.9,24.4-4.2c8.6-0.3,17,2.3,24.1,3.2c7.2,0.8,13.2-0.2,21.7-0.5c8.5-0.4,19.5,0,29.2,0.3
	c9.6,0.3,18,0.7,25.1,0.3c7.2-0.3,13.2-1.3,20.2-1.1c7,0.1,15,1.5,24,2s19,0.1,28-0.7s17-2.2,25.8-3.5c8.9-1.3,18.5-2.7,26.9-1.5
	c8.3,1.2,15.3,4.8,23.6,6.3c8.4,1.5,18,0.9,26,0c8-0.8,14.4-1.8,20.7-2.1c6.3-0.4,12.7,0,21.3-1.4c8.7-1.3,30.6-4.3,35.4-7.1
	c4.9-2.9-3.4-809.5-9-813.7c-5.7-4.2-16.7-3.8-25.5-3.2c-8.9,0.7-15.5,1.7-23.5,0.9c-8-0.9-17.4-3.5-26.4-3.4
	c-9,0.2-17.6,3.2-26.3,4.2s-17.3,0-25.3-0.5s-15.4-0.5-24.2-1.7c-8.8-1.1-19.2-3.5-28.2-3.8s-16.6,1.3-24.6,2.8s-16.4,2.9-24.9,3
	c-8.5,0.2-17.1-0.8-25.5-1.6c-8.3-0.9-16.3-1.5-25.1-2c-8.9-0.5-18.5-0.9-28-0.2s-18.9,2.3-27.2,1.7c-8.3-0.7-15.7-3.7-23.7-3.5
	c-8,0.1-16.6,3.5-26.1,5.1c-9.5,1.7-19.9,1.7-28.4,1.2s-15.1-1.5-22.6-2.7c-7.5-1.1-15.9-2.5-23.9-2s-15.6,2.9-23.6,3.7
	s-16.4,0.2-25.7-0.7c-9.3-0.8-19.7-1.8-28-2.1c-8.3-0.4-14.7,0-22.8,1.1c-8.2,1.2-18.2,3.2-26.5,2.9c-8.4-0.4-15-3-23-4
	s-17.4-0.4-26.5-1.5c-9.2-1.2-18.2-4.2-26.7-4.9c-8.5-0.6-16.5,1-24.5,1.5s-16-0.1-25,0c-9,0.2-19,1.2-28.8,2
	c-9.9,0.9-19.5,1.5-28.5,1.7s-17.4-0.2-25.9,0.8s-17.1,3.4-24.5,3.4c-7.3,0-13.3-2.4-20.6-3.9c-7.4-1.5-16-2.1-25.5-1.5
	c-9.5,0.7-19.9,2.7-29.4,3.4c-9.5,0.6-18.1,0-25.5,0.1c-7.3,0.2-13.3,1.2-20.5,1c-7.1-0.1-15.5-1.5-23.3-1.5s-15.2,1.4-23,1
	c-7.8-0.3-16.2-2.3-24-2.5c-7.8-0.1-15.2,1.5-23.2,1.4c-8-0.2-16.6-2.2-25.8-2.5c-9.2-0.4-18.8,1-27.7,2.5c-8.8,1.5-16.8,3.1-25,2.3
	c-8.1-0.8-16.5-4.2-24-5.2s-14.1,0.4-22.5,0.7c-8.3,0.3-18.3-0.3-27.6-0.3c-9.4,0-18,0.6-26.7,0.5c-8.7-0.2-17.3-1.2-25.8-1.4
	c-8.5-0.1-16.9,0.5-25,1.2c-8.2,0.7-16.2,1.3-24.4,2c-8.1,0.7-16.5,1.3-25.1,0.2C474,38,465,35,456.3,35c-8.6,0-17,3-25.3,4
	s-16.7,0-25.3-0.3c-8.7-0.4-17.7,0-26,0.1c-8.4,0.2-16,0.2-24.5-0.3s-17.9-1.5-26.2-2s-15.7-0.5-23.5-0.2c-7.8,0.4-16.2,1-24.5,0.7
	s-16.7-1.7-25-2.2c-8.3-0.5-16.7-0.1-25.5,0.5c-8.8,0.7-18.2,1.7-26.2,2.2s-14.6,0.5-23.1,0.8c-8.5,0.4-18.9,1-28.9,0.5
	s-19.6-2.1-27.6-2.8s-14.4-0.3-20.4,0.2s-11.6,1.1-18.8,0C78.3,35,69.7,32,61.8,32.7c-7.8,0.6-14.8,5-23,6c-8.1,1-17.5-1.4-25-2.4
	s-16.3-0.6-19.5,0C-8.9,37-6.9,864-5.7,864.7z"/>
<path class="warm" d="M-5.7,745.7c5,1.3,23,0.3,31.7,0.8s16.3,2.5,24.2,2.5c7.8,0,15.8-2,23.8-1.7c8,0.4,16,3,23.8,3.9
	c7.9,0.8,15.5-0.2,24.5-0.4c9-0.1,19.4,0.5,27.9,0.7s15.1-0.2,21.8-0.3c6.7-0.2,13.3-0.2,20.2-1c6.8-0.9,13.8-2.5,21.8-2.5
	s17,1.6,26,3.1s18,2.9,25.8,3.2c7.9,0.3,14.5-0.3,22.7-1.8s17.8-3.9,27-5.7s17.8-3.2,26.7-2.3c8.8,0.8,17.8,3.8,26.3,5.1
	c8.5,1.4,16.5,1,24.8,0.2c8.4-0.8,17-2.2,26-2.2s18.4,1.4,26.7,1.2s15.7-1.8,23.8-1.8c8.2,0,17.2,1.6,25.5,2c8.4,0.3,16-0.7,24,0
	c8,0.6,16.4,3,25.9,3.8s20.1,0.2,29,0.3c8.8,0.2,15.8,1.2,24.3,0.5c8.5-0.6,18.5-3,27.5-4.5s17-2.1,25-2c8,0.2,16,1.2,24.5,2.4
	c8.5,1.1,17.5,2.5,25.2,3.5c7.6,1,14,1.6,21.6,2c7.7,0.3,16.7,0.3,25.2-1.2s16.5-4.5,25-5.2c8.5-0.6,17.5,1,26.7,1.2
	c9.1,0.2,18.5-1.2,26.6-1.5c8.2-0.3,15.2,0.3,22.9,1.5c7.6,1.2,16,2.8,25,4.5s18.6,3.3,27.6,3.2c9-0.2,17.4-2.2,25.7-4
	c8.3-1.9,16.7-3.5,26-3.4c9.3,0.2,19.7,2.2,29,3.2s17.7,1,26.5,0s18.2-3,27-3.7c8.8-0.6,17.2,0,24.8,0.2c7.7,0.2,14.7-0.2,22.9,0.5
	c8.1,0.7,17.5,2.3,25.5,2.5s14.6-1.2,23-1.8c8.3-0.7,18.3-0.7,27.3-1.9c9-1.1,17-3.5,23-2.3s10,5.8,17.2,7c7.1,1.2,17.5-1.2,26.1-2
	c8.7-0.8,15.7-0.2,24.5-0.3c8.9-0.2,19.5-1.2,30-0.5c10.5,0.6,20.9,3,29.2,2.8s14.7-2.8,21.5-3.8s14.2-0.4,21.5,0.6
	s14.7,2.4,22.8,3.2c8.2,0.8,17.2,1.2,26.2,0.2s18-3.4,26.7-4.9c8.6-1.5,17-2.1,25.1-2c8.2,0.2,16.2,1.2,24.2,1.5c8,0.4,16,0,23.7,0
	c7.6,0,15,0.4,22.5,1.5c7.5,1.2,15.1,3.2,23.5,3.2c8.3,0,17.3-2,26.6-2c9.4,0,19,2,27.5,2.2c8.5,0.1,15.9-1.5,24.7-2.4
	c8.8-0.8,19.2-0.8,28.7-1.6c9.5-0.9,18.1-2.5,25.6-3.2s13.9-0.3,21.5,1.2c7.7,1.5,16.7,4.1,26,4.6c9.4,0.5,19-1.1,28-2.6
	s17.4-2.9,24.9-3.2s21.3,0.3,25.5-1.7s5.8-592.3,0-595c-5.8-2.6-28.4-2-37.9,0.4c-9.5,2.3-17.1,6.3-25.6,6.3s-17.9-4-26.4-6
	s-16.1-2-23.5-1c-7.3,1-14.3,3-22.6,3.5c-8.4,0.5-18-0.5-27-0.8c-9-0.4-17.4,0-26.9,0.5s-20.1,1.1-28,1.5
	c-7.8,0.3-12.8,0.3-19.5-0.4c-6.6-0.6-15-2-24.1-1.3c-9.2,0.7-19.2,3.3-27.9,3.7c-8.6,0.3-16-1.7-23.3-3c-7.3-1.4-14.7-2-18.2,2.3
	s-3.1,13.7-7.5,15.8c-4.3,2.2-13.3-2.8-19.3-8c-6-5.1-9-10.5-14.8-12.1c-5.9-1.7-14.5,0.3-23.2,0.8s-17.3-0.5-26.3-0.3
	c-9,0.1-18.4,1.5-26,1.3c-7.7-0.2-13.7-1.8-21.7-2.3s-18,0.1-27.2,1.1c-9.1,1-17.5,2.4-25.6,2.2c-8.2-0.2-16.2-1.8-25-2.2
	c-8.9-0.3-18.5,0.7-26.5,1c-8,0.4-14.4,0-21.9-0.6c-7.5-0.7-16.1-1.7-25.3-2c-9.2-0.4-18.8,0-23.5,3.5s-4.3,10.1-7,10.6
	s-8.3-5.1-13.5-8.5c-5.2-3.3-9.8-4.3-17.3-4c-7.5,0.4-17.9,2-25.7,4.9c-7.8,2.8-13.2,6.8-20.2,8.5c-7,1.6-15.6,1-24.1,0.6
	c-8.5-0.3-16.9-0.3-25-3c-8.2-2.6-16.2-8-24-10.1c-7.9-2.2-15.5-1.2-22.2-1c-6.7,0.1-12.3-0.5-19.3-0.7s-15.4,0.2-23.5,1.3
	c-8.2,1.2-16.2,3.2-21.9,5c-5.6,1.9-9,3.5-12.1,3c-3.2-0.5-6.2-3.1-11.9-3c-5.6,0.2-14,3.2-23.1,5c-9.2,1.9-19.2,2.5-27.9,3
	c-8.6,0.5-16,0.9-22.6,0c-6.7-0.8-12.7-2.8-20.4-5.1c-7.6-2.4-17-5-25-7.2s-14.6-3.8-22-3.8c-7.3,0-15.3,1.6-24.1,2.5
	c-8.9,0.8-18.5,0.8-27.7,1.1c-9.2,0.4-17.8,1-25.2,1.2c-7.3,0.2-13.3-0.2-19.8-1.5s-13.5-3.7-21-3.2s-15.5,3.9-24,5
	c-8.5,1.2-17.5,0.2-26,0.5c-8.5,0.4-16.5,2-23.8,1.5c-7.4-0.5-14-3.1-22.9-4.8c-8.8-1.7-19.8-2.3-28.5-1.5c-8.6,0.8-15,3.2-21.1,4.7
	c-6.2,1.5-12.2,2.1-19.7,1.5c-7.5-0.7-16.5-2.7-25.2-2.4c-8.6,0.4-17,3-24.8,5s-15.2,3.4-22.5,2.5c-7.3-0.8-14.7-3.8-21.3-5.5
	c-6.7-1.6-12.7-2-20.7-2.5s-18-1.1-26.5-0.1s-15.5,3.6-23.7,4.3c-8.1,0.7-17.5-0.7-26.1-1.2c-8.7-0.5-16.7-0.1-24-1.3
	c-7.4-1.2-14-3.8-20.7-4.7c-6.7-0.8-13.3,0.2-21.7,1c-8.3,0.9-18.3,1.5-28.1,2.7c-9.9,1.2-19.5,2.8-27.2,2.2
	c-7.7-0.7-13.3-3.7-21.8-5.4c-8.5-1.6-19.9-2-30-1.8c-10.2,0.2-19.2,0.8-27.4,1.8c-8.1,1-15.5,2.4-23.1,2.4
	c-7.7,0-15.7-1.4-25.2-2.9s-28.7-3.1-34.2-1C-11.2,151-10.7,744.3-5.7,745.7z M501.8,611.3c0.2,6.7,4.2,13.7,10.7,17.2
	s15.5,3.5,23.8,1.3c8.4-2.1,16-6.5,19.4-12.5c3.3-6,2.3-13.6-2.7-19.5c-5-5.8-14-9.8-22-10.8s-15,1-18.5,2.3c-3.5,1.4-3.5,2-5.3,5.5
	C505.3,598.3,501.7,604.7,501.8,611.3"/>
<path class="mod" d="M-5.7,594.7c2.4,3.3,12,4.3,19.2,4.6c7.2,0.4,17.8,0,26.8-0.3s16.4-0.7,24.7-2.2s17.7-4.1,26.5-2.6
	s17.2,7.1,26.5,9.3s19.7,0.8,28.5-0.2s16.2-1.6,24-2.1s16.2-0.9,24.5-1.9s16.7-2.6,24.8-3.3c8.2-0.7,16.2-0.3,25-0.2
	c8.9,0.2,18.5,0.2,26.7-0.3s14.8-1.5,22.5-1.2c7.7,0.4,16.3,2,24.3,3s15.4,1.4,23.4,0.4s16.6-3.4,24.8-6.2s15.8-6.2,23.7-7.2
	c7.8-1,15.8,0.4,23.3,0.2s14.5-1.8,22.5-4.5s17-6.3,25.2-8.8c8.1-2.5,15.5-3.9,23.5-7.4s16.6-9.1,25-12.5c8.3-3.3,16.3-4.3,24.3-4.1
	c8,0.1,16,1.5,22.2,3.5c6.1,2,10.5,4.6,15.3,8.8s10.2,9.8,14.5,13.7c4.3,3.8,7.7,5.8,13.8,7.6c6.2,1.9,15.2,3.5,22.2,6.5
	s12,7.4,17.3,9.7c5.4,2.3,11,2.7,18.7,3s17.3,0.7,26-0.3s16.3-3.4,25.7-4.2c9.3-0.8,20.3-0.2,29,1.2c8.6,1.3,15,3.3,22.6,3.5
	c7.7,0.1,16.7-1.5,25.7-2.4c9-0.8,18-0.8,26-2.1c8-1.4,15-4,21.2-8.5c6.1-4.5,11.5-10.9,18.1-13.9c6.7-3,14.7-2.6,23-2.6
	c8.4,0,17-0.4,25.9,1.8c8.8,2.2,17.8,6.8,26.5,8.3c8.6,1.5,17-0.1,23.6-0.8c6.7-0.7,11.7-0.3,18.5,1.7c6.9,2,15.5,5.6,24.7,6.1
	s18.8-2.1,23.8-1c5,1.2,5.4,6.2,11,8c5.7,1.9,16.7,0.5,26.4,1.7c9.6,1.2,18,4.8,26.8,5.7c8.8,0.8,18.2-1.2,27.5-2.2s18.7-1,28.7-1.5
	s20.6-1.5,30.3-0.2c9.7,1.4,18.3,5,26.8,5.7s16.9-1.7,24.4-3.3c7.5-1.7,14.1-2.7,22.5-2.7c8.3,0,18.3,1,26.5,1.3
	c8.1,0.4,14.5,0,23.3,0.5s20.2,1.9,29.7,0.7s17.1-4.8,25.1-6.2c8-1.3,16.4-0.3,23.7-3.3s13.7-10,19.3-15.3c5.7-5.4,10.7-9,13.4-7
	c2.6,2,3,9.6,4.8,16c1.8,6.3,5.2,11.3,9.7,13c4.5,1.6,10.1,0,17-0.9c6.8-0.8,14.8-0.8,22,0.2c7.1,1,13.5,3,20.6,3.3
	c7.2,0.4,15.2-1,23.9-1.6c8.6-0.7,18-0.7,29.1-0.7c11.2,0,24.2,0,33.9,0.7c9.6,0.6,16,2,23,2s14.6-1.4,23.1-2.2s17.9-1.2,27.5-0.8
	c9.7,0.3,19.7,1.3,28.7,1.5c9,0.1,17-0.5,24.2-0.5c7.1,0,13.5,0.6,20.5,0.6s14.6-0.6,22-0.8c7.3-0.2,14.3,0.2,23.3,0.5
	s20,0.7,27.8,0.8c7.9,0.2,18.2,0.2,20.9-3.5c2.7-3.6,1-279.6,0-282.8s-7.7-6.8-14.5-7.5c-6.9-0.7-20.5,1.7-29.5,1.5
	s-13.4-2.8-20.5-4.2c-7.2-1.3-17.2-1.3-25.7-0.6c-8.5,0.6-15.5,2-24,2.6c-8.5,0.7-18.5,0.7-27.5,0.5c-9-0.1-17-0.5-25.3-0.1
	c-8.4,0.3-17,1.3-24.7,3.8s-14.3,6.5-20,6.3c-5.7-0.1-10.3-4.5-17.7-7.1c-7.3-2.7-17.3-3.7-26-3.7c-8.6,0-16,1-23.3,1.2
	c-7.3,0.1-14.7-0.5-22.5-0.9c-7.8-0.3-16.2-0.3-25.7,1.7s-20.1,6-29,9.2c-8.8,3.1-15.8,5.5-21.8,9.1c-6,3.7-11,8.7-16.8,13.7
	c-5.9,5-12.5,10-18.9,10.3c-6.3,0.4-12.3-4-19.1-8.3c-6.9-4.3-14.5-8.7-16.7-14.3c-2.2-5.7,1.2-12.7,0.2-14.4c-1-1.6-6.4,2-12.5,3.5
	c-6.2,1.5-13.2,0.9-19.9-1.3c-6.6-2.2-13-5.8-20.1-7.3c-7.2-1.5-15.2-0.9-22.5-1c-7.4-0.2-14-1.2-22.4-2c-8.3-0.9-18.3-1.5-26-1.2
	c-7.6,0.3-13,1.7-20.6,2.8c-7.7,1.2-17.7,2.2-26,1.7c-8.4-0.5-15-2.5-21.2-3.3c-6.2-0.9-11.8-0.5-19.2-0.5c-7.3,0-16.3-0.4-25.8,0.1
	s-19.5,1.9-28.5,1.9s-17-1.4-25.3-1.7c-8.4-0.3-17,0.3-25.5,1.5s-16.9,2.8-24.2,5.5s-13.7,6.3-21.8,7.2c-8.2,0.8-18.2-1.2-26.9,0.1
	c-8.6,1.4-16,6-24.1,8.7c-8.2,2.7-17.2,3.3-23.7,6.8s-10.5,9.9-12.3,17c-1.9,7.2-1.5,15.2-6.4,21c-4.8,5.9-14.8,9.5-24,13.7
	c-9.1,4.2-17.5,8.8-24.3,8s-12.2-7.2-19-11.8c-6.8-4.7-15.2-7.7-21.8-12.5c-6.7-4.9-11.7-11.5-17.9-15.7c-6.1-4.2-13.5-5.8-20.6-6
	c-7.2-0.2-14.2,1.2-19.9,0c-5.6-1.2-10-4.8-10.5-9.8s2.9-11.4,1.9-16.9s-6.4-10.1-10.5-12.6c-4.2-2.5-7.2-2.9-13.4-3.2
	c-6.1-0.3-15.5-0.7-23.8-0.2s-15.7,1.9-24,1.4s-17.7-2.9-26-2.7s-15.7,2.8-23.7,3s-16.6-2.2-25.3-2.3c-8.7-0.2-17.3,1.8-26.7,2.8
	c-9.3,1-19.3,1-27.6-0.7c-8.4-1.6-15-5-22-5.5s-14.4,1.9-22.5,3c-8.2,1.2-17.2,1.2-26.2,1c-9-0.1-18-0.5-27.2,0.9
	c-9.1,1.3-18.5,4.3-26.8,5.5c-8.3,1.1-15.7,0.5-22.7-0.4c-7-0.8-13.6-1.8-21.1-2.8s-15.9-2-24,0c-8.2,2-16.2,7-23.4,9.5
	c-7.1,2.5-13.5,2.5-19.3,0.2c-5.8-2.4-11.2-7-18.7-9.9c-7.5-2.8-17.1-3.8-26.1-3.6c-9,0.1-17.4,1.5-25,0.8
	c-7.7-0.7-14.7-3.3-20.5-2.5c-5.9,0.8-10.5,5.2-17.2,6.8c-6.7,1.7-15.3,0.7-23.8-1c-8.5-1.6-16.9-4-24.9-3.5s-15.6,3.9-23,4.5
	c-7.3,0.7-14.3-1.3-21.6-2.5c-7.4-1.1-15-1.5-23.4-2.1c-8.3-0.7-17.3-1.7-26-1.9c-8.6-0.1-17,0.5-25.1,0.2
	c-8.2-0.3-16.2-1.7-22.9-2.3C4.7,300-3.6,300-5.7,303C-7.9,306-8,591.3-5.7,594.7z"/>
<path class="hot" d="M-5.7,396.9c0.3-1.3,2.7-0.9,6.4-1.6c3.6-0.6,10-1,16.5-0.3s13.1,2.3,21.3,1.8s17.8-3.1,27.2-3.6
	c9.3-0.5,18.3,1.1,26.6,0.8c8.4-0.3,16-2.7,23.7-3.8c7.7-1.2,15.3-1.2,23,0c7.7,1.1,15.3,3.5,22.2,3.3c6.8-0.2,12.8-2.8,20.3-3.7
	c7.5-0.8,16.5,0.2,24.5,2c8,1.9,15,4.5,23,5.7s17,0.8,26-0.7s18-4.1,26.7-5c8.6-0.8,17,0.2,25.8,1.2s18.2,2,27.2,2.3
	c9,0.4,17.6,0,27-1c9.3-1,19.3-2.6,27.6-3.5c8.4-0.8,15-0.8,23.2-0.1c8.2,0.6,17.8,2,26,2.6c8.2,0.7,14.8,0.7,23,0.5
	c8.2-0.1,17.8-0.5,25-0.1c7.2,0.3,11.8,1.3,19.3,0.5c7.5-0.9,17.9-3.5,27.2-4.5s17.7-0.4,25,0.6s13.7,2.4,22.5,2.4s20.2-1.4,28,1
	c7.8,2.3,12.2,8.3,18.5,13.5c6.3,5.1,14.7,9.5,22.5,12.8s15.2,5.7,22.8,5.8c7.7,0.2,15.7-1.8,22-5.3c6.4-3.5,11-8.5,17.5-11
	s14.9-2.5,23-2.7c8.2-0.1,16.2-0.5,25.7-0.3s20.5,0.8,30.2,1.2c9.6,0.3,18,0.3,26,0.3s15.6,0,23.8,1.8c8.2,1.9,16.8,5.5,25,5
	s15.8-5.1,23.5-7c7.7-1.8,15.3-0.8,20.7-2.8c5.3-2,8.3-7,15-9.2c6.6-2.1,17-1.5,26.5-1s18.1,0.9,27,0.9c8.8,0,17.8-0.4,26.1-0.7
	c8.4-0.3,16-0.7,26.2-0.8c10.2-0.2,22.8-0.2,32.2-0.4c9.3-0.1,15.3-0.5,21.3,0s12,1.9,20,2c8,0.2,18-0.8,27.2-2
	c9.1-1.1,17.5-2.5,26-2.6c8.5-0.2,17.1,0.8,25.8,1.6c8.7,0.9,17.3,1.5,26.2,1.5c8.8,0,17.8-0.6,25.8-0.3s15,1.7,23.3,2.3
	c8.4,0.7,18,0.7,25.9,2c7.8,1.4,13.8,4,21.1,6.5c7.4,2.5,16,4.9,24.7,5.7s17.3,0.2,24.3,0s12.4,0.2,19.4-0.3s15.6-1.9,23.1-0.9
	s13.9,4.4,19.5,2.9c5.7-1.5,10.7-7.9,17.2-10.9s14.5-2.6,21.3-3.3c6.9-0.7,12.5-2.3,20.4-3c7.8-0.7,17.8-0.3,26.1,0.3
	c8.4,0.7,15,1.7,23.7,1.4c8.7-0.4,19.3-2,27.7-2.9c8.3-0.8,14.3-0.8,21.6-1.3c7.4-0.5,16-1.5,25-1.8c9-0.4,18.4,0,27.2,0.8
	s17.2,2.2,26,2.5s18.2-0.3,26.3-0.3c8.2,0,15.2,0.6,22.9,0.5c7.6-0.2,16-1.2,23.5-2c7.5-0.9,14.1-1.5,21.8-1.2s16.3,1.7,25.7,3.2
	c9.3,1.5,28.3,3.1,33,6.5c4.6,3.3,3.4,90.3,0,93.5c-3.3,3.1-20.7,6.5-27.4,7c-6.6,0.5-13-1.9-19.6-3.4c-6.7-1.5-13.7-2.1-21.4-2
	c-7.6,0.2-16,1.2-25,0.5c-9-0.6-18.6-3-27.6-3.5s-17.4,0.9-26.4,1c-9,0.2-18.6-0.8-28-0.8c-9.3,0-18.3,1-27.1,2.8
	c-8.9,1.9-17.5,4.5-26.2,4.7s-17.3-2.2-25.2-4.5c-7.8-2.3-14.8-4.7-20.8-4.5s-11,2.8-18.2,3.5c-7.1,0.7-16.5-0.7-25.8-0.2
	s-18.7,2.9-26.8,2.7c-8.2-0.2-15.2-2.8-20.9-6.7c-5.6-3.8-10-8.8-15.8-9.1c-5.8-0.4-13.2,4-21.8,7.3c-8.7,3.3-18.7,5.7-28,6.7
	c-9.4,1-18,0.6-26.5,0.1s-16.9-1.1-24.9-1.6s-15.6-0.9-24.6-1.4s-19.4-1.1-28.4-1.8s-16.6-1.3-23.1,0s-11.9,4.7-18.7,5
	s-15.2-2.3-23-2.5s-15.2,2.2-22.8,2.8c-7.7,0.7-15.7-0.3-24.7-0.1c-9,0.1-19,1.5-27.2,1.5c-8.1,0-14.5-1.4-21.8-2
	c-7.3-0.7-15.7-0.7-24.3-0.5c-8.7,0.1-17.7,0.5-26.5,0c-8.9-0.5-17.5-1.9-25.7-1c-8.2,0.8-15.8,3.8-23.5,4.8s-15.3,0-21.5-1.2
	c-6.2-1.1-10.8-2.5-18-3.3s-16.8-1.2-26-1s-17.8,0.8-26.7,1.5c-8.8,0.7-17.8,1.3-25.6,1.7c-7.9,0.3-14.5,0.3-22.4,0.3
	c-7.8,0-16.8,0-25.8-0.3c-9-0.4-18-1-26-1.5s-15-0.9-23.8-1c-8.9-0.2-19.5-0.2-28.7,0.3s-16.8,1.5-25.5,2.2
	c-8.7,0.6-18.3,1-27.5,1.5s-17.8,1.1-25.7-0.5c-7.8-1.7-14.8-5.7-23-8.2c-8.1-2.5-17.5-3.5-25.3-3.2c-7.8,0.4-14.2,2-22.3,1.5
	c-8.2-0.5-18.2-3.1-26.4-2.1c-8.1,1-14.5,5.6-21.6,8c-7.2,2.3-15.2,2.3-22.2,2c-7-0.4-13-1-21-1.2s-18,0.2-27.2,0.7
	c-9.1,0.5-17.5,1.1-25.8,0.6s-16.7-2.1-25.3-2.5c-8.7-0.3-17.7,0.7-27,1.9c-9.4,1.1-19,2.5-27.4,2.3c-8.3-0.2-15.3-1.8-23.5-1.8
	c-8.1,0-17.5,1.6-25.8,1c-8.3-0.7-15.7-3.7-23.2-4c-7.5-0.4-15.1,2-23.8,3.8s-18.3,3.2-27.7,2.5c-9.3-0.7-18.3-3.3-26.3-3.3
	s-15,2.6-23.2,3.1c-8.1,0.5-17.5-1.1-26.1-1.6c-8.7-0.5-16.7,0.1-25.2,1.5c-8.5,1.3-17.5,3.3-26,2.8s-16.5-3.5-25-6.3
	c-8.5-2.9-17.5-5.5-26.8-4.9c-9.4,0.7-19,4.7-27.9,5.9c-8.8,1.1-16.8-0.5-25.6-0.9c-8.9-0.3-18.5,0.7-25,1c-6.5,0.4-13.1,0-14.9-2.6
	C-7.5,491-5.7,396.9-5.7,396.9z"/>
<g id="labels">
	<text x="515" y="020">270K</text>
	<text x="515" y="140">280K</text>
	<text x="515" y="290">290K</text>
	<text x="515" y="380">300K</text>
	<text x="515" y="520">300K</text>
	<text x="515" y="570">290K</text>
	<text x="515" y="650">280K</text>
	<text x="515" y="890">270K</text>
</g>
</svg>