<?xml version="1.0" encoding="utf-8"?>
<svg width="1800" height="900" version="1.1" xmlns="http://www.w3.org/2000/svg">
<rect id="frame" width="1800" height="900" fill="#332211" fill-opacity="0"/>
<g fill-rule="evenodd">
<path fill="#096" d="M650,316l-1,1l-1,6l0,0v5l9,6l1-3l7-4l3,1l6-6l4,1l3-2l3-6l4-2l3-4l-1-9h-1h-7l0,0l-2,7l-8-3l-2,2
	l-8-3l-3,5h-2l-6,4L650,316z M688,332l1,11l2,3l3-1l9,14l-1,1l1,3l-4,6l7,13h1l1,7l8,7v7h3l9,9l-1,4l-5,2h-3l-6,5l-1,1l-1,6l0,0
	l-3,5v1h-6l-3,2l-7-3l-3,1l-2,3v8l-1,1l-2,6v1l-2,3l-6,5l0,0l-6,4l-2,5l3,5l1,1l-2,2l-5,5v1l3,6l8,2l0,0v5l-5,4l-1,5l1,2l3,2l1,2
	l-5,9h-3l-5,8l3,5h1l7-1l4,1l4-2l7,1l3-1l1-3l-2-5l3-3l9,3l1,2l-1,2v8h1l-1,5l5,5l4-1l2,6l6,2l2,3l5,2l2,3l6,1l4-2l4,2l6-2l0,0l7-2
	l3-9v-1l4-6l7,1l3,2h5l4,3h6l2-1v-9l4-5h3l6,7l3,1l6-3l1-2l-1-3l2-6l-4-7l2-5l0,0h7l2,2l6-1l3-7l-2-3l1-5v-1l2-6l5-1l1-5h5l2-5l5,1
	l1,4l4,3v2l2,2l8-1l5,5v2l-2,2v10l-7,4v1l4,8h8l2-1l1-6l7-2l3,4l6-4l3,1l4-3h5l1,2v10l-2,1l-3,1l-6,8l2,4l6,1l6-4h1l6-4l5,2l3-7l7,5
	l3-1l4,1l2,3l7,4l-7,10v2l5,2h4l8,6l-8,10l0,0l-5,15l5,3l3,5l0,0l-6,6l-5,8h-1l-14,9h-2l-2-3l-5-1l-3-4l-7,2l-3,4l2,9l0,0l5,1l5,4
	l-1,6l-3,2l-9-1l-2-3l-6,1l-4,6v2l-2,5l-5,2h-2l-2-1l-4,1l-8-2l-1-1l-5-2l-5,2h-2l-7,4l-5-3l-6,1l-3-2l-5-1l-2-3l-1-6l-4-5l-3-1
	l-2-3l-3-1l-1-1l-3-1l-2-3l-5-3l-1-4l-7-4h-1l-2-3l-8-3l-1,1l-8-4l-1-1l-10-1l-1,1h-4l-3,3l-2,1l-4,7l1,5l-2,6l-2,1l-1,2l-2,6l2,5
	l-1,2l1,7l3,4l1,4l3,6v1v5v1v1l-5,7l-8,2l-3,9l-6,1l-3,2l2,11l-1,2l-8,3l-4,6v1v1l-13,7l-3-2l-4-8l-3-2l-2-2l-5-1l-6-4h-2l-6,4l-3,4
	l-2,1l0,0l-2,8l1,4l-3,6l1,2l-2,3l-1,1l-3,5l-3,1l-4-3l-5,1l-2-2l-4,1l-2-2l-7,3l0,0l-8,2l-3-2l-1-1l-1,1l-8-2l0,0l-9-1h-1l-2,5l2,7
	v3l-5,2l-4-1l-4-7l1-2l-4-5v-3l-6-1l-5-5v-4l-3-3l-2-3l-7-1l-3,5l-7,2l-1,5l1,3l1,5l-6,5l-7-1l-2-2v-4l4-6l-3-6l1-4l-4-6l3-5l-3-4
	l-7-1h-2l-2,3l-5,3l-1,2l-2,1h-4l-5-10l2-5l-2-3l-2-7l-4-1l-4-9l4-4l-6-13l5-2v-14l0,0v-3l8-2l4-8l-3-4l2-6l-7-10l9-5l-3-12l1-3v-2
	l1-1l8-2l3-4l-4-11h1l8-10l7-1l2-13l-1-2l2-15l-4-5l1-2v-1l7-15v-1l2-2l6-2l1-2h2l5-10l-1-2l4-8l3-2l5,3l5-1l2,2h5l1-2l6-3v-11l0,0
	l3-8l6-1l2-9l-1-4v-2l2-2l5-8h1l7,3l6-1l2-2h5l4-3l5,1l2-10l0,0v-6l-6-5l-2-3l-2-1l-2-5v-3l0,0l8-4l6,2l4-2l1-5l-1-2l4-7l-1-2l3-6
	v-2l2-4l-4-6l4-6h3l5-6h1l10-6l0,0h2l0,0l7-4l2-5L688,332z M585,387l-2,2l1,1l-2,8l4,5l5-1l2-4l0,0l8-1l0,0l8-5v-4l-7-3h-1l-5-1
	l-2-7l-9-3l-3,5L585,387z M736,492l-2-4l-4-3h-4l-3,4l-2,6v1l4,8h11l0,0v-2v-4V492z M727,524l-3,8l1,3v3l-4,2l-1,2l-8,3l-4-6l5-6
	l-1-4l2-2l3-1l4-4L727,524z M706,648l5,2l3-1l3,1l5,8l-1,4l1,4v5l-4,3l-3,6l-10,1l-2,2h-1l-6-4h-1l-6-3l-2-7v-1l4-2l2-5l4-4l2-5l2-3
	L706,648z M924,661l6,1l2,4v7l-4,3h-4l-4-2l-1-3v-6L924,661z"/>
<path fill="#CC1818" d="M293,448l-2,8l2,4v4v1v6v1l0,0l7,9h4l3-2h3l6,4l3-1l6,4l0,0l8,4l3,6h7h1h2l4-3l3-1l5-6l2,1l7-4
	l0,0l8-4l4,3l6-2l2-7v-1l2-5l-2-4l1-4l5-4l8,2l0,0l0,0l9-3l5,2v1l9,1l2,3l7-1l0,0h6l6,2l2,5v3l1,3l5,3l1,5l4,3l2,1l4,3h2l5,4l4-1
	l7,2l1,10l0,0v6l5,3l8-1h1l7-2h1l5-3l6,1l1-2l9-1l4,2h4l6,1v1l-7,15v1l-1,2l4,5l-2,15l1,2l-2,13l-7,1l-8,10h-1l4,11l-3,4l-8,2l-1,1
	v2l-1,3l3,12l-9,5l7,10l-2,6l3,4l-4,8l-8,2v3l0,0v14l-5,2l6,13l-4,4l4,9l4,1l2,7l2,3l-2,5l5,10l-7,3l-6-3l-1-2l-1-3l-3-4h-6l-6-3h-1
	l-5,4l-2,5l-2,1l-3,6v6l-1,1l-6-1l-6-4l-2-5l4-3l1-6v-2l-1-1l-3-2l-6,3l-3,6l-5,1l-7-3v-1l-8-3v-1l-1-3l-5-2l-1-4l-6-3h-1l-5-8v-1
	l-3-8l1-1v-7l-4-4l-6,1l-3-4l-6-1l-4,4l-3,1l-2,4l-5,2h-2l-4,6l-6,1l-2-2h-5l-5-5l-7,3v1l3,7l0,0l5,5l1,5l4,2l4,6l-7,6l-3-1l-4-5
	l1-5l-9-5l-1-2l-2-1l-3-9l-6-2l-7,3l-4-2l-4,2l-7-2h-1l-7-5l0,0l-7-5h-2l-4,1l-3-3l-10,1v3l-8,4l-2-1l-2-3l-6-3h-1l-4-4l-9,1l-2,3
	l-2,1l-4-2l0,0l3-13h-1l-2-8l2-4l-5-6l-3,1l-6-3l-2-1l1-2l1-2h8l-1-6l4-1l2-6l6,1l4-6l-2-4l-6-2l-3-2v-4l-5-5v-3l-2-4l1-4l4-3v-4
	l4-4v-3l-2-5l1-1l1-12l1-1v-5l8-3l0,0l2-6l-2-5l6-6l2,1l2,2l7-2l4,2l6-5l-5-7h-3l-1,1h-5l-5-4h-1l-5-4l-1-1l-5-3v-2l-4-3l-2-1l-3-3
	l-3-2l-2-2l1-5l-3-4l2-4h7l4-6h1l5-1l5,6l3-5l-1-4l3-4h2l3,1l1,1l10-3l0,0l8-2l0,0l9-3l1-1v-1l6-7h6L293,448z M523,449l-5,4l1,3l3,6
	h1l3,1l4,3l6,1l2,2v7l5,6l6-5l1-5l-6-4l2-5l-4-5l-3-1l-4-6l-2,1L523,449z M512,526v1l-5,7l-1,1l-9-6v-5v-1l8-3L512,526z M272,534
	l5,1l3-1l8,1l0,0h8l1,1l8-1l3,7l-3,5l4,4l-3,9h-2h-2l-9,5l0,0l-7,6l-4,1h-1h-8l-2,1h-5h-1l-4-7l4-8v-3l3-6l-3-6l5-8L272,534z"/>
<path fill="#181818" d="M333,211l1,4l-5,6l7,8h1v1l3,7l0,0l2,6v1l3,7l3,1l6-3v-7l4-2l7,6l5-5l6,2l2-2h7l2,1l9-4l4,3l3-1
	l6,4l1,3h6l6,6v1l6,4l1,3l5,3l5-1l4,2l6-1l3,2l6-1l4,7l-1,3l4,7h3l1,7h9l0,0l8,1h2h1l1,1l8,3l5-3l3,1l1,1v10l3,3v2l-2,3v2l2,2l3,11
	l-4,6l-3,1l-5,5l0,0l6,8l-2,4l3,4l-3,4v5l-5,5l0,0l-7-5v-3l-7-4l-2,1l-3,1l-1,4l-4,5l0,0l-7,1l-1-1l0,0l-7,8v1l-4,4l2,7l-7,4l-5-5
	l1-5l0,0l-2-8l1-1l-1-7l0,0l-1-7l-5-4h-3l-4-1l-3-5l1-4l-7-4l-4,3l-5-1l-2,1h-3l-5-3l-1,1l-1-1l-4-7l-8,1l-1,1l-5,2l0,0l-1,1l-6,1
	l-3,4l-9-3l-1,4l-6,3l-1,1l-5,2v1h-12l0,0l-2,1l-7-1l-5-6h-1h-3l-3-1h-6v-1h-7h-1l-1,7l-10,2l-3-2l-1-3l-6-5l-6,2l-6-1l-4-4l-4,1
	l-3-1h-7l-2,2l-8-7l1-6l-1-1v-8l5-2l1-4l-5-6h-3l-3-7l2-5l-4-7v-1v-3l3-6l3-1l6,2l1-1l5,1l3,2l6-4l2-7l5-1l4-4h2l3-2l6,3h3l4,1h3
	l2,1l5-1l2-7l-3-4v-5l-3-2l-2-3l-1-1l-9-7l1-2l5-7h1h2l5-3l4-5l0,0l6-6v-1l4-5l4-1l4-6h6l4,6L333,211z M531,352l2,2l1,3l2,1h7l4,7
	l-2,4l-3,2l-2-1l-6,3l-1-1l-10,1l-3-10l0,0l-1-9l-1-1v-4l8-7l5,5V352z M520,406l1-3l-2-6l-2-2l-7,1l-5,7h-2l-6,6l1,5l-4,2v1l3,8
	l-1,1v11h-2l-6,5v6l0,0l-3,7l1,4v1l7,4l0,0l9,5l6-3v-5l-1-3l2-8l4-1l5,4l5-4l10,3l2-1l2-3l3-1l5,1l5,5v2l3,3h5l4-2h6v-1l6-4v-1
	l-5-11l-3-1l-5,3l-4,1l-2-2l-3,1l-9-5l-1-4l1-3l0,0l-1-8l-8-3l-3,2l-3-2l-1-2l-5-5L520,406z"/>
<path fill="#F60" d="M776,268l-5-3v-3l11-7l3,1l9-4l5-1v-1l14,8h1l3-6l10-4l5,9h2l9-5l9,6l5-3l5-2l5,3l14-4l0,0h8l6,5
	h6l3-2l7-3l7,8l-2,3v14l2,2l-3,10l4,6v10l1,1v7l-8,8l6,10l-3,4l-1,3l4,4l11,4l1,9l0,0h5l7-5h1l10,7l-1,6l7,7l4,1l3,11l11,4l1,10
	l-5,3v10l-6-1h-1l-8,2l-1-1h-6l-3-3h-5l-3-2l-5-1l-2-3l-8-2l-5,3h-1l-3,5h-1l-3,5l-1,1l-5,5l-1,3l-4,3l-1,3l-5,3l-1,3l-5,3l-2,5l4,4
	l1,7l1,2v3l-2,3l1,4l-3,5l1,2l-1,5l-8,7h-1l0,0l-8,1l-1,1h-7h-2h-2l-6-5l-1-3l-5-4v-1l0,0l-3-3l-7-2l-2,1l-8-8v-3v-1l1-5l-4-7l1-1
	l-7-9l-5,1l0,0l-10,4l-2-6l-7,1l-2-2h-5l-2-6l6-3l-2-5l-2-1l-3,1l-6-3l-1-4h-7l-2-2l-5,1l-5-3l-4,3l-9-2l0,0l-3-1l-7,1h-1l0,0l-7,5
	l-9-9h-3v-7l-8-7l-1-7h-1l-7-13l4-6l-1-3l1-1l-9-14l-3,1l-2-3l-1-11l3-4l0,0l4-5l1-4l5-2l5,3l2-1h1h7l2,2l6-2l0,0l1-10l3-3l1-1l2-1
	h6l3-2l5,1l7-4l1,1l9-2v-1h8l1-1l3-8l0,0l3-6l-2-5l1-2V268z M664,276l2,3l7,1l3-3l8,1l2,5l2,1v5l2,4l-1,7h-7l0,0l-2,7l-8-3l-2,2
	l-8-3v-3l-3-6h-1l-5,1l-3-2h-6l-2-1l-3-6l5-6l2-5l1-1v-1l6-4h2l9,6V276z M753,287l-3,6l-10-1l0,0v-6l7-5l2,1L753,287z M762,433l-3,5
	v3l-2,4l-3,1l-8-5l2-5l1-1v-6l4-4h6l3,3V433z"/>
<path fill="#A0A" d="M1566,143l-3,4l-3,1l-5,7v2l7,5l4-1l4-6l7,3l-1,4l-4,2l1,4l-5,5l1,3l6,4v1l4,7l6,1l1,1l5,1l2,6l-4,5
	l5,6l-2,1v6l-4,4l3,4h4l4-5h1l1-10l-2-2l1-4l4-5l-1-3l5-8l6,5v1l7,5v1l6,4l1,6l-3,3l-4,2l-2,2l-7,1l-2,3l1,9l0,0l8,2l4-2l6,7l1,1
	l6,7l2,1l7,8v4l-1,1v6l-2,3v3l1,1v8l1,1l-1,11h-1h-10l-3,10l4,3l1,2l5,4l1,6l-9,5h-2l0,0l-6-1l-1-1l-6-2l-2,1l-3-1l-6,3l-2,8l1,1
	l-2,7l1,3l-1,2l-7,5l-7-6v-2l-5-6l-5,2l-5-1l-2,1h-6l-2,2l2,7v1v4l-5,4l-1,6l-5,2l-1,6l5,4l0,0l7,1l1,5l-5,4l-4-1l-3,1h-1l-6-5l-5,1
	l-4-8h-3l-5,2l-2,6l0,0l-2,4l-4,3h-9h-1l-4-1h-2l-2-1l-5,1h-2l-7,1l-1,1h-4l-7-3l0,0l-4-1l-7,3l-1,2l-6,2h-3l-3-3h-4l-6-3l-2,1l-4,7
	l-1,3l-5,7v1l-2,3l-5,4h-2l-3,8v2l-3,5v4l-7,7h-5l0,0l-2,1l-9-2h-1h-8l-2-1l-7,1l-4-2l-3,1l-5-2h-2l0,0l-4-4h-1l-7,3v1l-5,5h-1l-5,5
	h-1l-4,6l-5,1l-1-2l-9,5l-5-6h-2l-3,1v8l6,5l-4,5l-7-2l-2,1h-3l-4,4l2,6l-4,4v3l-1,3l-7-1l-3-5h-6l-3-3h-2l-4,1l-5-2l-4,1h-7l-3-2
	v-3v-2l7-6l7,2v1l10-2l1-1l1-5l-1-2l-1-4l-3-3l1-9l-5-2l-1-1v-2l-6-6l3-7l2-1l1-4l-2-3h-10l-1-2l-7-1h-1l-7-3l-5,2l-2-10l7-2l-4-9
	l-7-2l8-14h3l2-6l-5-10l7-2l-1-8h1l4-1l4-8l2-1l5-1l2-1h7v1l4-1l5-1v-1l2-2l3-5l8-4v-1l2-2l3-4l5-2l1-7l-1-1l1-12h1h8l2,4l10-1l2,2
	l8-1l1,1l10-2l1-1l8-1l3-1l1-4h9l3,4l7,1l1-1v-5l-8-7v-3l-4-3l1-4l2-3l-1-5l1-2l7-2l1-4h6l3-5h5l1,1h5l6,4l1,1l2,2l2,8l-3,4l1,2l3,4
	l7-2l3-4l7,1l4,6l5,2l3,3l1,4l3,2l2,3l2,2l7,1l2,4l9,1l1-1l8,2l4-2l1,1l8-2l1-4l-3-7l-5-2l-1-3l-5-6l2-4l6-3l1-4v-4l-7-1l-3-7l1-1
	l-7-6l7-6l-5-5h-6h-1l-6,1l-2-1l-5,1l-5-5v-6l2-2l2-1l7,2l5-3l1-6l0,0v-8v-1l1-7l-2-2l-1-6l3-5l-1-4v-1l-2-9l-2-1l-3-8l1-2l1-1l3-6
	v-1l2-2l6-3l3-1l4,3l1,2l7,4l1,1l3,3h3l5,6l6-8l1,1l3-2l6,2l4-2l6,3l0,0l7,2l3-1l3,2l8-2l1,1h5l5-6l3-1l2-8l2-1l2-5l2-2l0,0l12-5
	l3,1l0,0l9,1l2,4v4l-2,2l-7,3l-4-2L1566,143z M1340,273l2-5l8,1l2,1l-8,7h-1L1340,273z M1499,306l4,2l5,1l3-2h7l3-1h2l3-1l4,2l7-1
	l2-1l6-1l2,1l2-1l9,1l4,6l3,2l1,1v5v2l-2,7l-10,2l-2-1l-5,1v1l-6,6l-1,2l-3,5l-4,1l-2-1l-5-11l-8-2h-1l0,0l-5,1l-3-2h-7l-3-2l-5,1
	l-6-5v-3l-2-4l3-3l2-6L1499,306z M1282,345l5-1l2,1l5-1l4,1l3,6l-9,5v3h-5l-4,6l-8-1l-1-1v-2l-4-8l1-4l3-2l7-1L1282,345z M1287,500
	v4l3,2l6-1l2-8v-1l-4-3l-1,1L1287,500z"/>
<path fill="#06C" d="M1524,413v-1l-1-10l3-4l5-1l1-1l8-2l2,1l6-4l5,2l1,1l5,2l3,5h2l4,5v5l-2,3l2,6l1,2h7l4-3l3,1l7-4
	l1-3l5-2l2-2h1l5,5l-2,7h7l3,4h2l7,5l1,1l7,6v1l-3,7l-2,2l-10-4l-2-6l-3-1l-5-5l0,0l-3-3l-7,2l-4-2h-2l-1,1l-7,2l0,0l-9,1l0,0l-8-1
	h-1l-3,4l4,8l5-1h2l5,3l1,2l-3,6l-6,2l-1,9l0,0v9l-1,1h-3l-6,8h-4l-4-5l1-4l-6-7l-5,3l-1,1l-5,2l-1,2l-5,5h-3l-3,7h-4l-1,6h-5v5
	l-5,1l-3-9l-1-1v-1l1-7h1l3-6l2-1l5-9l-1-2v-4l5-2l3,5l5-4v-3l0,0v-8l6-2h1l8,1l1-1l6-1l1-1l2-1l4-7l-1-2l-8-2l-1,2h-6l-1,1l-8,3
	l-3-7l2-5l-2-4l1-5l0,0L1524,413z M1413,455v1l-1,8l-1,1l-1,5l-1,2v3l-3,5v2l-3,6v2l5,3l1,8l-7,4l-2-1h-5l-5-3l-7,5l-2-1l-5,4l2,8
	l-4,7h-3l-3,2h-6l-3,2l-2,8l1,3l-6,6l-1,4l-3,2l-3,4l3,9v1l-1,1v10l-1,1v2l7,7v1l5,3l1,6l8,1h1h5l2,5l-3,8l1,1l-3,8l2,3v1l2,4l4,1
	l2,7l7-1l2,2l-2,5l4,6l5-1l2,1l8-1l3,3l4,1l4-5l-3-6l12-4l0,0v-2l3-5v-2l-1-1l1-8l-5-5v-3l3-4v-3h-1l-1-10v-1v-7v-1l0,0l5-6l5-1h2
	l5-4l5,1l4-3l2,1l7-3h1l7-4l3,1l8-3l0,0l7-1l3,6h1l3,5l1,1l9-5h1l-1-5l0,0v-10l-7-3h-1l-3-1l-1-6v-2l-3-8h-3l-7,6v-1l-1-8l3-3l1-3
	l4-2l3-7l-1-2l2-9v-2l0,0l-2-9l1-3l-2-10l-8,2l-2-1l-7-1l-2,1v10h1l5,6v2l-6,6h-2l-6,1l-3,3l-5-2l1-8l2-1l-2-8l3-3v-6l0,0l5-3l1-4
	l-4-7l-3-1l-5,3h-3l-2-2l-6,1l-4-6l-3-1l-3-3l-3-1v-1l-8-2L1413,455z M1147,488l7-1l1,1l1,1l-4,6l-6-4L1147,488z M1128,499L1128,499
	l6-5l7,4v3v1l-1,1l-1,2l-8,4l-4-2l-1-1L1128,499z M1160,501l-2,6l0,0l-4,8l1,6v1l-4,3l-7-1l-2,2l-8,2l-1,2l-9,2l-4,4v2v2l2,3l6,2
	l5,6l1,3l-3,6l1,5v2v2l3,4l9,2l4-6h3l4-3l3-1l2-2h8l3-6l3-2l3-4l4-3l1-8l0,0v-2l8-9l3,1l8-5v-2l-2-5l1-4l-2-3l0,0l-2-5v-2l-3-7l-3-2
	l-1-1l-2,1l-6-1l-3,2l-6-3l-7,4l0,0L1160,501z M1248,528l8-5l6,3v1l-2,7l-3,3h-3l-7-5L1248,528z M986,535l8,4l2-1l6,1l1-1h8l2-6h7
	l3-2h4l0,0l1,1l5,7l-4,5l4,6l-2,5v2l6,6l0,0l1,2l8,3l1,1l9,4l1,7v1v6l1,3v1l-2,3v5l-4,6l6,5l-1,4l-6,1l-4,6l3,4v2l3,5l1,5l-6,3v3
	l-9,4l7,7l6-2l4,1l4-2l0,0l10,6l-3,6l-4,3l-1,3l-5,1l-1,6l3,2l-2,5l2,4v4h-1l-1,4l-5,5h-5l-4,3l-5,1l0,0l-9,1l-4-3h-4l-2-2h-8l-6-5
	l-3-1l-3-3l-8-3v-1l-5-2h-8l-3,2l-4-1l-2-1h-6l-2-1l-1-2l-10-5l1-4l-5-5v-1l-3-3l-1-6l-2-2l-1-3l4-8l-1-1l-6-4h-2l-3-3l-1-2l-1-1
	l-1-8l-5-6l14-9h1l5-8l6-6l0,0l-3-5l-5-3l5-15l0,0l8-10l-8-6h-4l-5-2v-2l7-10l0,0l5,6l5-1l4,2h2l8,1l2,1h3l1-1h5l3-4l-1-9L986,535z
	 M1205,534l-3,3l1,7l8,2l3-6l-2-6h-1H1205z"/>
<path fill="#CCC" d="M899,127l-9,2v-13h5l1-1l10-1l1-1l9,2l2,4h6h1h2l4-1l8,9l5,2h2l1-1l1-1l5-2l5-3h6l6-4h2l4-4l0,0
	l6,2l4-5l6,3l2-1l6,1l1,1l5,2l4-3l6,3l4-4h4l2,1l7-2l3,2h8l2-2h3l4,4l8-1l4,4l-2,8l-7,7l1,2l-2,4v7l13,9l-1,3l3,5l-6,14h-5l-2,13
	l-3,4l7,9l-2,5l1,3l-4,8l2,6l-4,3l2,13l-15-4l-1,1h-7l-2,1l-10,1l-3-4l-10,1l-2,2l-9,1l-3,1l-8-2h-2l-15,3l0,0l-17,4v1l-6,13l-6,1
	l-2-7l-11-5l-2-7l-10-2l-2,2l-2,9l-7,3l-6-13l-2-1v-1l5-12l0,0l2-9l-2-3l1-10v-1v-12l-2-3l3-7l-1-6h1l2-15l1-2l-6-5l8-11l1-2l-7-5
	l-1-9L899,127z M930,180h-1l-2,5l-7,2l-2-2l-4,2l-1,10l1,2l1,6l2,2l0,0l4,5l1,1l7,1h1l5,2l5-1l3,1h1l7-8v-2l2-2l1-6v-1l1-2l-4-7l5-4
	l-2-4l-3-1l-5,2l-4-2l-6,2l-1-1H930z M932,202l7,3l4-3l-2-5h-6l-3,4V202z"/>
<path fill="#A000D0" d="M1063,128l2-8h5l6,6l0,0l5,6l2,1l2,2l5,3l6-1l3-6l-1-4l4-7v-1l1-2l9-2l3,2l1-1l7,1h1l2,4h5l5,5l4,1
	l1,1l9,1l2,2h1l7-7l-4-6l9-1l3,7h2l2,7v2l3,5l5,3l1,1l3,4h1l4,5l4,1l3-2l7,2l0,0l8-2l3,1l6-3l9,6l0,0h1l11-1l4,4h5l0,0h5l4-6l5,2
	l-1,4l4,5h2l3,6v1l8,6h1l8,7l0,0l5,6v1l-6,7l1,2l6,3l0,0l6,3l1,4l-6,6l0,0l-6,5l-1,1l0,0v10l5,3v4l5,3l1,5l4,2l1,6l-2,3l-8,1l-2-1
	l-5,1l0,0h-9l-6,3v1l-3,6l1,10l0,0l-4,1l-3,5h-4l-3,7h-7l-1,2l-1,3l-2,2l-1,2l-6,5l-7-2l-1,1l-3-1l-5-8l9-2v-6l3-5v-4v-2l-4-5l-7-2
	h-1l-7-2l-3-2v-2l-5-3l-1-3l-5-1l-3-6l1-3l-6-7l-3,1l-4,2l-5-1l-6,3h-2l-4-4h-8l-6-3l0,0l-6,3h-3l-6,4l-6-1l-3,1l-4-1l-2-2h-6l-3-5
	h-7l-3,8l1,2l-4,8l-9,2h-1h-2l-3,3l-5,2l-3,5l1,3l5,7h1l2,2h7l0,0l3,4l5,2l4,5l5,2l1,1l7,5v1l-2,6l1,2l-2,7l1,5l2,1l8-1l4-5v-1l5-8
	l5,1l2,2v4l-5,4l2,7l1,1l3,4l3,1l5,7l1,1l2,3v4l3,3l1,10l-1,1l-2,8l1,2l1,4l5,5v8l2,1l1,10l3,1l1,4l4,3v3l6,6l2-1l4,10l-2,2l-5,1
	l-2,2l-6,3l-2,4l2,5v3l-5,6l-7-1l-1-1l-8-2l-2,1h-3l-4,2l-7-1l0,0l-7-1l0,0h-5l-3-3l-7-2l-1-2l-5-1l-5-7v-1l-5-7v-1l-2-3l-6-3l-2-4
	h-2l-4-6l1-6l4-4h2h1l1,1l10,3l0,0l5-11h4l7-5v-1l-3-5l-5-2h-1l-7-4l0,0l-6-2l-2-8h1l1-8v-2l-1-1l-2-10l-1-1l-1-5l2-5l-2-3l2-7
	l-11-2h-1h-5l-4-11l-5-1l-5-7v-2l0,0l5-9l-11-8v-1l6-8v-1l6-6l1-4l-11-12v-1l-2-2l-2-13l4-3l-2-6l4-8l-1-3l2-5l-7-9l3-4l2-13h5l6-14
	l-3-5l1-3l-13-9v-7l2-4l-1-2L1063,128z M1111,271l8-7l2,9h5l3,5h4l0,0v9l-3,2h-2l-5-6h-3l-4-6l-2-1L1111,271z M1198,275l2-2h2l10,5
	l0,0l3,2l-1,6l0,0l-2,7l4,4l-2,6l0,0l3,5v3l1,1l8,4l5-2l3,1l1,10l2,1v8l-1,2l4,7h-1l1,8l-7,2l5,10l-2,6h-3l-8,14l7,2l4,9l-7,2l2,10
	v1l-5,3l-1-1l-5,1l-3-1l-3,1l-6-2l-5,2l-5-6h-3l-3-4l-6-3l-2-8v-1l-1-3v-4l-4-7v-3l-4-6l1-4l-6-7l1-2l-3-7l3-5l0,0l-2-2v-6l-1-1l2-7
	l-6-1l-1-4l-5-3l1-7l10,1l3,4l4,2h2l3-3l3-6l0,0l-7-5l-1-1l-6-3l1-5l3-4h2l5-5h3h1l7-4l2-4L1198,275z"/>
<path fill="#0FA" d="M745,676l5-7l6,7l10-1l1-1l6-4l0,0l6,5l4-1l3,3h7l1-1l9,5l0,0l5,5v1l4,9h1l1,7l2,2l-1,4l2,6l-1,1v10
	l2,1l1,7l6,3l2,2v5l-2,4l1,3l-2,10l1,2v1l-4,6l-7,2l-4-5l-5-1l-3-3l-4-1h-1h-4l-5-6h-6l-1-3l-6-3h-3l-4-4l-4-1l-3-7l-10-2l-1,1h-2
	l-5,3l-3,1l-4,10l1,6v2l1,3v4v2l-1,8l-9,1l-1-1v-5l-3-3l1-4l-4-5h-3l1-6l-5-4v-2l-4-5v-2l-6-7l1-3l-3-5l-1-4l13-7v-1v-1l4-6l8-3l1-2
	l-2-11l3-2l6-1l3-9L745,676z"/>
<path fill="#C97" d="M714,110l2-7h9v4l9,3l1,1l6,1l1,1l7,1l2,2h2l4-1h4l5-1l7,2l8-2l1,1l4,1h3l6,2l3-1l6,1l4-3l7,3l5-1
	l4,3l6-2l1-4l6-2v-1l6-5h1l6,7l0,0l4,7h1l6-2l1-1l7-1l4,1l3-1l8,1l1-1h5v13l9-2l2,1l1,9l7,5l-1,2l-8,11l6,5l-1,2l-2,15h-1l1,6l-3,7
	l2,3v12v1l-1,10l2,3l-2,9l0,0l-5,12v1l2,1l6,13l-3,2h-6l-6-5h-8l0,0l-14,4l-5-3l-5,2l-5,3l-9-6l-9,5h-2l-5-9l-10,4l-3,6h-1l-14-8v1
	l-5,1l-9,4l-3-1l-11,7l-4-4v-6l0,0l-4-6l3-5l-1-2l-8-1l-3,2h-3l-2,1l-7-2l-4-6l-3-1l-6-5l0,0l-5-4v-6l1-4v-4l5-5l2-4l3-1l3-5v-1l2-5
	v-3v-1v-7l-2-4v-7l0,0l1-6l-10-8l0,0l-5-3l-7,1l-4-3l-5,1l-2-3h-7l-1-3l-5-4h-3l-1,1l-6-1l-3,2l-4-2l-6,2l-1,5v2l-5,8h-6l-2-1v-1
	l-1-1l-7-4l-7,1l-2-6l-1-2l1-6l-5-4l5-5h1l6,5h1h5l3-7l7,5l3-2l0,0l7-3l2-5l6-3l1-1l6-2l1,1l4-2l7,1l1,1h6l4-1v-1L714,110z"/>
<path fill="#19CFB9" d="M918,260l-7-8l2-9l2-2l10,2l2,7l11,5l2,7l6-1l6-13v-1l17-4l0,0l15-3h2l8,2l3-1l9-1l2-2l10-1
	l3,4l10-1l2-1h7l1-1l15,4l2,2v1l11,12l-1,4l-6,6v1l-6,8v1l11,8l-5,9l0,0v2l5,7l5,1l4,11l-2,2l-1,1l-5,5l-1,4l-5,2l-3-1l-4,2l-2-2
	l-6,3v5l-3,2l2,7l-1,2l1,3l5,4v1l5,5l-2,5l3,4v6v1l3,1l6,8l1,4l-3,3v1v4l-3,5l-2,1l-2,5l-3,1l-2,5l-3,2l-5-3l-1-4l-7-2l-4,2l-4-2
	l-5,1l0,0l-5,1l-3-2l-9,1l0,0h-8l-3,3h-7l-3,2l-4-1v-1l-7-1l-1-1v-10l5-3l-1-10l-11-4l-3-11l-4-1l-7-7l1-6l-10-7h-1l-7,5h-5l0,0
	l-1-9l-11-4l-4-4l1-3l3-4l-6-10l8-8v-7l-1-1v-10l-4-6l3-10l-2-2v-14L918,260z"/></g>
</svg>
