<?xml version="1.0" encoding="utf-8"?>
<svg width="1800" height="900" version="1.1" xmlns="http://www.w3.org/2000/svg">
<style type="text/css">#provs{fill-rule:evenodd;clip-rule:evenodd;}</style>
<rect id="frame" width="1800" height="900" fill="#332211" fill-opacity="0"/>
<g id="provs">
<g id="hm">
	<path fill="#2F9D5B" d="M625,473l9,6l5-8h5l6,9h1l5-4l2-5l10,1l3,5l1,1l-2,2l-5,5v1l3,6l8,2l0,0v5l-5,4l-1,5l1,2l3,2
		l1,2l-5,9h-3l-5,8l3,5h1l7-1l4,1l4-2l7,1l3-1l1-3l-2-5l3-3l9,3l1,2l-1,2v8h1l-1,5l5,5l-7,7v1l3,4l-8,11l-3-1l-6,6l-1,5l-7,3v14l7,3
		l2,2l1,9l0,0l-16,2l-2,7l-2,2l-6,2l-4-1l-3,1l-14-4l-5,2l-1,1h-7l-3-1l-5-13l-8-1l-2-8l-13-6l-1,1l-6,1l-7-9l-3-3v-2l7-8l-3-7l2-3
		l-2-10l2-3l13,1l1-7l-3-8l5-5l-5-13l-1-1l8-9l-5-6v-8l-2-2l1-7l10-2l4-10l-4-6l3-8l14,2V473 M727,524l-3,8l1,3v3l-4,2l-1,2l-8,3l-4-6l5-6l-1-4l2-2l3-1l4-4L727,524"/>
	<path fill="#23BE6E" d="M650,316l-1,1l-1,6l0,0v5l9,6l1-3l7-4l3,1l6-6l4,1l3-2l3-6l4-2l3-4l-1-9h-1h-7l0,0l-2,7l-8-3
		l-2,2l-8-3l-3,5h-2l-6,4L650,316 M688,332l1,11l2,3l3-1l9,14l-1,1l1,3l-4,6l7,13h1l1,7l8,7v7h3l9,9l-1,4l-5,2h-3l-6,5l-1,1l-1,6
		l0,0l-3,5v1h-6l-3,2l-7-3l-3,1l-2,3v8l-1,1l-2,6v1l-2,3l-6,5l0,0l-6,4l-2,5l-10-1l-2,5l-5,4h-1l-6-9h-5l-5,8l-9-6v-10l-14-2l-1-1
		v-4l3-6l1-1l-3-13l6-1l2-2h5l4-3l5,1l2-10l0,0v-6l-6-5l-2-3l-2-1l-2-5v-3l0,0l8-4l6,2l4-2l1-5l-1-2l4-7l-1-2l3-6v-2l2-4l-4-6l4-6h3
		l5-6h1l10-6l0,0h2l0,0l7-4l2-5L688,332 M585,387l-2,2l1,1l-2,8l4,5l5-1l2-4l0,0l8-1l0,0l8-5v-4l-7-3h-1l-5-1l-2-7l-9-3l-3,5L585,387"/>
	<path fill="#0D937E" d="M662,625l6-2l2-2l14,4l4-6l12,10l6-9l9,2l3-1l7,4l1,4l17-2l-2,6l2,5l-1,2l1,7l3,4l1,4l3,6v1v5
		v1v1l-5,7l-8,2l-3,9l-6,1l-3,2l2,11l-1,2l-8,3l-4,6v1v1l-13,7l-3-2l-4-8l-3-2l-2-2l-5-1l-6-4h-2l-6,4l-3,4l-2,1l0,0l-2,8l1,4l-3,6
		l1,2l-2,3l-1,1l-3,5l-3,1l-4-3l-5,1l-2-2l-4,1l-2-2l-7,3l0,0l-8,2l-3-2l-1-1l-1,1l-8-2l0,0l-9-1l1-7l7-4v-9l-3-3l12-13l7,3l2-16
		l-4-2l7-13l4,1l3-1l5-9l2-2l-3-13l8-7l1-2v-1l7-13l3-1L662,625 M706,648l5,2l3-1l3,1l5,8l-1,4l1,4v5l-4,3l-3,6l-10,1l-2,2h-1l-6-4
		h-1l-6-3l-2-7v-1l4-2l2-5l4-4l2-5l2-3L706,648"/>
	<path fill="#1BAB63" d="M571,592l-7-12l-7,8v8l-7,2l-4,9l-12-1l-1,6l-1,8l-1,2l-7,1l-4,10l3,6v3l3,6l-8,12l4,3l-1,14
		l-2,1l4,11l-4,4v1l5,10h2l7,1l3,4l-3,5l4,6l-1,4l3,6l-4,6v4l2,2l7,1l6-5l-1-5l-1-3l1-5l7-2l3-5l7,1l2,3l3,3v4l5,5l6,1v3l4,5l-1,2
		l4,7l4,1l5-2v-3l-2-7l2-5h1l1-7l7-4v-9l-3-3l12-13l7,3l2-16l-4-2l7-13l4,1l3-1l5-9l2-2l-3-13l8-7l1-2v-1l7-13l-14-4l-5,2l-1,1h-7
		l-3-1l-5-13l-8-1l-2-8l-13-6l-1,1l-6,1l-7-9l-3-3L571,592"/>
	<path fill="#338F63" d="M859,520l-8,5l-2,6l-4,2l-1,1l-2,6l-6,4l3,12l-5,5l-5,2l4,11l-12,7l-6-4l-5,10l-11,1l-4-2
		l-5,9h-6l-8-3l-5,10l1,1l8,4l1-1l8,3l2,3h1l7,4l1,4l5,3l2,3l3,1l1,1l3,1l2,3l3,1l4,5l1,6l2,3l5,1l3,2l6-1l5,3l7-4h2l5-2l5,2l1,1
		l8,2l4-1l2,1h2l5-2l2-5v-2l4-6l6-1l2,3l9,1l3-2l1-6l-5-4l-5-1l0,0l-2-9l3-4l7-2l3,4l5,1l2,3h2l14-9h1l5-8l6-6l0,0l-3-5l-5-3l5-15
		l0,0l8-10l-8-6h-4l-5-2v-2l7-10l-7-4l-2-3l-4-1l-3,1l-7-5l-3,7l-5-2l-6,4h-1l-6,4l-6-1l-2-4l6-8l3-1l2-1v-10l-1-2h-5l-4,3l-3-1
		l-6,4l-3-4l-7,2l-1,6l-2,1h-8L859,520"/>
	<path fill="#338E64" d="M745,676l5-7l6,7l10-1l1-1l6-4l0,0l6,5l4-1l3,3h7l1-1l9,5l0,0l5,5v1l4,9h1l1,7l2,2l-1,4l2,6
		l-1,1v10l2,1l1,7l6,3l2,2v5l-2,4l1,3l-2,10l1,2v1l-4,6l-7,2l-4-5l-5-1l-3-3l-4-1h-1h-4l-5-6h-6l-1-3l-6-3h-3l-4-4l-4-1l-3-7l-10-2
		l-1,1h-2l-5,3l-3,1l-4,10l1,6v2l1,3v4v2l-1,8l-9,1l-1-1v-5l-3-3l1-4l-4-5h-3l1-6l-5-4v-2l-4-5v-2l-6-7l1-3l-3-5l-1-4l13-7v-1v-1
		l4-6l8-3l1-2l-2-11l3-2l6-1l3-9L745,676"/>
	<path fill="#33935F" d="M837,513h8l2,1h8l4,5v1l-8,5l-2,6l-4,2l-1,1l-2,6l-6,4l3,12l-5,5l-5,2l4,11l-12,7l-6-4l-5,10
		l-11,1l-4-2l-5,9h-6l-8-3l-5,10l-10-1l-1,1h-4l-3,3l-2,1l-4,7l1,5l-2,6l-2,1l-1,2l-17,2l-1-4l-7-4l-3,1l-9-2l-6,9l-12-10l-4,6
		l-14-4l2-7l16-2l0,0l-1-9l-2-2l-7-3v-14l7-3l1-5l6-6l3,1l8-11l-3-4v-1l7-7l4-1l2,6l6,2l2,3l5,2l2,3l6,1l4-2l4,2l6-2l0,0l7-2l3-9v-1
		l4-6l7,1l3,2h5l4,3h6l2-1v-9l4-5h3l6,7l3,1l6-3l1-2l-1-3l2-6l-4-7l2-5l0,0h7l2,2l6-1l3-7l7,1L837,513"/>
	<path fill="#05A575" d="M736,492l-2-4l-4-3h-4l-3,4l-2,6v1l4,8h11l0,0v-2v-4V492"/>
	<path fill="#D3583A" d="M848,486l-5-1l-2,5h-5l-1,5l-5,1l-2,6v1l-1,5l2,3l7,1l1,1h8l2,1h8l4,5l7-4v-10l2-2v-2l-5-5l-8,1l-2-2v-2l-4-3L848,486"/>
</g>
<g id="mu">
	<path fill="#D63349" d="M389,467l-2-4l1-4l5-4l8,2l0,0l0,0l9-3l5,2v1l9,1l2,3l7-1l0,0h6l6,2l2,5v3l1,3l5,3l1,5l4,3l2,1
		l4,3h2l5,4l-1,5l1,5l-4,9v1v12l5,3v8v1l-5,10l2,8l1,1l1,2l-8,13h-1l-3,2l-11,2l-4-6l-13,6l-2-1l-10,7l-9-8l-5,2l-10-8l-5,3l-4-3h-3
		l-10,5v1l-7,3l-11-6l-6,5l-8-1l0,0v-14l3-4l-2-5l0,0l3-18l-4-2l1-11l2-2l4-5l-2-3l-2-13h2l4-3l3-1l5-6l2,1l7-4l0,0l8-4l4,3l6-2l2-7v-1L389,467"/>
	<path fill="#E5324A" d="M366,575l-11-6l-6,5l3,10l-7,3l-3,2l-2,9l1,1l4,15l-3,2l-2,8l1,4l-2,3l2,7l-4,7l4,5l-1,8l-3,2
		l2,11l7-3l5,5h5l2,2l6-1l4-6h2l5-2l2-4l3-1l4-4l6,1l3,4l6-1l4,4v7l-1,1l3,8v1l5,8h1l6,3l1,4l5,2l1,3v1l8,3v1l7,3l5-1l3-6l6-3l3,2
		l1,1v2l-1,6l-4,3l2,5l6,4l6,1l1-1v-6l3-6l2-1l2-5l5-4h1l6,3h6l3,4l1,3l1,2l6,3l7-3h4l2-1l1-2l5-3l2-3l-5-10v-1l4-4l-4-11l2-1l1-14
		l-4-3l8-12l-3-6v-3l-3-6l-10-1l-3-4h-8l-2-4l-14-1l-1-1l-11,2l-5-5v-8l-1-2l1-6l-6-8v-5l4-2l4-5l1-5l-6-8h-1l-3,2l-11,2l-4-6l-13,6
		l-2-1l-10,7l-9-8l-5,2l-10-8l-5,3l-4-3h-3l-10,5v1L366,575"/>
	<path fill="#C94553" d="M268,549l-3,6v3l-4,8l4,7h1h5l2-1h8h1l4-1l7-6l0,0l9-5h2h2l9,2l6-4l2,1l4,5l14-5v14l0,0l8,1
		l3,10l-7,3l-3,2l-2,9l1,1l4,15l-3,2l-2,8l1,4l-2,3l2,7l-4,7l4,5l-1,8l-3,2l2,11v1l3,7l0,0l5,5l1,5l4,2l4,6l-7,6l-3-1l-4-5l1-5l-9-5
		l-1-2l-2-1l-3-9l-6-2l-7,3l-4-2l-4,2l-7-2h-1l-7-5l0,0l-7-5h-2l-4,1l-3-3l-10,1v3l-8,4l-2-1l-2-3l-6-3h-1l-4-4l-9,1l-2,3l-2,1l-4-2
		l0,0l3-13h-1l-2-8l2-4l-5-6l-3,1l-6-3l-2-1l1-2l1-2h8l-1-6l4-1l2-6l6,1l4-6l-2-4l-6-2l-3-2v-4l-5-5v-3l-2-4l1-4l4-3v-4l4-4v-3l12-2
		l1,1l10-7v-2l-1-3l13-8h2L268,549"/>
	<path fill="#C95642" d="M293,448l-2,8l2,4v4v1v6v1l0,0l7,9h4l3-2h3l6,4l3-1l6,4l0,0l8,4l3,6h7h1l2,13l2,3l-4,5l-2,2
		l-1,11l4,2l-3,18l0,0l2,5l-3,4l-14,5l-4-5l-2-1l-6,4l-9-2l3-9l-4-4l3-5l-3-7l-8,1l-1-1h-8l0,0l-8-1l-3,1l-5-1l-2,1l-5,8h-2l-13,8
		l1,3v2l-10,7l-1-1l-12,2l-2-5l1-1l1-12l1-1v-5l8-3l0,0l2-6l-2-5l6-6l2,1l2,2l7-2l4,2l6-5l-5-7h-3l-1,1h-5l-5-4h-1l-5-4l-1-1l-5-3
		v-2l-4-3l-2-1l-3-3l-3-2l-2-2l1-5l-3-4l2-4h7l4-6h1l5-1l5,6l3-5l-1-4l3-4h2l3,1l1,1l10-3l0,0l8-2l0,0l9-3l1-1v-1l6-7h6L293,448"/>
	<path fill="#9549D2" d="M520,406l1-3l-2-6l-2-2l-7,1l-5,7h-2l-6,6l1,5l-4,2v1l3,8l-1,1v11h-2l-6,5v6l0,0l-3,7l1,4v1
		l7,4l0,0l9,5l6-3v-5l-1-3l2-8l4-1l5,4l1,3l3,6h1l3,1l4,3l6,1l2,2v7l5,6l6-5l1-5l-6-4l2-5l-4-5l-3-1l-4-6l2-3l3-1l5,1l5,5v2l3,3h5
		l4-2h6v-1l6-4v-1l-5-11l-3-1l-5,3l-4,1l-2-2l-3,1l-9-5l-1-4l1-3l0,0l-1-8l-8-3l-3,2l-3-2l-1-2l-5-5L520,406 M614,449l-3-13l-7-3h-1
		l-5,8l-2,2v2l1,4l-2,9l-6,1l-3,8l0,0v11l-6,3l-1,2h-5l-2-2l-5,1l-5-3l-3,2l-4,8l1,2l-5,10h-2l-1,2l-6,2l-2,2l-6-1h-4l-4-2l-9,1
		l-1,2l-6-1l-5,3h-1l-7,2h-1l-8,1l-5-3v-6l0,0l-1-10l-7-2l-4,1l-1,5l1,5l-4,9v1v12l5,3v8v1l-5,10l2,8l1,1l1,2l-8,13l6,8l-1,5l-4,5
		l-4,2v5l6,8l-1,6l1,2v8l5,5l11-2l1,1l14,1l2,4h8l3,4l10,1l4-10l7-1l1-2l1-8l1-6l12,1l4-9l7-2v-8l7-8l7,12l9-7v-2l7-8l-3-7l2-3
		l-2-10l2-3l13,1l1-7l-3-8l5-5l-5-13l-1-1l8-9l-5-6v-8l-2-2l1-7l10-2l4-10l-4-6l3-8l-1-1v-4l3-6L614,449 M512,526v1l-5,7l-1,1l-9-6v-5v-1l8-3L512,526"/>
</g>
<g id="vr">
	<path fill="#863EE9" d="M1160,123l-4-6l9-1l3,7h2l2,7v2l3,5l5,3l1,1l3,4h1l4,5l4,1l3-2l7,2l0,0l8-2l3,1l6-3l9,6l0,0h1
		l11-1l4,4h5l0,0h5l4-6l5,2l-1,4l4,5h2l3,6v1l8,6h1l8,7l0,0l5,6v1l-6,7l1,2l6,3l0,0l6,3l1,4l-6,6l0,0l-6,5l-1,1l0,0v10l5,3v4l5,3
		l1,5l4,2l1,6l-2,3l-8,1l-2-1l-5,1l0,0h-9l-6,3v1l-3,6l1,10l0,0l-4,1l-3,5h-4l-3,7h-7l-1,2l-1,3l-2,2l-1,2l-6,5l-7-2l-1,1l-3-1l-5-8
		l9-2v-6l3-5v-4v-2l-4-5l-7-2h-1l-7-2l-3-2v-2l-5-3l-1-3l-5-1l-3-6l1-3l-6-7l-3,1l-4,2l-5-1l-6,3h-2l-4-4h-8l-6-3l0,0l-6,3h-3l-6,4
		l-6-1l-3,1l-4-1l-2-2h-6l-3-5l6-6l3,2l7-1l-2-11l6-2l-1-13l0,0l-1-14l6-4l1-7l1-1l3-14l-1-2l1-2l-6-7l3-12l6-1l3-10h1L1160,123"/>
	<path fill="#B32ECF" d="M1198,274l2-2h2l10,5l0,0l3,2l-1,6l0,0l-2,7l4,4l-2,6l0,0l3,5v3l1,1l8,4l5-2l3,1l1,10l2,1v8
		l-1,2l4,7l4-1l4-8l2-1l5-1l2-1h7v1l4-1l5-1l5,4l4,12l-1,1l-7,1l-3,2l-1,4l4,8v2l1,1l8,1l4-6h5l6,8v1l-1,3l2,8l1,1l10,4v3l5,7l5-1
		l6,4l9,2l1,12l8-4l12,3l1-1l4,8l7,1l3-3l3,6l-2,8l-3,1l-5-2h-2l0,0l-4-4h-1l-7,3v1l-5,5h-1l-5,5h-1l-4,6l-5,1l-1-2l-9,5l-5-6h-2
		l-3,1v8l6,5l-4,5l-7-2l-2,1h-3l-4,4l2,6l-4,4v3l-1,3l-7-1l-3-5h-6l-3-3h-2l-4,1l-5-2l-4,1h-7l-3-2v-3v-2l7-6l7,2v1l10-2l1-1l1-5
		l-1-2l-1-4l-3-3l1-9l-5-2l-1-1v-2l-6-6l3-7l2-1l1-4l-2-3h-10l-1-2l-7-1h-1l-7-3l-5,2v1l-5,3l-1-1l-5,1l-3-1l-3,1l-6-2l-5,2l-5-6h-3
		l-3-4l-6-3l-2-8v-1l-1-3v-4l-4-7v-3l-4-6l1-4l-6-7l1-2l-3-7l3-5l0,0l-2-2v-6l-1-1l2-7l-6-1l-1-4l-5-3l1-7l10,1l3,4l4,2h2l3-3l3-6
		l0,0l-7-5l-1-1l-6-3l1-5l3-4h2l5-5h3h1l7-4l2-4L1198,274 M1287,500v4l3,2l6-1l2-8v-1l-4-3l-1,1L1287,500"/>
	<path fill="#A724E3" d="M1600,218l1-10l6,1l6-5h2l6,9l-2,2l-7,1l-2,3l1,9l0,0l8,2l4-2l6,7l1,1l6,7l2,1l7,8v4l-1,1v6
		l-2,3v3l1,1v8l1,1l-1,11h-1h-10l-3,10l4,3l1,2l5,4l1,6l-9,5h-2l0,0l-6-1l-1-1l-6-2l-2,1l-3-1l-6,3l-2,8l1,1l-2,7l1,3l-1,2l-7,5
		l-7-6v-2l-5-6l-5,2l-5-1l-2,1h-6l-2,2l2,7v1v4l-5,4l-1,6l-5,2l-1,6l5,4l0,0l7,1l1,5l-5,4l-4-1l-3,1h-1l-6-5l-5,1l-4-8h-3l-5,2l-2,6
		l-12-8l-1-3l3-5v-3l-1-2l-14,1l-2-3l1-7l-4-5l-11-1l0,0l-4-7l-7-4l1-6l-8-6l7-8v-3l-1-1l-10,1l2-10l4-2l1,1l8-2l1-4l-3-7l-5-2l-1-3
		l-5-6l2-4l6-3l1-4v-4l-7-1l-3-7l1-1l-7-6l7-6l5,2l5-1l1-5l10-3l2-4l12,8l4-2l5,1h1l4,1l6-3l4-9l6-4l5-1l3,4h15l0,0h16l0,0l7,1l2-3
		l8,3l3,4h4l4-5H1600 M1499,306l4,2l5,1l3-2h7l3-1h2l3-1l4,2l7-1l2-1l6-1l2,1l2-1l9,1l4,6l3,2l1,1v5v2l-2,7l-10,2l-2-1l-5,1v1l-6,6
		l-1,2l-3,5l-4,1l-2-1l-5-11l-8-2h-1l0,0l-5,1l-3-2h-7l-3-2l-5,1l-6-5v-3l-2-4l3-3l2-6L1499,306"/>
	<path fill="#9448FF" d="M1566,143l-3,4l-3,1l-5,7v2l7,5l4-1l4-6l7,3l-1,4l-4,2l1,4l-5,5l1,3l6,4v1l4,7l6,1l1,1l5,1
		l2,6l-4,5l5,6l-2,1v6l-4,4l-8-3l-2,3l-7-1l0,0h-16l0,0h-15l-3-4l-5,1l-6,4l-4,9l-6,3l-4-1h-1l-5-1l-4,2l-12-8l-2,4l-10,3l-1,5l-5,1
		l-5-2l-5-5h-6h-1l-6,1l-2-1l-5,1l-5-5v-6l2-2l2-1l7,2l5-3l1-6l0,0v-8v-1l1-7l-2-2l-1-6l3-5l-1-4v-1l-2-9l-2-1l-3-8l1-2l1-1l3-6v-1
		l2-2l6-3l3-1l4,3l1,2l7,4l1,1l3,3h3l5,6l6-8l1,1l3-2l6,2l4-2l6,3l0,0l7,2l3-1l3,2l8-2l1,1h5l5-6l3-1l2-8l2-1l2-5l2-2l0,0l12-5l3,1
		l0,0l9,1l2,4v4l-2,2l-7,3l-4-2L1566,143 M1603,194l5-8l6,5v1l7,5v1l6,4l1,6l-3,3l-4,2l-6-9h-2l-6,5l-6-1l-2-2l1-4l4-5L1603,194"/>
	<path fill="#8540E7" d="M1063,127l2-8h5l6,6l0,0l5,6l2,1l2,2l5,3l6-1l3-6l-1-4l4-7v-1l1-2l9-2l3,2l1-1l7,1h1l2,4h5
		l5,5l4,1l1,1l9,1l2,2l-3,10l-6,1l-3,12l6,7l-1,2l1,2l-3,14l-1,1l-1,7l-6,4l1,14l0,0l1,13l-6,2l2,11l-7,1l-3-2l-6,6h-7l-3,8l1,2
		l-4,8l-9,2h-1h-2l-3,3l-5,2l-3,5l1,3l5,7h1l2,2h7l0,0l3,4l5,2l4,5l5,2l1,1l7,5v1l-2,6l1,2l-2,7l1,5l2,1l8-1l4-5v-1l5-8l5,1l2,2v4
		l-5,4l2,7l1,1l3,4l3,1l5,7l1,1l2,3v4l3,3l1,10l-1,1l-2,8l1,2l1,4l5,5v8l2,1l1,10l3,1l1,4l4,3v3l6,6l2-1l4,10l-2,2l-5,1l-2,2l-6,3
		l-2,4l2,5v3l-5,6l-7-1l-1-1l-8-2l-2,1h-3l-4,2l-7-1l0,0l-7-1l0,0h-5l-3-3l-7-2l-1-2l-5-1l-5-7v-1l-5-7v-1l-2-3l-6-3l-2-4h-2l-4-6
		l1-6l4-4h2h1l1,1l10,3l0,0l5-11h4l7-5v-1l-3-5l-5-2h-1l-7-4l0,0l-6-2l-2-8h1l1-8v-2l-1-1l-2-10l-1-1l-1-5l2-5l-2-3l2-7l-11-2h-1h-5
		l-4-11l-5-1l-7,9h-2l-9-10h-3l1-11l-1-1l-3-9l1-3l-2-5l6-13l10,4v-19l0,0v-1l-2-2l-2-13l4-3l-2-6l4-8l-1-3l2-5l-7-9l3-4l2-13h5
		l6-14l-3-5l1-3l-13-9v-7l2-4l-1-2L1063,127 M1111,270l8-7l2,9h5l3,5h4l0,0v9l-3,2h-2l-5-6h-3l-4-6l-2-1L1111,270"/>
	<path fill="#FFCA30" d="M1377,250h-6l-1,4l-7,2l-1,2l1,5l-2,3l-1,4l4,3v3l8,7v5l-1,1l-7-1l-3-4h-9l-1,4l-3,1l-8,1
		l-1,1l-10,2l-1-1l-8,1l-2-2l-10,1l-2-4h-8h-1l-1,12l1,1l-1,7l-5,2l-3,4l-2,2v1l-8,4l-3,5l-2,2v1l5,4l4,12l5-1l2,1l5-1l4,1l3,6l-9,5
		v3l6,8v1l-1,3l2,8l1,1l10,4v3l5,7l5-1l6,4l9,2l1,12l8-4l12,3l1-1l4,8l7,1l3-3l3,6l-2,8l4,2l7-1l2,1h8h1l9,2l2-1l0,0h5l7-7v-4l3-5
		v-2l3-8h2l5-4l2-3v-1l5-7l1-3l4-7l2-1l6,3h4l3,3h3l6-2l1-2l7-3l4,1l0,0l7,3h4l1-1l7-1h2l5-1l2,1h2l4,1h1h9l4-3l2-4l0,0l-12-8l-1-3
		l3-5v-3l-1-2l-14,1l-2-3l1-7l-4-5l-11-1l0,0l-4-7l-7-4l1-6l-8-6l7-8v-3l-1-1l-10,1l2-10l-8-2l-1,1l-9-1l-2-4l-7-1l-2-2l-2-3l-3-2
		l-1-4l-3-3l-5-2l-4-6l-7-1l-3,4l-7,2l-3-4l-1-2l3-4l-2-8l-2-2l-1-1l-6-4h-5l-1-1h-5L1377,250 M1340,273l2-5l8,1l2,1l-8,7h-1L1340,273"/>
</g>
<g id="tg">
	<path fill="#F7D52F" d="M1413,455v1l-1,8l-1,1l-1,5l-1,2v3l-3,5v2l-3,6v2l5,3l1,8l-7,4l-2-1h-5l-5-3l-7,5l-2-1l-5,4
		l2,8l-4,7h-3l-3,2h-6l-3,2l-2,8l1,3l-6,6l-1,4l-3,2l-3,4l3,9v1l-1,1v10l-1,1v2l7,7v1l5,3l1,6l8,1h1h5l2,5l-3,8l1,1l-3,8l2,3v1l2,4
		l4,1l2,7l7-1l2,2l-2,5l4,6l5-1l2,1l8-1l3,3l4,1l4-5l-3-6l12-4l0,0v-2l3-5v-2l-1-1l1-8l-5-5v-3l3-4v-3h-1l-1-10v-1v-7v-1l0,0l5-6
		l5-1h2l5-4l5,1l4-3l2,1l7-3h1l7-4l3,1l8-3l0,0l7-1l3,6h1l3,5l1,1l9-5h1l-1-5l0,0v-10l-7-3h-1l-3-1l-1-6v-2l-3-8h-3l-7,6v-1l-1-8
		l3-3l1-3l4-2l3-7l-1-2l2-9v-2l0,0l-2-9l1-3l-2-10l-8,2l-2-1l-7-1l-2,1v10h1l5,6v2l-6,6h-2l-6,1l-3,3l-5-2l1-8l2-1l-2-8l3-3v-6l0,0
		l5-3l1-4l-4-7l-3-1l-5,3h-3l-2-2l-6,1l-4-6l-3-1l-3-3l-3-1v-1l-8-2L1413,455"/>
	<path fill="#DBC452" d="M1147,488l7-1l1,1l1,1l-4,6l-6-4L1147,488 M1128,499L1128,499l6-5l7,4v3v1l-1,1l-1,2l-8,4
		l-4-2l-1-1L1128,499 M1160,501l-2,6l0,0l-4,8l1,6v1l-4,3l-7-1l-2,2l-8,2l-1,2l-9,2l-4,4v2v2l2,3l6,2l5,6l1,3l-3,6l1,5v2v2l3,4l9,2
		l4-6h3l4-3l3-1l2-2h8l3-6l3-2l3-4l4-3l1-8l0,0v-2l8-9l3,1l8-5v-2l-2-5l1-4l-2-3l0,0l-2-5v-2l-3-7l-3-2l-1-1l-2,1l-6-1l-3,2l-6-3
		l-7,4l0,0L1160,501 M1248,528l8-5l6,3v1l-2,7l-3,3h-3l-7-5L1248,528 M1205,534l-3,3l1,7l8,2l3-6l-2-6h-1H1205"/>
	<path fill="#DADF3C" d="M1524,413v-1l-1-10l3-4l5-1l1-1l8-2l2,1l6-4l5,2l1,1l5,2l3,5h2l4,5v5l-2,3l2,6l1,2h7l4-3l3,1
		l7-4l1-3l5-2l2-2h1l5,5l-2,7h7l3,4h2l7,5l1,1l7,6v1l-3,7l-2,2l-10-4l-2-6l-3-1l-5-5l0,0l-3-3l-7,2l-4-2h-2l-1,1l-7,2l0,0l-9,1l0,0
		l-8-1h-1l-3,4l4,8l5-1h2l5,3l1,2l-3,6l-6,2l-1,9l0,0v9l-1,1h-3l-6,8h-4l-4-5l1-4l-6-7l-5,3l-1,1l-5,2l-1,2l-5,5h-3l-3,7h-4l-1,6h-5
		v5l-5,1l-3-9l-1-1v-1l1-7h1l3-6l2-1l5-9l-1-2v-4l5-2l3,5l5-4v-3l0,0v-8l6-2h1l8,1l1-1l6-1l1-1l2-1l4-7l-1-2l-8-2l-1,2h-6l-1,1l-8,3
		l-3-7l2-5l-2-4l1-5l0,0L1524,413"/>
	<path fill="#CB7C0C" d="M986,535l8,4l2-1l6,1l1-1h8l2-6h7l3-2h4l0,0l1,1l5,7l-4,5l4,6l-2,5v2l6,6l0,0l1,2l8,3l1,1
		l9,4l1,7v1v6l1,3v1l-2,3v5l-4,6l6,5l-1,4l-6,1l-4,6l3,4v2l3,5l1,5l-6,3v3l-9,4l7,7l6-2l4,1l4-2l0,0l10,6l-3,6l-4,3l-1,3l-5,1l-1,6
		l3,2l-2,5l2,4v4h-1l-1,4l-5,5h-5l-4,3l-5,1l0,0l-9,1l-4-3h-4l-2-2h-8l-6-5l-3-1l-3-3l-8-3v-1l-5-2h-8l-3,2l-4-1l-2-1h-6l-2-1l-1-2
		l-10-5l1-4l-5-5v-1l-3-3l-1-6l-2-2l-1-3l4-8l-1-1l-6-4h-2l-3-3l-1-2l-1-1l-1-8l-5-6l14-9h1l5-8l6-6l0,0l-3-5l-5-3l5-15l0,0l8-10
		l-8-6h-4l-5-2v-2l7-10l0,0l5,6l5-1l4,2h2l8,1l2,1h3l1-1h5l3-4l-1-9L986,535 M924,661l6,1l2,4v7l-4,3h-4l-4-2l-1-3v-6L924,661"/>
</g>
<g id="ukm">
	<path fill="#AE6D2D" d="M776,268l-5-3v-3l11-7l3,1l9-4l5-1v-1l14,8h1l3-6l10-4l5,9h2l9-5l9,6l5-3l5-2l5,3l14-4l0,0h8
		l6,5h6l3-2l7-3l7,8l-2,3v14l2,2l-3,10l4,6v10l1,1v7l-8,8l6,10l-3,4l-1,3l-7,9l-1,3l-13-7l-2,1h-6l-3,3l-15-2l-2,1h-1l-11-5l-4,4
		l-7,2l-7-3l-5-2l-4,4l-1,5l-10,3l-3-1l-4-8h-2l-4,1l-6,5h-2l-7-7l-11,4v1l-13,16v2h-2l-8,7l1,11l-6,3v5l-4,4l-1,9l-7,1h-1l0,0l-7,5
		l-9-9h-3v-7l-8-7l-1-7h-1l-7-13l4-6l-1-3l1-1l-9-14l-3,1l-2-3l-1-11l3-4l0,0l4-5l1-4l5-2l5,3l2-1h1h7l2,2l6-2l0,0l1-10l3-3l1-1l2-1
		h6l3-2l5,1l7-4l1,1l9-2v-1h8l1-1l3-8l0,0l3-6l-2-5l1-2V268 M664,276l2,3l7,1l3-3l8,1l2,5l2,1v5l2,4l-1,7h-7l0,0l-2,7l-8-3l-2,2
		l-8-3v-3l-3-6h-1l-5,1l-3-2h-6l-2-1l-3-6l5-6l2-5l1-1v-1l6-4h2l9,6V276 M753,287l-3,6l-10-1l0,0v-6l7-5l2,1L753,287"/>
	<path fill="#B1692D" d="M794,351h2l6-5l4-1h2l4,8l3,1l10-3l1-5l4-4l5,2l7,3l7-2l4-4l11,5h1l2-1l15,2l3-3h6l2-1l13,7
		l1-3l7-9l4,4l11,4l1,9l0,0h5l7-5h1l10,7l-1,6l7,7l4,1l3,11l11,4l1,10l-5,3v10l-6-1h-1l-8,2l-1-1h-6l-3-3h-5l-3-2l-5-1l-2-3l-8-2
		l-5,3h-1l-3,5h-1l-3,5l-1,1l-5,5l-1,3l-4,3l-1,3l-5,3l-1,3l-5,3l-2,5l4,4l1,7l1,2v3l-2,3l1,4l-3,5l1,2l-1,5l-8,7h-1l0,0l-8,1l-1,1
		h-7h-2h-2l-6-5l-1-3l-5-4v-1l0,0l-3-3l-7-2l-2,1l-8-8v-3v-1l1-5l-4-7l1-1l-7-9l-5,1l0,0l-10,4l-2-6l-7,1l-2-2h-5l-2-6l6-3l-2-5
		l-2-1l-3,1l-6-3l-1-4h-7l-2-2l-5,1l-5-3l-4,3l-9-2l0,0l-3-1l1-9l4-4v-5l6-3l-1-11l8-7h2v-2l13-16v-1l11-4L794,351"/>
	<path fill="#CE5E21" d="M918,260l-7-8l2-9l2-2l10,2l2,7l11,5l2,7l6-1l6-13v-1l17-4l0,0l15-3h2l8,2l3-1l9-1l2-2l10-1
		l3,4l10-1l2-1h7l1-1l15,4l2,2v1l0,0v19l-10-4l-6,13l2,5l-1,3l3,9l1,1l-1,11h3l9,10h2l7-9l5,1l4,11l-2,2l-1,1l-5,5l-1,4l-5,2l-3-1
		l-4,2l-2-2l-6,3v5l-3,2l2,7l-1,2l1,3l5,4v1l5,5l-2,5l3,4v6v1l3,1l6,8l1,4l-3,3v1v4l-3,5l-2,1l-2,5l-3,1l-2,5l-3,2l-5-3l-1-4l-7-2
		l-4,2l-4-2l-5,1l0,0l-5,1l-3-2l-9,1l0,0h-8l-3,3h-7l-3,2l-4-1v-1l-7-1l-1-1v-10l5-3l-1-10l-11-4l-3-11l-4-1l-7-7l1-6l-10-7h-1l-7,5
		h-5l0,0l-1-9l-11-4l-4-4l1-3l3-4l-6-10l8-8v-7l-1-1v-10l-4-6l3-10l-2-2v-14L918,260"/>
	<path fill="#C85E23" d="M714,110l2-7h9v4l9,3l1,1l6,1l1,1l7,1l2,2h2l4-1h4l5-1l7,2l8-2l1,1l4,1h3l6,2l3-1l6,1l4-3
		l7,3l5-1l4,3l6-2l1-4l6-2v-1l6-5h1l6,7l0,0l4,7h1l6-2l1-1l7-1l4,1l3-1l8,1l1-1h5v13l9-2l2,1l1,9l7,5l-1,2l-8,11l6,5l-1,2l-2,15h-1
		l1,6l-3,7l2,3v12v1l-1,10l2,3l-2,9l0,0l-5,12v1l2,1l6,13l-3,2h-6l-6-5h-8l0,0l-14,4l-5-3l-5,2l-5,3l-9-6l-9,5h-2l-5-9l-10,4l-3,6
		h-1l-14-8v1l-5,1l-9,4l-3-1l-11,7l-4-4v-6l0,0l-4-6l3-5l-1-2l-8-1l-3,2h-3l-2,1l-7-2l-4-6l-3-1l-6-5l0,0l-5-4v-6l1-4v-4l5-5l2-4
		l3-1l3-5v-1l2-5v-3v-1v-7l-2-4v-7l0,0l1-6l-10-8l0,0l-5-3l-7,1l-4-3l-5,1l-2-3h-7l-1-3l-5-4h-3l-1,1l-6-1l-3,2l-4-2l-6,2l-1,5v2
		l-5,8h-6l-2-1v-1l-1-1l-7-4l-7,1l-2-6l-1-2l1-6l-5-4l5-5h1l6,5h1h5l3-7l7,5l3-2l0,0l7-3l2-5l6-3l1-1l6-2l1,1l4-2l7,1l1,1h6l4-1v-1L714,110"/>
	<path fill="#C18211" d="M899,127l-9,2v-13h5l1-1l10-1l1-1l9,2l2,4h6h1h2l4-1l8,9l5,2h2l1-1l1-1l5-2l5-3h6l6-4h2l4-4
		l0,0l6,2l4-5l6,3l2-1l6,1l1,1l5,2l4-3l6,3l4-4h4l2,1l7-2l3,2h8l2-2h3l4,4l8-1l4,4l-2,8l-7,7l1,2l-2,4v7l13,9l-1,3l3,5l-6,14h-5
		l-2,13l-3,4l7,9l-2,5l1,3l-4,8l2,6l-4,3l2,13l-15-4l-1,1h-7l-2,1l-10,1l-3-4l-10,1l-2,2l-9,1l-3,1l-8-2h-2l-15,3l0,0l-17,4v1l-6,13
		l-6,1l-2-7l-11-5l-2-7l-10-2l-2,2l-2,9l-7,3l-6-13l-2-1v-1l5-12l0,0l2-9l-2-3l1-10v-1v-12l-2-3l3-7l-1-6h1l2-15l1-2l-6-5l8-11l1-2
		l-7-5l-1-9L899,127 M930,180h-1l-2,5l-7,2l-2-2l-4,2l-1,10l1,2l1,6l2,2l0,0l4,5l1,1l7,1h1l5,2l5-1l3,1h1l7-8v-2l2-2l1-6v-1l1-2
		l-4-7l5-4l-2-4l-3-1l-5,2l-4-2l-6,2l-1-1H930 M932,202l7,3l4-3l-2-5h-6l-3,4V202"/>
	<path  d="M762,433l-3,5v3l-2,4l-3,1l-8-5l2-5l1-1v-6l4-4h6l3,3V433"/>
</g>
<g id="al">
	<path fill="#1E2F40" d="M354,249v-7l4-2l7,6l5-5l6,2l2-2h7l2,1l1,9l-4,3l1,12l-3,3v6l0,0l-2,15l8,5l-11,13l2,6l-2,3
		l8,9l-2,6l2,5l0,0l-1,1l-6,1l-3,4l-9-3l-1,4l-6,3l-1,1l-5,2v1h-12l0,0l-2,1l-7-1l-5-6h-1h-3l-3-1h-6v-1h-7l-3-12l2-1l3-10l-4-6
		l-2-9l0,0l3-10l-1-3l-1-10l2-2v-11l9-1l3-8l8,3l8-4v-3l11-5l3,1L354,249"/>
	<path fill="#202C40" d="M333,211l1,4l-5,6l7,8h1v1l3,7l0,0l2,6v1l3,7l-11,5v3l-8,4l-8-3l-3,8l-9,1l-2-2l2-7l-3-4v-5l-3-2l-2-3l-1-1l-9-7l1-2l5-7h1h2l5-3l4-5l0,0l6-6v-1l4-5l4-1l4-6h6l4,6L333,211"/>
	<path fill="#1D432D"fill="#1D432D" d="M388,251l-4,3l1,12l-3,3v6l0,0l-2,15l8,5l-11,13l2,6l-2,3l8,9l-2,6l2,5l5-2l1-1l8-1l4,7l1,1
		l1-1l5,3h3l2-1l5,1l4-3l7,4l-1,4l3,5l4,1h3l4-10l0,0l1-10l0,0l-2-14l7-5l-3-11l9-5l3-5l-4-7l10-5l-4-7l1-3l-4-7l-6,1l-3-2l-6,1
		l-4-2l-5,1l-5-3l-1-3l-6-4v-1l-6-6h-6l-1-3l-6-4l-3,1l-4-3l-9,4L388,251"/>
	<path fill="#462C21" d="M459,294l-4-7l10-5h3l1,7h9l0,0l8,1h2h1l1,1l8,3l5-3l3,1l1,1v10l3,3v2l-2,3v2l2,2l3,11l-4,6
		l-3,1l-5,5l0,0l6,8l-2,4l3,4l-3,4v5l-5,5l0,0l-7-5v-3l-7-4l-2,1l-3,1l-1,4l-4,5l0,0l-7,1l-1-1l0,0l-7,8v1l-4,4l2,7l-7,4l-5-5l1-5
		l0,0l-2-8l1-1l-1-7l0,0l-1-7l-5-4l4-10l0,0l1-10l0,0l-2-14l7-5l-3-11l9-5L459,294 M531,352l2,2l1,3l2,1h7l4,7l-2,4l-3,2l-2-1l-6,3l-1-1l-10,1l-3-10l0,0l-1-9l-1-1v-4l8-7l5,5V352"/>
	<path fill="#361F37" d="M265,277l-6,4l-3-2l-5-1l-1,1l-6-2l-3,1l-3,6v3v1l4,7l-2,5l3,7h3l5,6l-1,4l-5,2v8l1,1l-1,6l8,7l2-2h7l3,1l4-1l4,4l6,1l6-2l6,5l1,3l3,2l10-2l1-7h1l-3-12l2-1l3-10l-4-6l-2-9l0,0l3-10l-1-3l-1-10l2-2v-11l-2-2l-5,1l-2-1h-3l-4-1h-3l-6-3l-3,2h-2l-4,4l-5,1L265,277"/>
</g></g>
</svg>
