<?xml version="1.0" encoding="utf-8"?>
<svg width="1800" height="900" version="1.1" xmlns="http://www.w3.org/2000/svg">
<style type="text/css">
	.long{fill:none;stroke:#000000;stroke-width:4;stroke-linecap:round;}
	.lat{fill:none;stroke:#000000;stroke-width:4;stroke-linecap:round;}
</style>
<rect id="frame" width="1800" height="900" fill="#332211" fill-opacity="0"/>
<line class="long" x1="0150" y1="900" x2="0150" y2="0"/>
<line class="long" x1="0300" y1="900" x2="0300" y2="0"/>
<line class="long" x1="0450" y1="900" x2="0450" y2="0"/>
<line class="long" x1="0600" y1="900" x2="0600" y2="0"/>
<line class="long" x1="0750" y1="900" x2="0750" y2="0"/>
<line class="long" x1="0900" y1="900" x2="0900" y2="0"/>
<line class="long" x1="1050" y1="900" x2="1050" y2="0"/>
<line class="long" x1="1200" y1="900" x2="1200" y2="0"/>
<line class="long" x1="1350" y1="900" x2="1350" y2="0"/>
<line class="long" x1="1500" y1="900" x2="1500" y2="0"/>
<line class="long" x1="1650" y1="900" x2="1650" y2="0"/>

<line class="lat" x1="0" y1="150" x2="1800" y2="150"/>
<line class="lat" x1="0" y1="300" x2="1800" y2="300"/>
<line class="lat" x1="0" y1="450" x2="1800" y2="450"/>
<line class="lat" x1="0" y1="600" x2="1800" y2="600"/>
<line class="lat" x1="0" y1="750" x2="1800" y2="750"/>
</svg>