<?xml version="1.0" encoding="utf-8"?>
<svg width="1800" height="900" version="1.1" xmlns="http://www.w3.org/2000/svg">
<style type="text/css">
	#land{fill:none;stroke:#000000;stroke-width:1;stroke-linecap:round;stroke-dasharray:5,5;}
	#sea{fill:none;stroke:#FFA200;stroke-width:1;stroke-linecap:round;stroke-dasharray:5,5;}
</style>
<rect id="frame" width="1800" height="900" fill="#332211" fill-opacity="0"/>
<g id="land">
	<path d="M390.7,532.5L390.7,532.5c0,0,4.7,21.5,9.3,25.5c4.5,3.9,13.1-1.2,17.6-0.6
		c4.3,0.6,6.4,4.1,9.4,3.9s4.4-3.7,8.8-5.3c4.7-1.8,14.7-5.9,18.9-4.8c4,0.9,3.3,7.1,6.3,10c3,3,6.6,5.4,11.7,7.5
		c5.4,2.2,15.7,5.4,20.2,5.4c4.1,0,4.6-1.7,6.7-4.5c2.3-3,2.7-9.9,6.3-13.3c3.6-3.5,11.2-4.1,15.3-7.5c4.1-3.5,6.1-11.4,9.4-13.3
		c3.2-1.8,5.9,2,10.1,1.5c4.3-0.5,10.5-5.8,15.6-4.7c5.2,1,11.9,9,15,11.2c2.7,1.9,0.8,2,3.6,2.4c3.2,0.4,13.4-2.7,15.8-0.4
		c2.4,2.3-4,11.1-1.3,14c2.8,3,12.3,2.5,18.6,3.5c6.3,1.1,14.7,3.2,19.1,2.9c4-0.4,4.3-2.8,6.9-4.4s5.9-2.2,8.7-5.2
		c2.9-3.1,7.1-10.1,8.6-13.5c1.3-3.2,0.3-6.8,0.3-6.8"/>
	<path d="M856.6,436.4L856.6,436.4c0,0-2.8,0.1-5.2-2c-2.6-2.3-7.3-9.3-10.1-12.1c-2.5-2.7-3.4-1.4-6-4.7
		c-2.8-3.7-8.5-12.7-10.5-17.5c-2-4.4,0.7-7.1-2.1-10.5c-2.9-3.6-12.2-8.6-16.1-10.4c-3.5-1.6-3.4,1.1-6.8-0.7
		c-3.8-2.1-10.8-9-15.3-12.1c-4.3-3-6.1-5.1-11.1-6.4c-5.2-1.3-16.1-2.5-19.9-1.1c-3.6,1.3-0.7,6.3-3.6,8.3
		c-3.1,2.2-9.4,3.1-14.9,4.1s-13.1,2-18.2,1.9c-4.8,0-8.4-2.3-11.5-2c-3.1,0.4-5,0.6-7.3,3.9c-2.5,3.5-3.8,13.1-7.1,17.9
		c-3.2,4.8-10.2,8.1-12.3,11c-1.9,2.5-1.2,2.5-0.7,5.7c0.5,3.5,3.5,11.2,4.1,15.4c0.5,3.8-0.5,5.9-0.7,8.9s1.8,6.6-0.8,8.9
		c-2.7,2.4-12.3,1.8-16.2,5c-3.9,3.1-4.9,9.7-7.2,14c-2.3,4.2-4.8,7.3-6.5,11.5c-1.7,4.1-3.1,9.2-3.7,13.4c-0.5,4,0,5.8,0.1,11.2
		c0.1,5.7-0.4,17.7,0.5,22.9c0.7,4.8,3.4,4.9,4.1,8.4c0.6,3.7-0.3,13.5-0.3,13.5"/>
	<path d="M1206.2,201.4L1206.2,201.4c0,0-8.5-2.6-13.5-3.5c-5.2-0.9-11.6-0.3-16.9-1.8
		c-5.2-1.5-10.2-5.4-14.6-7.3c-4.3-1.8-7-2.8-11.4-3.7c-4.4-0.9-9.7,0.4-15.2-1.5c-5.8-1.9-15.1-10.9-18.7-10.1
		c-3.4,0.8-0.1,11.2-3.2,13.9c-3.2,2.7-10.9,0.2-15.7,2.1c-4.7,2-9,6.5-12.8,9.6c-3.8,3-6.6,5.1-10.1,8.7
		c-3.5,3.7-6.8,10.6-10.7,13.3c-3.8,2.6-7.6,1.2-12.3,2.6c-4.8,1.5-15.9,2.9-16.4,6.5c-0.5,3.6,12.8,9.5,13.9,15.2
		c1.1,5.7-3.7,14.4-7.3,18.8c-3.4,4.4-8.9,7-13.4,8c-4.6,1.1-8.8,0-13.9-1.4c-5.2-1.5-13.1-8.5-17.1-7.5c-3.9,1.1-5.5,10.3-6.8,13.2
		c-1.2,2.7,0.7,1.5-1.3,4.5c-2.4,3.5-8.6,14.3-13.6,16.7c-4.8,2.3-10.2-2.3-15.6-2.1c-5.4,0.2-12.4,0.5-16.6,3.3
		c-4.2,2.8-6,13.9-8.8,13.7c-2.8-0.1-4.3-12-7.9-14.5c-3.6-2.4-8.3-0.8-13.5-0.6c-5.3,0.2-12.7,1.8-18.2,1.7
		c-5.4-0.2-9.9-2.7-14.4-2.6c-4.4,0-8.9,0.3-12.4,2.6c-3.5,2.3-5.5,8.5-8.3,11.1c-2.7,2.5-4,3.7-8.1,4.3c-4.4,0.7-12.5,0.3-18.2-0.7
		c-5.6-1-10.8-5.3-15.5-5.2c-4.7,0.1-8.4,3.6-12.6,5.4c-4.1,1.7-8.8,1.4-12.5,5.3c-3.8,4.1-9.1,14-9.9,19.4
		c-0.7,5.2,6.3,9.2,4.8,12.7c-1.5,3.6-14.1,8.5-14.1,8.5"/>
	<path d="M1034.7,230.2c0,0-6,4.9-9.3,5.1c-3.4,0.2-7-3.2-10.8-3.8c-3.8-0.6-8.2,2.4-12,0.3c-4-2.3-8.4-10.3-11.2-14c-2.5-3.5-5-7.8-5-7.8"/>
	<path d="M1027.9,272.2c0,0-5.9,5.7-6.5,10c-0.7,4.4,2.4,12.3,2.9,16.6c0.4,3.9,1.9,5.2-0.1,8.3c-2.1,3.3-13.4,11-13.4,11"/>
	<path d="M390.7,532.5c0,0-10.5,17.5-16,21.5c-5.2,3.8-11.6,0.4-16.4,2.6c-4.7,2-8,8.3-11.9,9.9
		c-3.7,1.6-6.3-0.2-10.6,0.1c-4.6,0.3-11.7,1.8-16.1,1.8c-4.3-0.1-7.3-1.9-10.4-2c-3-0.2-5.6-0.3-8.1,0.9c-2.5,1.1-4.7,4.1-7,6.1
		c-2.3,2-4.3,4.9-7,6.1c-2.8,1.2-6.4,0.9-9.6,1.3c-3.2,0.4-6.4,1.7-9.5,1.4c-3-0.3-5.8-4.1-8.7-3.3c-3.1,0.8-5.3,6.2-9.3,8.4
		c-4.1,2.3-15.3,5.2-15.3,5.2"/>
	<path d="M1063.4,221.1c0,0-4.5,8.8-3.7,13.4c0.7,4.6,5.4,10.4,8.4,14.4c2.9,3.8,8.3,5.7,9.3,9
		c1,3.3-1.4,7.1-3.2,10.7c-1.9,3.6-7.3,7.1-7.9,10.7c-0.7,3.6,1,10,3.7,10.7s10.2-9.2,12.8-7.2c2.6,2.1,1.1,14.9,2.3,20.2
		c1.2,5.1,2.9,8.5,4.8,11.5c1.9,2.9,4.4,5.2,6.6,6.3c2.2,1.1,4.6,0.4,6.8,0.6c2.2,0.2,4.6-0.2,6.7,0.5c2.1,0.8,2.6,3.4,5.7,3.9
		c3.3,0.5,10.1-0.1,13.8-1.2c3.5-1.1,6.4-2.9,8.1-5.2c1.6-2.2,1.7-8.1,1.7-8.1"/>
	<path d="M400,558c0,0-5.7,0.6-8.3,3.1c-2.8,2.7-4.3,9.2-7.7,12.8c-3.4,3.7-11,4.3-12.7,9
		c-1.8,4.8,1.1,13.9,2.6,19.9c1.4,5.8,6.6,10.4,6.1,15.5c-0.6,5.1-8.5,11.4-9.4,15.2c-0.8,3.5,0.5,4.4,3.2,7.1c3,3,11,7.7,15.1,10.3
		c3.7,2.4,5.8,3.3,8.6,5.1s7.9,5.5,7.9,5.5"/>
	<path d="M642.7,556.3c0,0,6.1,7,10.2,8.5c4.2,1.4,10.6-1.7,14.9,0s6.7,8,11.1,10.1
		c4.5,2.2,10.8,2.4,15.5,2.6c4.5,0.2,8.9-3,12.2-1.3c3.3,1.7,3.1,9.1,7.5,12c4.6,2.9,14.1,4,20.1,5.4c6,1.2,12,2.2,16,2.4
		c3.6,0.2,4.7-0.8,7.5-0.7c2.9,0.1,5.2,2.4,9.6,1.4c4.6-1.2,11.4-6.4,17.7-8.7c6.4-2.3,13.4-3.1,20.3-5.4c6.9-2.3,17.1-8.5,21.2-8.5
		c3.7-0.1,0.8,5.8,3.8,6.6c3.3,0.9,11.5-3.2,16-2.1c4.5,1.1,7.6,5.7,11.1,8.8c3.4,3.1,6,9,9.7,10c3.7,0.9,6.8-3.3,12.3-4.2
		c5.8-1,15.7-0.6,22.3-1.3c6.3-0.6,10.8-3.9,16.5-2.7c5.8,1.2,12.8,7.2,18.2,10.3c5.2,2.9,9.4,7.1,13.6,7.7
		c4.2,0.6,7.6-3.1,11.7-3.8c4-0.8,12.7-0.6,12.7-0.6"/>
	<path d="M373.8,640.6c0,0-4.5,10.3-8.8,12.8s-12.2,1.8-17.3,2c-4.9,0.2-9.6-1.2-13-0.9c-3.2,0.3-3.2,1.7-7,2.3c-4.1,0.6-12.4-0.2-17.3,1.1c-4.8,1.2-12.2,6.1-12.2,6.1"/>
	<path d="M782.7,338.8c0,0-8.8-6.9-10.5-11.2c-1.8-4.2-0.7-10.1-0.2-14.4c0.5-4.2,2-7.9,3.1-11c1.1-3,2.4-4.9,3.6-7.3s3.3-4.2,3.6-7.2c0.3-3.3-1.9-11.9-1.9-11.9"/>
	<path d="M358.3,556.6c0,0-0.7-3.2-3.5-6c-3.1-3-12-7.7-15.3-12.1c-3.3-4.2-1.9-9.1-4.8-13.5c-3-4.5-11.1-10.3-13.3-13.1c-2-2.5-1.5-1.6-0.8-4.1c0.8-2.8,6.3-12.8,6.3-12.8"/>
	<path d="M400,558c0,0,3.2-16.2,4-22.5c0.9-6,2.5-8.9,1.3-14.5c-1.1-5.9-10.5-14.4-8.5-20.1c2-5.7,18.4-10.6,20.9-14.3c2.1-3.2-4.5-3.4-4.4-6.9c0.1-3.7,5.6-15.1,5.6-15.1"/>
	<path d="M826.5,574.1c0,0,4.5-15.9,6-22.3c1.4-6.2,0.5-11.1,2.6-15.6c2.1-4.5,7.2-8.5,9.9-11.5c2.6-2.7,5.4-3.3,6.4-5.8c1.1-2.5-0.2-5.9-0.3-9c-0.1-3.1-0.4-9.4-0.4-9.4"/>
	<path d="M757.7,595.3c0,0-12.7-15.2-15.8-19.3c-2.8-3.6-1.5-4.6-3.4-5.5s-4.7,0.7-8.1,0.1c-3.6-0.6-12.9-4-12.9-4"/>
	<path d="M694.4,577.5c0,0,6.8,6.7,7.7,11.3c0.9,4.7-2.1,11.6-2.6,16.9c-0.5,5.2,0.9,10.6-0.6,14.7
		c-1.5,4-4.8,5.5-8.1,9.6c-3.5,4.3-8.4,11.9-12.7,15.9c-4.2,3.9-9.8,5.2-12.8,8.3c-2.9,3-5.1,5.9-5.3,9.9c-0.2,4.1,2.2,8.7,4.3,14.5c2.3,6,9,20.8,9,20.8"/>
	<path d="M846.3,578.6c0,0,9.1-12,13-14.2c3.6-2.1,4.9-0.7,9.6,0.2c5,1,16.2,5.2,20.2,5.8c3.4,0.5,1.5,0.9,4.2-1.4c3.1-2.6,11.2-10.8,14.7-15.5c3.3-4.5,3.4-9.8,5.9-12.3c2.4-2.4,8.7-2.7,8.7-2.7"/>
	<path d="M673.3,699.4c0,0,0.6-5,2.7-5.3c2.3-0.3,7.2,3.6,11,4.3c3.8,0.7,7.8-1,11.9-0.3
		c4.3,0.6,9,2,13.3,4c4.3,2.1,9.2,5.4,12.4,8.3c3.2,2.7,4.2,8.8,7,8.5c2.9-0.2,5.1-8.4,10.1-10.4c5.2-2.1,15.8,0.6,20.8-1.7
		c4.8-2.2,5.7-9.1,9.3-11.4c3.5-2.2,9,0,12-2.2c3.1-2.2,4.2-9.9,6.3-11.3c1.9-1.3,5.6,2.1,5.6,2.1"/>
	<path d="M780.4,275.8c0,0,7.6,4.1,9.9,1.9c2.5-2.4,4.2-10.8,4.4-16.5c0.2-5.7-3.8-13.3-3.1-17.6c0.7-4,6.8-4.3,6.8-7.7c0-3.5-7.5-8.2-7.6-13.1c0-4.9,4.7-11.9,7.5-16.2c2.7-4.1,7-6.3,8.9-9.2c1.9-2.9,2.8-8.2,2.8-8.2"/>
	<path d="M1115.9,173.5c0,0-8.2-5.8-10.3-10.4c-2.2-4.8-3.3-13.8-2.5-18c0.7-4,6.5-7.2,6.5-7.2"/>
	<path d="M961.7,603.4c0,0,3.9,5.9,4.7,10.7c0.8,5.1-0.8,14.6,0,19.2c0.6,4.2,2,4.7,3.9,8
		c2.1,3.5,6.3,8.2,8.5,12.8c2.3,4.8,2.7,11.6,4.9,15.4c2.1,3.7,5.4,5.4,8.1,7.4c2.6,2,5.3,3.1,7.9,4.7c2.6,1.6,5.7,3.7,7.9,4.7
		c2.1,0.9,5.3,1.2,5.3,1.2"/>
	<path d="M320.6,507.8c0,0-11-4.2-16.3-7.1c-5.3-3-10.4-9-15.5-10.8c-5-1.8-9.8,1.8-14.7-0.2c-5.1-2.1-10.2-12.8-15.3-12.3c-5.1,0.5-12.7,11.2-15.2,15.6c-2.4,3.9-0.7,9.7-0.7,9.7"/>
	<path d="M405.4,661.5c0,0,0.3,3,2.7,5.7c2.6,2.9,8.4,8.5,13.4,11.4c5.1,2.9,12.2,4.5,16.9,5.8c4.4,1.2,7.4,0.2,10.5,1.8c3.2,1.6,6,6,8.5,7.9c2.3,1.8,4.7,1.3,6.1,3.2c1.4,1.8,2.5,5.6,2.2,8c-0.3,2.3-4.1,6.3-4.1,6.3"/>
	<path d="M682,425.1c0,0,5.6-9.9,9.2-10c3.7-0.2,12,6.4,12.9,9.2c0.9,2.7-6.7,7.2-6.7,7.2"/>
	<path d="M499.6,569.6l15.2,10.2"/>
	<path d="M1206.2,201.4c0,0,6.5,6.9,10.8,10.9c4.5,4.1,10.9,10.6,15.8,13.6c4.6,2.8,10.6,0.3,12.7,4.2c2.3,4.2,0.9,14.9-0.1,20.8c-1,5.7-5.7,9.6-5.7,14.3c0,4.6,4.8,10.4,5.4,13.7c0.6,3-1.3,6-1.3,6"/>
	<path d="M731.6,718.9c0,0-2.3,14.2-2,18.8c0.3,4.2,3.1,5.8,3.2,8.4c0,2.5-2.5,3.6-3,6.8c-0.5,3.4-0.3,10.6,0.2,13.5c0.5,2.6,2.5,4.1,2.5,4.1"/>
	<path d="M634,561.5c0,0-4,7.9-3.8,13.1c0.2,5.4,4.5,13.8,5.2,19c0.7,4.9,0.2,8.2-0.6,11.5c-0.9,3.2-2.3,3.9-4.4,8.2c-2.3,4.8-4.9,14.7-8.9,19.8c-4,5-10,7.6-15,10.8c-4.8,3.1-10.1,6.3-14.4,8.1c-4.3,1.7-11.4,2.8-11.4,2.8"/>
	<path d="M660,664.1c0,0-11.4,9-16.4,9.1c-4.8,0-9.4-9.1-13.1-8.4s-5.5,8.4-9.2,12.6
		c-3.6,4.2-7.2,8.5-12.7,12.5c-5.6,4.1-16.1,9.6-20.8,11.5c-4.2,1.7-3.2,0.8-7.2,0.5c-4.5-0.4-16.4-4.8-19.3-2.8
		c-2.9,1.8,1.2,13.5,1.2,13.5"/>
	<path d="M690.8,630c0,0,13.8-3.4,18.4-3.4c4.3,0,4.8,2.2,9,3c4.4,0.9,14.2,0.4,17.1,1.9c2.6,1.4,0.9,4.2,1,6.3c0.1,2.2-0.6,6.7-0.6,6.7"/>
	<path d="M798.3,206.6c0,0-14-10.5-19.6-14.4c-5.3-3.7-8.8-4.5-13.3-8.5c-4.5-4.1-11-11.8-13.6-16.1
		c-2.5-4-0.7-6.4-2.6-9.2c-2-2.9-8.8-4-9.5-7.9c-0.8-4,5.9-10.6,5.5-16c-0.4-5.5-5.1-12.8-8-16.5c-2.6-3.5-5.7-4.3-8.5-5.6
		c-2.7-1.3-8-2.3-8-2.3"/>
	<path d="M530.6,535.5c0,0-4.4-9.9-6-12.4c-1.5-2.3-1.6-1.1-3.4-2.8c-2.1-1.9-8.9-8.3-8.9-8.3"/>
	<path d="M826.5,574.1c0,0-19.1-0.9-22.5-4.5c-3.3-3.4,2.4-12.7,1.7-16.1c-0.6-3.2-3.2-2.7-5-4.5s-5.7-6.5-5.7-6.5"/>
	<path d="M1129.5,324.6c0,0,1.2,2.8,1.9,7c0.8,4.6,1.6,13.7,2.6,20.7s4.3,17.1,3.4,21.2c-0.9,3.8-5.7,1.6-7.7,3.9c-2.2,2.3-4.3,5.7-4.8,10c-0.6,4.5,2.4,11.5,1.8,16.5c-0.6,5.1-3,11.4-5.3,13.9c-2.2,2.4-8.1,1.5-8.1,1.5"/>
	<path d="M1010.8,318.1c0,0-7-6-10.3-4.7c-3.4,1.4-5.9,10.2-9.8,13.4c-3.9,3.3-10,2.5-13.7,6.1c-3.7,3.7-5.7,11.5-8.4,15.9c-2.5,4.3-5.2,5.2-7.2,10.3c-2.2,5.4-3.4,16.9-5.3,21.7c-1.7,4.4-4.3,4.3-5.3,7c-1.1,2.8-1,9.6-1,9.6"/>
	<path d="M698,375.1c0,0-15.7-0.4-21.4,0.6c-5.3,1-7.7,4.9-11.9,5.3s-13.2-2.8-13.2-2.8"/>
	<path d="M1010.8,318.1c0,0,4.6,14,6.8,20.8c2.2,6.7,3.6,14,6.3,19.6c2.8,5.4,5.8,9.5,10.2,13.2c4.4,3.7,12.7,5.8,16.3,8.9c3.4,2.9,4.5,6.1,5.4,9c0.8,2.8,0.3,5.7-0.3,8.2c-0.6,2.3-2,4.8-3.4,6.2c-1.3,1.3-4.6,2.1-4.6,2.1"/>
	<path d="M983.7,669.5c0,0,9.1,3.2,14.2,2.4c5.2-0.8,12.7-2.8,16.8-7.2c4.1-4.6,4.7-14.3,7.7-19.9c2.9-5.5,6.6-11.6,10-13.5c3.2-1.8,10,1.6,10,1.6"/>
	<path d="M810,189.2c0,0,2.4,5.6,5.6,9c3.2,3.5,8.1,9.5,14,12c6.1,2.5,17.6,0.5,22,2.7c4,1.9,1,7.2,4.5,8.9c3.7,1.7,17.8,0.9,17.8,0.9"/>
	<path d="M986.4,210c0,0-13.3-6.2-15.2-10.4c-1.9-4.2,0.1-10.4,3.2-14.9c3.3-4.7,11.8-8.8,16.3-12.8c4.2-3.8,6.1-4.9,10-10.6c4.2-6.1,14.6-25.9,14.6-25.9"/>
	<path d="M773.4,360c0,0-13.7,14-14,19.1c-0.2,4.9,10.9,7.9,11.5,11c0.5,3.1-7.2,7.7-7.2,7.7"/>
	<path d="M974.4,602.8c0,0-2.1-9.9-1.5-13.9c0.7-3.9,4.3-5,5.3-9.7c1-5.1-1.4-15.8,0.2-20.1c1.5-4,6.2-4.1,8.6-5.6c2.3-1.5,3.8-2.7,5.6-3.5c1.7-0.8,4.9-1.2,4.9-1.2"/>
	<path d="M974.4,184.7c0,0-11.8-1.3-15-2.9c-3-1.5-3-2.9-4.3-6.4c-1.4-3.8-0.4-12.5-3.8-16.4c-3.4-4-16.6-7.2-16.6-7.2"/>
	<path d="M846.3,578.6c0,0-1.3,4.5-1.8,8.3c-0.5,4.1-3.9,10.7-1.1,15.8c3,5.3,14.8,11,19.4,15.6c4.3,4.3,4.6,9.2,7.8,11.4c3.2,2.2,11.1,1.8,11.1,1.8"/>
	<path d="M773.4,360c0,0-3.9-2.8-5.9-5.2c-2.1-2.5-4.2-7.2-6.5-9.8c-2.2-2.5-7-5.5-7-5.5"/>
	<path d="M894.6,299.2l5.9,10.9"/>
	<path d="M1199.4,390.6L1199.4,390.6c0,0-2.4,6.2-0.5,8.2c2,2.1,9.2,3.8,12.8,4.2c3.4,0.4,5.9-1,8.5-1.5
		c2.5-0.5,4.6-0.9,6.9-1.4c2.3-0.5,5.1,0.5,6.9-1.4c1.8-2,0.9-7.2,3.7-10.6c2.9-3.6,9.1-6.1,13.8-10.5c4.8-4.5,12.9-11.4,14.7-16.3
		c1.8-4.6-3.3-9-3-12.3c0.3-3,2.5-5.2,4.7-6.8c2.1-1.6,5.4-1.7,8.1-2.6s5.7-1.1,8.1-2.6c2.5-1.7,4.8-5.6,6.7-7
		c1.7-1.3,2.9,0.2,4.3-1.6c1.6-1.9,2.6-8.3,4.7-10.2c2-1.9,5.1-1.1,7.4-1.5c2.2-0.4,3.4,1.8,6.2-0.7c3.1-2.7,8.2-13.8,12-16.7
		c3.5-2.8,6.9-1.6,10.1-1.3s6.3,3.3,9.2,2.9c2.9-0.4,6-3.2,8.4-5.2s4.1-6.8,6-7c1.9-0.2,2.4,4.4,5.4,5.4c3.2,1.1,8.4-0.4,13.6,0.5
		c5.5,0.9,13.1,4.5,18.7,5c5.3,0.4,9.6-0.6,14.1-1.9c4.6-1.3,9-5.4,13.2-6c4-0.6,8.1,1.8,11.5,2.3c3.2,0.4,5.5-0.1,8.3,0.7
		c2.9,0.8,5.8,3.2,8.8,4.3c2.9,1,5.9,0.5,8.9,1.9c3.1,1.5,6.4,6.9,9.2,6.8c2.9-0.1,5.1-4.2,7.8-7.3c2.8-3.2,5.5-7.7,8.9-11.7
		s6.5-9.2,11.5-12.2c5.2-3.1,15.9-1.6,19.2-5.8c3.3-4.1-0.7-13.4,0.8-18.8c1.4-5.3,5.3-8.9,7.7-13.1c2.2-4.3,5.5-6.9,6.2-12.4
		c0.6-5.8-1.4-15.7-2.9-21.8c-1.4-5.9-5.6-14.4-5.6-14.4"/>
	<path d="M1263.2,349c0,0-4.5-2.9-6.5-4.6c-2-1.7-5.6-5.4-5.6-5.4"/>
	<path d="M1518.2,270.7c0,0-1,11.7,0.3,15.9c1.3,4.2,4.4,7,7.1,9.4c2.7,2.3,6.5,4.3,9,4.8c2.5,0.4,4.2-1.1,6.3-1.7s3.8-1.9,6.2-1.7c2.4,0.2,5.2,2.2,8.2,2.9c2.9,0.6,9.6,0.9,9.6,0.9"/>
	<path d="M1237.7,388.1c0,0,9,2.7,12.2,5.6c3.1,2.9,3.4,9.6,6.5,11.7c3.2,2.1,10-0.9,12.4,1c2.3,1.9,0.7,7.2,1.7,10.1s2.7,4.8,4.1,7.1c1.4,2.3,1.3,5.6,4.1,7c3,1.4,13.9,1.1,13.9,1.1"/>
	<path d="M1378.1,294.6c0,0,15.7-0.9,17.4-3.7c1.5-2.7-7-9-7.3-12.5c-0.3-3.4,6.1-5.3,5.2-8.4c-0.9-3.4-9.4-8.4-11.2-11.2c-1.6-2.6,0.1-5.7,0.1-5.7"/>
	<path d="M1499,276.5c0,0-9.9-9.5-12.1-13.4c-2.1-3.6-1.3-9.3-1.3-9.3"/>
	<path d="M1251.1,339c0,0-4,8.1-6.8,8.4c-2.9,0.3-8.3-3.7-10.3-6.5c-2-2.7,0.1-6.4-1.9-10
		c-2.1-3.8-7.6-9.9-11-12.3c-3.2-2.3-7.1-0.5-8.9-2.2c-1.9-1.8-1.5-5.5-2.2-8.2c-0.7-2.7-0.8-5.4-2.1-8.1c-1.4-2.7-3.5-5.4-6.1-8
		c-2.7-2.7-9.8-7.9-9.8-7.9"/>
	<path d="M1292.6,431.7c0,0,10.8,4.7,14.4,4.1c3.5-0.5,4.2-4.2,7.1-6.9c3-2.9,5.4-7.4,10.9-10.1
		c5.7-2.8,17.9-6.2,23.4-6.2c5.1,0,6.7,4.1,9.4,5.5c2.5,1.2,4,1.5,6.1,2.3c2.1,0.8,3.8,1.7,6.2,2.4c2.4,0.7,5.2,1.5,8.3,1.8
		c3,0.2,6.3,0.7,10-0.5c3.9-1.3,12.9-7.6,12.9-7.6"/>
	<path d="M1470.8,307.7c0,0-12.1,7.9-15,13.7c-2.8,5.8-4.1,16.6-2,21.1c1.9,4.3,11.9,2.5,13.4,5.9s-3.1,9.7-4.3,14.5c-1.3,4.8-3,14.2-3,14.2"/>
	<path d="M1335.5,298c0,0-2.7,7-2,11.3c0.8,4.5,2.8,13.1,6.9,15.3c4.1,2.1,14.4-3.9,17.6-2.5c3.1,1.4,0.5,5.6,2.2,10.1c1.7,4.8,5.4,15.1,8.6,18.2c3.1,3,10.2,1.1,10.2,1.1"/>
	<path d="M1530,204.6c0,0,14,5.7,19.8,7.5c5.5,1.7,11.8,1.6,14.1,3.3c2.1,1.6-1.2,4.6,0.1,6.5
		c1.5,1.9,5,4.6,8.7,5.1c3.7,0.5,10.2-2.8,13.5-2.5c3.1,0.4,3.4,4.2,5.9,4.2c2.6,0,7.5-2.4,9.7-4.7c2.2-2.3,2.9-5.5,3.8-8.9
		c0.9-3.4,0.3-8.8,1.8-11.6c1.5-2.7,6.9-5.2,6.9-5.2"/>
	<path d="M1601.8,224c0,0,1.9,6.8,3.7,8.8c1.8,1.9,4.9,1.9,7.3,2.9c2.4,1,4.8,1.3,7.4,2.8c2.5,1.6,4.9,4.6,7.9,6.6s10,5.2,10,5.2"/>
	<path d="M485.7,349.1L485.7,349.1c0,0,1.7-4.4,0.2-8.4c-1.5-4.4-6.3-12.7-10-17.7
		c-3.7-5-8-13.1-11.9-12.6c-4.1,0.4-7.5,12.5-12.1,15.4c-4.5,2.8-10.4,2.4-15,2c-4.5-0.4-7.6-3.1-12.2-4.2c-4.6-1-10.8-3-15.5-2
		c-4.7,1.1-9.1,7.3-12.6,8.2c-3.2,1-4.5-2.3-7.7-1.8c-3.3,0.5-7.5,3-12,5.1c-4.6,2.1-11.7,6-15.5,7.7c-3.4,1.5-4.4,2.1-6.7,2.3
		c-2.2,0.2-6.8-1.1-6.8-1.1"/>
	<path d="M361.4,340.8c0,0-11.7-7.9-15.8-12.7c-4.1-4.7-6.6-10.3-8.9-15.9c-2.3-5.7-4.2-13.9-4.8-18.2
		c-0.6-3.9,0.7-3.5,0.7-7.4c0.1-4.3,0.3-12.9-0.7-18.1c-1.1-5.1-4.8-9.5-5.5-12.9c-0.7-3.2,1.6-4.9,0.9-7.3
		c-0.7-2.4-2.7-4.1-5.3-7.1c-2.8-3.3-11.1-12.1-11.1-12.1"/>
	<path d="M332.6,286.6c0,0-9.4,1.4-12.6,1c-3.1-0.4-2.8-4.3-6.6-3c-4.2,1.5-13.2,12-18.6,13.1
		c-5.1,1-9.1-5.3-13.1-5.9c-3.9-0.5-7,2.2-10.7,2.2c-3.6,0-7.9-1.1-11.2-2.2c-3.2-1.2-5.7-3.3-8.3-4.7s-7.2-3.5-7.2-3.5"/>
	<path d="M451.9,325.8c0,0-7.7-9.9-10.9-15c-3.2-5.2-8.2-15.8-8.2-15.8"/>
	<path d="M326.4,255.6c0,0,11.8,1.1,16.6,1.1c4.6,0,8.7,0.7,11.5-1.2s2.6-9.3,5.3-10c2.6-0.7,10.6,5.8,10.6,5.8"/>
	<path d="M271,294c0,0-13.8,8.6-16.2,12.8c-2.3,4-0.6,9,1,11.9c1.6,2.9,6.2,3.3,8.3,5.5c2,2.2,4,7.9,4,7.9"/>
	<path d="M667.8,293.4L667.8,293.4c0,0,1.7,5.6,1.5,8.2c-0.3,2.5-1.4,4.5-2.8,6.9c-1.5,2.6-5.9,8.1-5.9,8.1"/>
	<path d="M514.9,400L514.9,400c0,0-0.6,9.1-1.2,14c-0.6,5.1-1.8,12.4-2.3,16.1c-0.4,3.3-1.7,3.4-0.6,5.9c1.2,2.6,5.3,6.5,8,9.7c2.7,3.2,5.5,7.4,8,9.8c2.3,2.2,4,3.2,6.6,4.5c2.8,1.2,8.1,0.9,9.5,2.9c1.4,1.8-1,8.3-1,8.3"/>
	<path d="M1567.1,449.8L1567.1,449.8c0,0-9-7.7-10.3-10.9c-1.2-3,2.9-6.4,1.9-8c-1.1-1.6-5.4-0.2-8.4-1.7c-3.2-1.6-8.2-7.3-10.4-7.9c-2-0.5-2.9,3.5-2.9,3.5"/>
	<path d="M1360.1,573.8L1360.1,573.8c0,0,3.6-4.3,7.5-5.7c4.1-1.6,13.7-0.2,17.2-3.1
		c3.5-2.7,0.7-12,3.9-13.5c3.1-1.5,10.5,4.8,15.2,4.5c4.5-0.3,7.7-6.4,12.4-6c4.8,0.4,11,5.8,15.9,8.8c4.9,3,9.6,8.2,13.4,9.2
		c3.5,0.8,5.7-2.1,8.6-3.1c2.9-1,5.4-2.3,8.6-3.2c3.2-0.8,7.3-1.2,10.9-1.8c3.6-0.6,7.8-1.2,10.9-1.8c3-0.6,7.5-1.9,7.5-1.9"/>
	<path d="M1416.3,550c0,0,2-7.7,2.9-11.7c1-4.1,2.4-8.9,2.5-12.7c0.1-3.8-3-6-1.7-10
		c1.5-4.3,11.8-11.8,10.8-15c-1-3.3-13.2-2.6-16.5-4.8c-3.1-2-3.6-5.4-3.7-7.7c0-2.4,2.1-4.2,3.1-6.3c1-2.1,2.3-4.1,3.1-6.2
		c0.7-2.2,1.5-7,1.5-7"/>
	<path d="M1388.7,551.5c0,0-4.5-13.8-5.3-18.7c-0.7-4.6,0.2-6.7,0.4-10.1c0.2-3.4,1-10.4,1-10.4"/>
	<path d="M1432.2,558.8c0,0-14.7,0.1-18.2,3.1c-3.4,3-1.9,9-2.6,14.6c-0.6,5.8-2.2,14.2-1.1,19.9c1,5.5,7.2,9.1,7.4,13.9c0.2,4.9-6.4,10.9-6.3,15.1c0.1,4.1,6.7,6.9,6.5,10.1c-0.2,3.2-7.5,9.2-7.5,9.2"/>
	<path d="M1131.8,535.9L1131.8,535.9c0,0,2.3,4.2,4.1,6.3c1.8,2.3,4.1,6.7,6.9,6.9c2.8,0.2,7.4-2.6,9.8-5.6c2.4-3.2,2.5-9.5,4.4-13.1c1.8-3.6,6.2-6,6.7-8.6c0.5-2.6-4.1-4.9-3.3-7c0.8-2.2,8.4-5.7,8.4-5.7"/>
</g>
<g id="sea">
	<path d="M651.6,536L651.6,536c0,0,0,0,3.2-1.2c3.2-1.1,9.6-3.4,14-4.3c4.4-1,6.9-0.6,9.3-0.3
		c2.4,0.3,4.9,0.6,6.8-1c1.9-1.7,3.3-5.3,5.5-6.8c2.2-1.5,5.3-0.8,8.4-0.2c3.1,0.6,6.1,1.2,7.6,3.2c1.4,2,1.1,5.4,0.9,8.8
		c-0.2,3.4-0.4,6.7,1.3,9.2c1.6,2.5,5.2,4,8.3,5.5c3.1,1.5,5.7,2.8,8.3,4.1c2.6,1.3,5.2,2.6,8.2,3.2c2.9,0.5,6.2,0.4,9.5,0.2
		c3.3-0.1,6.6-0.3,8.6-2.4c2-2.2,2.7-6.4,5.2-9.4c2.4-3.1,6.7-5,10.1-5.4c3.5-0.4,6.1,0.6,9,0.2c2.8-0.3,6-2,8.9-4.3
		c2.9-2.3,5.7-5.1,8.5-7.9s5.8-5.4,7.6-8c1.8-2.6,2.5-5.1,5.1-6.7c2.6-1.5,7-2,10.1-2.9c3-0.8,4.7-1.9,6.2-4.2c1.5-2.2,3-5.7,4.8-8
		c1.8-2.3,3.9-3.6,6.1-5.1c2.2-1.4,4.3-3.1,6.5-4.8c2.2-1.7,4.3-3.4,6.5-3.3c2.1,0,4.3,1.8,6.4,3.6c2.2,1.8,4.3,3.6,6.9,4.4
		c2.5,0.8,5.4,0.5,8.4,2.1c3,1.7,6.1,5.2,6.7,8.5c0.6,3.2-1.3,6.1-1,8.2c0.3,2,2.7,3.3,5.2,4.6c2.4,1.3,4.9,2.5,7.2,2.6
		c2.2,0,4.3-1.3,6.4-2.5c2.1-1.2,4.2-2.5,6.8-2.8c2.5-0.2,5.6,0.5,11.5,3.3c5.8,2.9,14.6,7.8,26.9,10.8s28.2,4,37.8,4.5
		c9.6,0.4,12.8,0.4,20-1.1c7.1-1.5,18-4.4,25.4-5c7.4-0.6,11.2,1.1,14.9,7.2c3.6,6.1,7.2,16.6,10.2,22.9s5.4,8.4,8.3,10.8
		c2.8,2.4,6.1,5.1,8,8c1.9,2.9,2.5,6.1,3.1,9.2c0.6,3.2,1.3,6.3,1,11.2c-0.3,4.8-1.6,11.3-1,20.4c0.6,9,2.9,20.7,4.6,29.3
		c1.7,8.7,2.7,14.4,2.3,22c-0.3,7.5-1.9,17-3.6,22.4c-1.6,5.4-3.3,6.8-5,8.2s-3.3,2.8-5.5,4.2c-2.1,1.5-4.6,3-7.2,4.5
		c-2.6,1.5-5.2,3-7.9,3.8c-2.8,0.7-5.7,0.8-8.7,0.8s-6,0-9.4-0.4c-3.4-0.5-7.2-1.5-16-3.9c-8.7-2.4-22.5-6.3-51.9,4
		c-29.5,10.3-74.7,34.8-98.8,47.8c-24.1,12.9-27.2,14.3-30.2,15.6c-3,1.3-6,2.6-10.6,2.3c-4.6-0.4-10.8-2.4-15.3-3.7
		c-4.4-1.3-7.1-1.9-18.1-0.3c-10.9,1.5-30.1,5.2-41.7,7.2c-11.5,2-15.4,2.3-28.2-3.5c-12.9-5.8-34.6-17.7-53.9-21.5
		c-19.2-3.7-35.9,0.8-45.9,2.9c-10,2.1-13.2,1.9-16.5,1.7c-3.2-0.2-6.5-0.4-15.9-2c-9.4-1.6-25-4.7-34.3-6.4c-9.2-1.8-12-2.2-14.2-4
		c-2.2-1.8-3.7-5.1-7.6-9.4c-3.9-4.3-10.3-9.7-15.3-12.3c-5-2.5-8.7-2.2-14-1c-5.3,1.2-12.1,3.3-16.6,5c-4.5,1.6-6.7,2.8-9.8,3
		c-3,0.2-6.9-0.4-9.7-1.7c-2.8-1.2-4.6-3.1-8.4-5.5c-3.9-2.4-10-5.5-14.8-7.6c-4.9-2.1-8.7-3.4-11.7-4.4c-2.9-1.1-5.2-2-14.6-3.5
		c-9.5-1.5-26.2-3.6-36.5-4.1c-10.3-0.6-14.2,0.4-18.1,1.3c-3.9,0.9-7.8,1.9-10.5,1.2c-2.7-0.7-4.2-2.9-7.2-5.9s-7.5-6.7-10.3-10.2
		c-2.7-3.5-3.7-6.7-6.2-7.7c-2.4-1-6.4,0.3-9.7,1c-3.3,0.7-5.8,0.8-9.5-0.3c-3.6-1.1-8.3-3.3-14.8-5.3c-6.5-2.1-14.8-3.8-20.9-4.3
		c-6.1-0.4-9.9,0.5-14,0.7c-4,0.2-8.3-0.2-11.1-1.1c-2.8-0.8-4.3-2-6.8-2.6c-2.6-0.6-6.2-0.6-9.2-1.8c-2.9-1.2-5.2-3.7-7.9-10
		c-2.7-6.3-5.9-16.5-7.8-22.8c-1.8-6.3-2.4-8.8-1.9-10.8c0.6-2.1,2.2-3.9,4.7-5.8c2.4-1.9,5.7-4,6.9-8s0.3-9.9-1-14.4
		s-3.2-7.7-4.1-10.5c-1-2.9-1.1-5.4-0.1-12.5c0.9-7,2.9-18.6,6.3-26.5c3.4-8,8.3-12.4,11.1-16.4c2.7-4,3.5-7.5,4.2-11
		c0.7-3.5,1.5-7.1,1-9.6s-2.3-3.9-4-5.4c-1.7-1.5-3.5-2.9-5.5-4.4s-4.2-3.1-6.5-4.6c-2.2-1.5-4.4-3-5.7-5.2
		c-1.2-2.2-1.5-5.2-1.7-8.1c-0.3-2.9-0.5-5.8,1.1-8.1c1.7-2.2,5.3-3.8,8.7-5.7c3.5-2,6.8-4.3,9.5-5.7s4.6-2,6.5-3.4
		c1.8-1.5,3.6-3.8,5.1-22c1.5-18.2,2.7-52.3,8.8-68.4c6.1-16.1,17-14.4,24-12.9c7,1.4,10.2,2.6,14,2.3c3.9-0.3,8.5-2.1,14.3-2.7
		c5.7-0.6,12.6,0,17.5,0.5s7.7,1,10.6,1.5s5.7,1,8.1,0.7c2.4-0.4,4.3-1.5,5.1-4.6c0.9-3,0.8-8.1,0.7-10.6l-0.1-2.5"/>
	<path d="M1063.4,574.1L1063.4,574.1c0,0,0,0,7.8-5.5c7.7-5.5,23.2-16.4,31.1-23
		c7.8-6.6,8.1-8.8,9.6-11.3c1.6-2.5,4.4-5.1,7.3-8.5c2.9-3.4,5.9-7.6,8.7-9.8c2.9-2.3,5.7-2.6,8.5-3c2.8-0.4,5.5-0.8,7.7-1.7
		c2.1-1,3.6-2.6,5.1-4.2s3-3.2,4.4-5.3c1.4-2,2.6-4.5,5.2-6.6c2.6-2.1,6.4-3.9,10.8-4.8c4.3-0.9,9-0.9,12.5-1.4
		c3.5-0.4,5.6-1.3,14.4-4c8.9-2.7,24.4-7.4,33.3-9c8.8-1.5,11.1,0,14.5,1.3c3.4,1.3,7.9,2.4,14.3,6.4s14.7,10.9,19.7,13.3
		c5,2.3,6.6,0,8.3-2.3c1.6-2.3,3.3-4.6,5.5-6.8c2.1-2.2,4.9-4.2,6.3-6.5c1.3-2.3,1.3-4.9,2.6-7.7c1.3-2.9,4-6,6.6-7.9
		c2.7-1.9,5.4-2.5,10-5.1c4.5-2.7,11-7.5,19.2-11.8c8.2-4.4,18.2-8.3,24.5-10.2c6.2-1.8,8.7-1.6,11.2-1.3c2.5,0.3,5,0.5,7.7,0.9
		c2.6,0.3,5.4,0.8,8.2,1.2c2.8,0.4,5.6,0.8,8.1,1.5c2.5,0.6,4.7,1.5,6.8,1.8c2.1,0.3,4.3,0,6.5,0.6c2.2,0.6,4.4,2,6.7,3.1
		s4.7,1.9,7,2.6c2.4,0.7,4.7,1.4,9.1,3.6c4.4,2.1,10.7,5.7,15.5,7.4c4.9,1.8,8.1,1.9,14.9,4c6.9,2.1,17.2,6.3,22.8,10
		c5.6,3.8,6.3,7.1,7.1,10.5c0.8,3.4,1.5,6.7,2.5,10.3c0.9,3.6,1.9,7.5,2,10.3c0,2.8-1,4.6-1.6,9.2c-0.5,4.6-0.6,12,0.1,17.5
		c0.6,5.6,1.9,9.3,1.4,13c-0.6,3.8-2.9,7.5-4,9.4l-1.2,1.9"/>
	<path d="M219.5,596.4l15.3-3.9"/>
	<path d="M1169.1,489.6L1169.1,489.6c0,0,0,0,0.8-5.4c0.8-5.5,2.4-16.3,3.9-23.2
		c1.6-6.9,3.1-9.9,4.6-12.8c1.5-2.9,3-5.8,5.3-9.7c2.3-3.9,5.4-8.9,6.8-13c1.3-4.1,0.7-7.5-1-10.7c-1.8-3.3-4.8-6.5-7.1-9.3
		c-2.3-2.9-3.8-5.4-5.3-8s-3.1-5.1-3.8-8.1c-0.8-2.9-0.7-6.3-1-9.5c-0.2-3.3-0.8-6.6-1.4-9.8c-0.6-3.3-1.2-6.5-1.9-10.2
		c-0.7-3.7-1.4-7.9-1.9-11.1c-0.6-3.2-0.8-5.4-1.1-7.7c-0.3-2.3-0.6-4.6-1.9-6.9c-1.4-2.3-3.8-4.7-6.3-7.1c-2.4-2.4-4.9-4.7-6.7-6.6
		c-1.8-1.8-2.9-3.1-4.8-4.5c-1.9-1.5-4.5-3.1-5.7-3.9l-1.3-0.8"/>
	<path d="M348.4,357.1L348.4,357.1c0,0,0,0,1.9-0.3c2-0.3,6-0.9,12.6-2.6c6.5-1.7,15.7-4.5,23.3-5.7
		c7.7-1.1,13.7-0.7,17.8-0.1c4.1,0.5,6.2,1.1,8.3,1c2.1-0.1,4.3-1,6.6-0.6c2.4,0.4,4.8,2.1,7.3,4.4c2.5,2.3,5.1,5.1,7.6,8
		c2.5,2.9,5.1,5.8,6.5,8.5c1.4,2.8,1.8,5.4,1.8,7.7c0,2.4-0.2,4.5,0.5,7c0.8,2.5,2.7,5.5,5.4,7s6.2,1.5,8.9,0.1
		c2.6-1.4,4.4-4.3,7.4-7.1c3-2.9,7.3-5.7,10.5-7.5c3.3-1.8,5.4-2.5,7-3.8c1.5-1.4,2.5-3.4,3.4-5.4c0.9-2,1.9-4,1.9-7.1
		c0.1-3.1-0.6-7.3-1-9.4l-0.4-2.1"/>
	<path d="M418,709.2L418,709.2c0,0,0,0-0.5-1.1c-0.5-1.1-1.5-3.2-2.5-5.4s-2-4.4-3.6-6.7
		c-1.6-2.4-3.8-4.9-5.9-7.6c-2-2.7-3.9-5.6-5-9c-1-3.4-1.3-7.4-0.4-10.5c1-3.1,3.2-5.3,4.3-6.3l1-1.1"/>
	<path d="M1147,316.2L1147,316.2c0,0,0,0,1.1-0.9c1-0.8,3.2-2.4,6.3-4.3s7.2-4.2,10.2-5.9
		c3.1-1.8,5-3.2,5.4-4.8c0.4-1.7-0.8-3.7-1.4-5.3c-0.7-1.5-0.7-2.6,0.3-4.8c1-2.2,3.1-5.6,5.1-8.2c1.9-2.5,3.7-4.2,5.6-5.3
		c1.8-1.1,3.8-1.5,6.1-3.1c2.3-1.5,4.9-4.2,8.3-5.8c3.4-1.6,7.6-2.2,10.5-1.5c2.9,0.7,4.4,2.8,6.4,4.2s4.4,2.3,6.1,4.4
		s2.8,5.4,2.6,8.4c-0.2,2.9-1.6,5.5-1.5,8.2c0,2.7,1.5,5.6,3,8.5s3,5.8,5.7,7.1c2.7,1.3,6.6,1.1,9,2.8c2.4,1.8,3.3,5.5,4.2,9.2
		c0.9,3.7,1.8,7.4,3.7,10.7c1.9,3.3,4.6,6.3,6,7.8l1.4,1.4"/>
	<path d="M289.8,678.4l8.4-14.4"/>
	<path d="M485.2,367.7L485.2,367.7c0,0,0,0,1.1,0.2c1,0.1,3.1,0.5,4.7,1.8c1.7,1.3,2.8,3.6,6,7.1
		c3.2,3.4,8.4,7.9,13.1,9.9c4.7,2.1,8.9,1.6,12-0.1c3.1-1.7,5.2-4.7,8-6.2c2.8-1.5,6.4-1.5,9.6-2c3.2-0.4,6.1-1.3,12.5,1.4
		c6.4,2.6,16.4,8.8,21.6,13.4c5.1,4.6,5.4,7.6,7.4,10.1c1.9,2.6,5.6,4.5,8.8,4.4c3.2-0.2,5.9-2.6,8.7-4.9c2.7-2.3,5.5-4.7,8-6.4
		c2.5-1.7,4.7-2.7,7-3.7s4.5-2.1,8.6-4c4.2-2,10.2-4.8,13.5-7.6c3.4-2.8,4.1-5.5,4.8-8.2c0.7-2.7,1.4-5.4,2.1-8.3
		c0.6-2.9,1.1-5.9,2.4-8.4c1.2-2.4,3.2-4.4,5.3-6.8c2.1-2.4,4.4-5.3,6.7-8.2c2.3-2.9,4.6-5.8,7.4-7.5c2.9-1.7,6.3-2.2,9.7-2.7
		c3.4-0.5,6.8-1,9.6-2.6c2.7-1.6,4.8-4.4,6.9-7.1c2.1-2.7,4.1-5.4,6.7-6.8c2.5-1.3,5.4-1.2,8.1-1.1s5.1,0.3,7.3-1
		c2.2-1.2,4.3-3.7,6.5-6.5c2.3-2.7,4.7-5.7,7.4-7.3c2.6-1.5,5.4-1.8,8.7-1.9c3.3,0,7.1,0.1,10.7-0.2c3.6-0.4,7.1-1.4,10.5-2.3
		c3.4-0.9,6.9-1.9,9.1-4c2.3-2.1,3.4-5.5,5.6-8.1c2.3-2.6,5.7-4.4,7.4-5.4l1.7-0.9"/>
	<path d="M248.9,352.4L248.9,352.4c0,0,0,0-0.8-1.9c-0.7-1.8-2.1-5.5-3.6-9.2c-1.4-3.7-2.9-7.4-3.2-10.4c-0.3-3.1,0.5-5.5,1.3-7.9c0.8-2.4,1.6-4.8,0.4-7.9c-1.2-3-4.3-6.8-6.3-11.9c-2.1-5.2-2.9-11.8-1.4-15.3c1.4-3.5,5.2-3.9,7.1-4.1l1.9-0.2"/>
	<path d="M245.1,454.5L245.1,454.5c0,0,0,0,6-1.8c6-1.8,18-5.5,25.4-7.8c7.5-2.4,10.5-3.4,13.2-3.2c2.8,0.2,5.3,1.8,7.3,5.2c2,3.5,3.4,8.9,8.1,14.6c4.6,5.7,12.5,11.7,16.6,17.3c4.2,5.7,4.7,10.9,5,13.6l0.2,2.6"/>
	<path d="M447.1,392.8L447.1,392.8c0,0,0,0-5.5,9.1c-5.5,9.2-16.5,27.5-20.6,37.1c-4.2,9.7-1.4,10.7-0.6,13.5c0.8,2.8-0.4,7.5-0.9,9.8l-0.6,2.3"/>
	<path d="M725.2,553l-7.7,13.6"/>
	<path d="M722.9,781.6L722.9,781.6c0-0.1,0-0.1-0.2-1.4c-0.3-1.3-0.8-3.9-1.3-6.6
		c-0.5-2.7-1-5.4-2.1-8.6c-1-3.2-2.6-6.9-4.2-9.9c-1.5-3.1-3.1-5.4-4.6-7.8c-1.5-2.3-3-4.7-5-7.2c-2.1-2.5-4.7-5.2-6.6-7.6
		c-1.9-2.5-3-4.6-4.2-6.8s-2.3-4.3-4.1-6.1c-1.8-1.7-4.2-3-6.6-4.3s-4.8-2.6-6.6-5.2c-1.7-2.7-2.9-6.7-3.5-8.7l-0.6-2"/>
	<path d="M934,529L934,529c0,0,0,0-1.4,0.5c-1.4,0.4-4.1,1.4-6,3c-1.9,1.6-3,3.8-3.5,4.9l-0.5,1.1"/>
	<path d="M827.9,773.4L827.9,773.4c0,0,0,0,1.1-1.7c1.1-1.6,3.2-5,4.3-8.8c1-3.8,1-8.2,1.3-11.5
		c0.4-3.3,1.2-5.7,1-8.8c-0.3-3.2-1.6-7.1-4-12.7c-2.3-5.5-5.8-12.5-7.9-17.9c-2.1-5.3-2.8-9-4-12.5s-2.8-6.8-4.5-10.1
		c-1.6-3.3-3.3-6.6-5.8-8.8c-2.5-2.1-5.9-3.2-8.3-2.4c-2.5,0.7-3.9,3.3-4.7,4.6l-0.7,1.2"/>
	<path d="M708,524L708,524c0,0,0,0,1.6-2.1c1.6-2.2,4.8-6.6,6.6-10.3c1.7-3.8,2.1-6.9,2-9.9c-0.1-3-0.6-5.8,1.3-6.8c1.8-1.1,6-0.5,8-0.1l2.1,0.3"/>
	<path d="M657.1,341.2L657.1,341.2c0,0,0,0-1-1.5c-1-1.4-2.9-4.3-5.1-6.1c-2.1-1.8-4.5-2.4-6.1-4.6c-1.7-2.2-2.6-6-2.4-9.3c0.2-3.4,1.5-6.5,4.7-6.9c3.2-0.5,8.3,1.7,10.8,2.7l2.6,1.1"/>
	<path d="M578.6,394.7L578.6,394.7c0,0,0,0,1.9-0.8c1.9-0.8,5.6-2.4,7.5-3.2l1.9-0.8"/>
	<path d="M1242.8,330.1L1242.8,330.1c0,0,0,0,0.8-0.8c0.9-0.9,2.6-2.6,5.5-4.3s7.1-3.5,10.4-4.3
		c3.2-0.9,5.7-0.9,7.9-1.3c2.3-0.3,4.4-1,7.3-2.6c2.8-1.6,6.4-4.2,8.9-6.5c2.6-2.2,4.1-4.1,5.4-7c1.3-2.8,2.5-6.6,3.6-10.3
		c1.1-3.8,2.3-7.5,3.9-9.2c1.6-1.7,3.8-1.3,6.6-0.4c2.8,0.9,6.4,2.2,9.8,2.9c3.5,0.7,6.8,0.8,10.2,0.8c3.4,0.1,6.8,0.1,10.5-0.5
		c3.7-0.6,7.7-2,10.6-3.7c2.9-1.8,4.7-4.1,5.8-7.1c1.2-3.1,1.7-7,2.6-9.9c1-3,2.5-5.1,4-7.2c1.5-2.1,3-4.1,6-6.2
		c3.1-2,7.6-4.1,11.2-4c3.5,0.1,6,2.3,7.3,3.5l1.2,1.1"/>
	<path d="M1490.6,474.5L1490.6,474.5c0,0,0,0,1.5-0.6c1.5-0.7,4.6-2.1,7.5-4.6c3-2.5,5.9-6.1,8.3-8.7s4.4-4.1,6.8-5.7c2.4-1.6,5.4-3.3,7.3-5.4s2.8-4.6,2.8-7.1c0.1-2.6-0.7-5.2-1.5-7.9c-0.8-2.6-1.6-5.3,0.7-6.9s7.6-2.2,10.3-2.5l2.7-0.3"/>
	<path d="M1345.3,283.3l-0.6,17.6"/>
	<path d="M1403.3,443.4L1403.3,443.4c0,0,0,0,0.3,2.8c0.3,2.8,0.9,8.5,1,12.5s-0.4,6.4-0.9,8.8
		s-1,4.8-1.7,7.3s-1.6,5-5.9,9.4c-4.4,4.4-12.1,10.6-16.8,16.2c-4.7,5.5-6.2,10.3-8.3,13.3s-4.7,4.3-7.3,5.5
		c-2.6,1.3-5.2,2.5-6.9,4.5c-1.8,1.9-2.7,4.6-4.4,8.1c-1.6,3.6-4.1,8.1-6,11.3c-2,3.2-3.6,5.1-4.4,7.8c-0.9,2.8-1.2,6.3,2,10.3
		c3.1,3.9,9.6,8.2,12.9,10.4l3.2,2.2"/>
	<path d="M1374.8,246.4L1374.8,246.4c0,0,0,0,1.3-1.1c1.3-1.1,3.9-3.3,13.8-9.6
		c9.8-6.3,27-16.8,35.3-20.9c8.4-4.1,7.9-1.8,7.5,0.5c-0.4,2.3-0.9,4.6-0.4,7.3c0.4,2.7,1.8,5.9,4.2,8.4s5.9,4.3,8.9,5.2
		c3,0.8,5.5,0.7,8,0.5s4.9-0.4,6.3,1c1.3,1.5,1.6,4.5,2.4,7.2c0.8,2.7,2,5,3.3,7.4c1.3,2.4,2.5,4.7,5.9,5c3.4,0.2,8.8-1.7,11.6-2.6
		l2.7-0.9"/>
	<path d="M1013.8,707.5l-0.9-20"/>
	<path d="M590.4,409.8L590.4,409.8c0,0,0,0-3,4c-3.1,4-9.2,11.9-11.6,17.4c-2.4,5.4-1,8.4,0.7,11.1
		c1.8,2.6,3.9,4.9,4.3,7.6c0.3,2.7-1.1,5.7-4.4,8.2c-3.3,2.5-8.5,4.6-12.2,5.7c-3.7,1.2-5.9,1.4-8.1,1.7c-2.2,0.3-4.4,0.5-6.8,1.5
		c-2.3,0.9-4.9,2.6-6.1,3.4l-1.3,0.8"/>
	<path d="M238.6,510.3l4.3-7.6"/>
	<path d="M477.5,728.9L477.5,728.9c0,0,0,0-0.3-1.8c-0.3-1.9-0.9-5.5-3.6-8.4c-2.6-2.9-7.3-5-9.6-6.1l-2.4-1"/>
	<path d="M689.6,520.3L689.6,520.3c0,0,0,0-1.2-3.7c-1.1-3.6-3.4-11-4.8-16.1c-1.4-5.1-2-8-3-10.1
		s-2.4-3.5-2.5-5.6c-0.2-2.1,1-5.1,1-7.6c0-2.6-1.3-4.8-0.9-6.6c0.5-1.8,2.6-3.1,4.8-4.4c2.1-1.3,4.3-2.7,6-4.8c1.7-2,3-4.9,3.9-8.1
		c0.9-3.3,1.3-6.9,2-10.6c0.7-3.7,1.6-7.4,2.1-9.3l0.4-1.9"/>
	<path d="M1185.3,274.7l6.7,9.5"/>
	<path d="M1177.1,397.5l22.3-6.9"/>
	<path d="M1237.3,308L1237.3,308c0,0,0,0,1.1-0.6c1.2-0.5,3.5-1.5,5.8-2.6c2.3-1,4.6-2.1,6.6-3.8c2.1-1.8,3.9-4.2,2.7-7s-5.5-6-7.6-7.6l-2.1-1.5"/>
	<path d="M1286.6,494.7L1286.6,494.7c0,0,0,0,1,0.8c1.1,0.9,3.2,2.6,4.2,3.4l1,0.9"/>
	<path d="M707.3,534.2L707.3,534.2c0,0,0,0,2-0.3c1.9-0.3,5.8-0.9,7.8-1.2l1.9-0.3"/>
	<path d="M548.7,376.3L548.7,376.3c0,0,0,0-1.5-2.2c-1.6-2.1-4.6-6.4-6.1-8.6l-1.5-2.1"/>
	<path d="M734.6,780.6l-2.1-10.1"/>
	<path d="M588,757.9L588,757.9c0,0,0,0-0.8-1c-0.7-1-2.2-3.1-3.7-5.2c-1.5-2.1-2.9-4.1-4.3-6.1c-1.4-2-2.7-3.8-4-5.7c-1.3-1.8-2.7-3.7-4.1-5.4c-1.5-1.8-3.1-3.4-4.7-5c-1.6-1.6-3.2-3.2-3.9-6c-0.6-2.9-0.3-6.9-0.2-8.9l0.2-2"/>
	<path d="M694.7,442.7L694.7,442.7c0,0,0,0,1.5,0.1c1.4,0.1,4.3,0.4,7.2,0.6c2.9,0.2,5.8,0.5,8.1-0.2c2.3-0.7,4-2.4,9.1-3.5c5.1-1.2,13.5-1.7,18.2-3c4.6-1.3,5.4-3.3,7.4-3.8c1.9-0.4,5,0.6,6.6,1.2l1.5,0.5"/>
	<path d="M770.2,281.4L770.2,281.4c0,0,0,0,0.6-1.7c0.5-1.6,1.7-4.9,0.8-7.8c-0.9-3-3.9-5.5-5.7-8
		c-1.9-2.5-2.6-5-3.1-7.4c-0.4-2.3-0.5-4.6-1.7-5.9c-1.2-1.3-3.6-1.8-7-2.2c-3.4-0.5-8-1-11.4-2.4c-3.4-1.4-5.7-3.7-7.9-5.5
		c-2.1-1.8-4.2-3.1-6.3-4.4c-2.1-1.3-4.1-2.6-5.9-5.5c-1.8-2.8-3.4-7.2-12.2-18.7c-8.9-11.5-25.1-30-34.3-39.3
		c-9.3-9.2-11.7-9.2-14-9.2c-2.3,0-4.6,0-9.1-1.3c-4.5-1.3-11.1-3.8-14.4-6.7c-3.3-2.8-3.3-6-3.6-10.8c-0.2-4.9-0.8-11.3-0.2-15.5
		c0.6-4.2,2.2-6,9.3-9.3c7.1-3.2,19.6-7.8,27-10.2c7.4-2.5,9.6-2.7,11.9-3c2.3-0.3,4.5-0.6,9.4-0.9c4.9-0.4,12.3-0.9,17.5-0.1
		c5.1,0.7,7.9,2.6,9.4,3.6l1.4,0.9"/>
	<path d="M556.1,465.5L556.1,465.5c0,0,0,0,0,1.6s-0.1,4.7-0.7,7.7c-0.6,2.9-1.7,5.7-2.8,8.5
		c-1.1,2.8-2.3,5.6-4,7.5c-1.7,1.9-3.9,2.9-6.2,3.9c-2.3,1-4.6,2-6.4,2.6c-1.8,0.6-3.2,0.9-5.6,1.1c-2.4,0.3-5.9,0.6-8.9,0.9
		c-3.1,0.3-5.7,0.6-7.1,2.7c-1.5,2.1-1.8,6-2,8l-0.1,2"/>
	<path d="M784.9,535.7l10.1,6.8"/>
	<path d="M1173.9,457L1173.9,457c0,0,0,0-1.8-0.5c-1.7-0.5-5.2-1.5-9.5-2.6c-4.2-1.2-9.2-2.5-12.9-3.1
		c-3.7-0.6-6-0.5-8.3-0.4c-2.4,0-4.7,0.1-7,0.2c-2.3,0.1-4.7,0.2-7.4-0.6c-2.8-0.7-6-2.3-9.2-3.8c-3.2-1.5-6.4-3.1-8.9-4.8
		c-2.4-1.8-4.2-3.8-6-5.8c-1.7-2-3.5-4-1.8-6.7c1.8-2.8,7-6.2,9.6-7.9l2.6-1.7"/>
	<path d="M1097.7,429.6L1097.7,429.6c0,0,0,0-8.1-0.6c-8-0.6-24.1-1.8-36.8-3.7
		c-12.7-2-22-4.7-31.7-6.2c-9.7-1.5-19.7-1.7-26.4-1.4c-6.7,0.2-9.9,0.9-16.2,0.7c-6.2-0.1-15.4-1.1-21.4-2.1s-8.7-1.9-9.4-5.1
		c-0.7-3.1,0.7-8.5,1.4-11.1l0.7-2.7"/>
	<path d="M640.6,372.9l10.9,5.3"/>
	<path d="M1049.5,426L1049.5,426c0,0,0,0-0.9-1.1s-2.7-3.4-3-6.7c-0.4-3.4,0.8-7.8,1.4-9.9l0.5-2.2"/>
	<path d="M1070.5,647.4L1070.5,647.4c0,0,0,0-1.7-2.4c-1.7-2.4-5-7.1-9.7-9.6c-4.7-2.4-10.7-2.5-13.7-2.5h-3"/>
	<path d="M1153.7,502.3l15.1,6.8"/>
	<path d="M1403.7,467.5l14.6,1.1"/>
	<path d="M991.4,531.8l6.1,17"/>
	<path d="M248.9,352.4L248.9,352.4c0,0,0,0,1.8-1c1.8-1.1,5.5-3.1,8.7-6.5c3.2-3.4,5.9-8.1,7.3-10.5l1.4-2.3"/>
	<path d="M645.4,310.2L645.4,310.2c0,0,0,0,0.9-0.7c1-0.8,2.8-2.2,4.7-3.7c1.9-1.4,3.8-2.9,6.6-5c2.8-2,6.5-4.7,8.3-6.1l1.9-1.3"/>
	<path d="M510.6,389.3l4.3,10.7"/>
	<path d="M1371.5,515.5l13.3-3.2"/>
	<path d="M1340.6,560.8L1340.6,560.8c0,0,0,0-0.1,1.8c-0.1,1.8-0.4,5.4-0.6,9c-0.3,3.6-0.6,7.3,0.7,10
		c1.2,2.7,3.9,4.5,6.6,6.2c2.7,1.7,5.4,3.5,7.7,5.9c2.3,2.4,4.2,5.4,6.3,8.9c2.1,3.4,4.3,7.4,5.1,10.9c0.8,3.4,0.1,6.5,0.2,9
		c0,2.4,0.7,4.3,2.4,6c1.6,1.8,4.3,3.4,7.2,6.3c2.9,2.9,5.9,7.1,9.1,10.2c3.1,3.1,6.4,5.2,9.4,5.9c3,0.8,5.9,0.4,8.5-0.9
		s5-3.3,6.1-4.3l1.2-1"/>
	<path d="M1498.4,506.2L1498.4,506.2c0,0,0,0,1.7-1c1.6-1,5-2.9,12.9-5.3s20.5-5.1,28.3-6.8
		c7.8-1.6,10.8-2.1,13.9-3.7c3-1.5,6.2-4,9.3-6.5c3.2-2.5,6.3-5,7.6-7.6c1.3-2.5,0.7-5.2,0.1-7.8c-0.6-2.6-1.2-5.3-2.1-8.2
		c-0.8-3-1.9-6.2-2.5-7.9l-0.5-1.6"/>
	<path d="M810.3,679.5L810.3,679.5c0,0,0,0,3-3.8c3.1-3.8,9.2-11.5,14.3-15.4c5.1-3.9,9.2-4.2,12.8-4.5
		c3.7-0.3,6.9-0.8,11.4-0.8c4.4,0,10.2,0.3,14.3,0.9c4.1,0.6,6.6,1.4,8.5,2c1.9,0.7,3.3,1.1,5.1,1.1s4-0.3,6.6-1.9
		c2.6-1.5,5.6-4.3,7.5-6.8c1.9-2.6,2.7-4.9,0.5-8c-2.2-3.1-7.4-7-10-8.9l-2.6-1.9"/>
	<path d="M1119.2,526.5l12.6,9.4"/>
	<path d="M1396.9,440.8l4.4-24.3"/>
	<path d="M1409.7,442.5L1409.7,442.5c0,0,0,0,1.7-1.7c1.7-1.6,5.2-5,7.5-8.2c2.4-3.1,3.7-6.2,5.8-9.9c2-3.8,4.9-8.2,7.2-11c2.2-2.8,4-4,8.6-6.9c4.6-2.8,12.1-7.1,15.9-12c3.7-4.9,3.6-10.3,3.5-13v-2.7"/>
</g>
</svg>