<?xml version="1.0" encoding="utf-8"?>
<svg version="1.1" xmlns="http://www.w3.org/2000/svg" width="100" height="100">
<rect fill="white" width="100" height="100"/>
<polygon fill="#FFCC00" points="30,0 30,100 0,100 "/>
<polygon fill="#0066CC" points="30,0 0,100 0,0 "/>
<g fill="none" stroke="black" stroke-miterlimit="10">
<path stroke-linecap="round" d="M58,94L58,94c4.5,2.7,9.5,2.7,14,0l0,0"/>
<line stroke-width="4" x1="65" y1="80" x2="65" y2="30"/>
<line stroke-width="4" x1="50" y1="46.5" x2="80" y2="63.5"/>
<ellipse cx="65" cy="15" rx="10" ry="5"/>
<ellipse cx="65" cy="15" rx="5" ry="10"/></g>
<g fill="#CC1818">
<polygon points="15,36 12,42 18,42"/><polygon points="15,64 18,58 12,58"/>
<polygon points="29,50 23,47 23,53"/><polygon points="1,50 7,53 7,47"/>
<polygon points="17.9,43 12.1,43 8,47.1 8,52.9 12.1,57 17.9,57 22,52.9 22,47.1"/></g>
<polygon points="65,13 63,14.5 63.8,17 66.2,17 67,14.5"/>
<path d="M51,74.7c0,0,0,2-0.6,2.9c-0.5,0.9-1.1,0.8-1.5,0.6s-0.9-0.6-0.3-1.5C49.2,75.8,51,74.7,51,74.7z"/>
<path d="M46.1,76.3c0,0,1.6,1.1,2.1,2.1c0.5,1,0.1,1.3-0.4,1.6c-0.5,0.2-1,0.4-1.4-0.6C45.9,78.4,46.1,76.3,46.1,76.3z"/>
<path d="M45,80.1c0,0,1.9,0.7,2.5,1.5c0.7,0.8,0.4,1.3,0.1,1.6c-0.4,0.3-0.9,0.6-1.6-0.2C45.4,82.2,45,80.1,45,80.1z"/>
<path d="M52.3,81.4c0,0-1.1,1.7-2,2.3c-0.9,0.6-1.4,0.2-1.6-0.2c-0.3-0.4-0.4-0.9,0.5-1.5S52.3,81.4,52.3,81.4z"/>
<path d="M45.3,84.4c0,0,2,0,2.9,0.6c0.9,0.5,0.8,1.1,0.6,1.5c-0.2,0.4-0.6,0.9-1.5,0.3S45.3,84.4,45.3,84.4z"/>
<path d="M52.4,83.1c0,0-0.3,2-1,2.8s-1.2,0.7-1.6,0.4s-0.8-0.7-0.1-1.6S52.4,83.1,52.4,83.1z"/>
<path d="M46.6,88.3c0,0,1.9-0.6,2.9-0.5c1.1,0.2,1.1,0.7,1.1,1.2s-0.3,1-1.3,0.8S46.6,88.3,46.6,88.3z"/>
<path d="M53.2,85c0,0,0.1,2-0.3,3c-0.5,1-1,1-1.4,0.8s-0.9-0.5-0.5-1.5C51.4,86.3,53.2,85,53.2,85z"/>
<path d="M54.7,86.5c0,0,0.6,1.9,0.5,3c-0.2,1.1-0.7,1.2-1.2,1.1c-0.5-0.1-1-0.3-0.8-1.4C53.3,88.1,54.7,86.5,54.7,86.5z"/>
<path d="M49,91.7c0,0,1.6-1.2,2.7-1.4c1.1-0.2,1.3,0.3,1.4,0.8c0.1,0.5,0.1,1-1,1.2S49,91.7,49,91.7z"/>
<path d="M56.8,88.1c0,0,0.8,1.8,0.8,2.9s-0.6,1.2-1.1,1.2c-0.5,0-1-0.2-1-1.3C55.5,89.8,56.8,88.1,56.8,88.1z"/>
<path d="M52,94.1c0,0,1.4-1.5,2.4-1.9c1-0.4,1.4,0,1.6,0.5c0.2,0.5,0.3,1-0.8,1.4C54.1,94.5,52,94.1,52,94.1z"/>
<path d="M52.6,79.2c0,0-1.4,1.4-2.5,1.7s-1.4-0.1-1.5-0.6c-0.1-0.5-0.2-1,0.9-1.3S52.6,79.2,52.6,79.2z"/>
<path d="M81.3,76.7c0.5,0.9,0.1,1.3-0.3,1.5c-0.4,0.2-1,0.3-1.5-0.6C79,76.7,79,74.7,79,74.7S80.8,75.8,81.3,76.7z"/>
<path d="M83.6,79.4c-0.5,1-1,0.8-1.4,0.6s-0.8-0.6-0.4-1.6s2.1-2.1,2.1-2.1S84.1,78.4,83.6,79.4z"/>
<path d="M84,83c-0.7,0.8-1.2,0.5-1.6,0.2c-0.4-0.3-0.6-0.8,0.1-1.6s2.5-1.5,2.5-1.5S84.6,82.2,84,83z"/>
<path d="M80.9,81.9c1,0.6,0.8,1.1,0.5,1.5c-0.3,0.4-0.7,0.8-1.6,0.2s-2-2.3-2-2.3S79.9,81.4,80.9,81.9z"/>
<path d="M82.7,86.7c-0.9,0.5-1.3,0.1-1.5-0.3c-0.2-0.4-0.3-1,0.6-1.5c0.9-0.5,2.9-0.6,2.9-0.6S83.6,86.2,82.7,86.7z"/>
<path d="M80.3,84.8c0.7,0.9,0.3,1.3-0.1,1.6c-0.4,0.3-0.9,0.5-1.6-0.4c-0.7-0.9-1-2.8-1-2.8S79.6,83.9,80.3,84.8z"/>
<path d="M80.7,89.9c-1.1,0.2-1.2-0.3-1.3-0.8c-0.1-0.5,0-1,1.1-1.2c1.1-0.2,2.9,0.5,2.9,0.5S81.8,89.7,80.7,89.9z"/>
<path d="M79,87.3c0.5,1,0,1.3-0.5,1.5c-0.5,0.2-1,0.2-1.4-0.8c-0.5-1-0.3-3-0.3-3S78.6,86.3,79,87.3z"/>
<path d="M76.9,89.2c0.2,1.1-0.3,1.3-0.8,1.3c-0.5,0.1-1,0-1.2-1.1c-0.2-1.1,0.5-3,0.5-3S76.7,88.1,76.9,89.2z"/>
<path d="M77.9,92.3c-1.1-0.2-1.1-0.7-1-1.2s0.3-0.9,1.4-0.8c1.1,0.2,2.7,1.4,2.7,1.4S79,92.5,77.9,92.3z"/>
<path d="M74.5,90.9c0.1,1.1-0.5,1.2-1,1.3c-0.5,0-1-0.1-1.1-1.2s0.8-2.9,0.8-2.9S74.5,89.9,74.5,90.9z"/>
<path d="M74.8,94.1c-1-0.4-0.9-0.9-0.8-1.4c0.2-0.5,0.5-0.9,1.6-0.5s2.4,1.9,2.4,1.9S75.8,94.5,74.8,94.1z"/>
<path d="M80.5,79c1.1,0.3,1,0.8,0.9,1.3c-0.1,0.5-0.4,0.9-1.5,0.6s-2.5-1.7-2.5-1.7S79.5,78.7,80.5,79z"/>
</svg>