<?xml version="1.0" encoding="utf-8"?>
<svg version="1.1" xmlns="http://www.w3.org/2000/svg" width="100" height="100">
<rect fill="white" width="100" height="100"/>
<g fill="#CC1818"><rect width="06" height="70" x="62"/><rect width="70" height="06" x="30" y="27"/></g>
<circle cx="65" cy="30" r="14" fill="white"/>
<circle cx="65" cy="30" r="10" fill="#CC1818"/>
<polygon fill="#FC0" points="30,0 30,100 0,100 "/>
<polygon fill="#06C" points="30,0 00,100 0,000 "/>
<polygon points="90,0 30,180 180,70 0,70 150,180" fill="#CC1818" transform="matrix(.15,0,0,.15,1.5,36.5)"/>
<path d="M100,90l-5.1,5.1c-2.7,2.7-7.2,2.7-9.9,0l-0.1-0.1c-2.7-2.7-7.2-2.7-9.9,0l-0.1,0.1c-2.7,2.7-7.2,2.7-9.9,0
	l-0.1-0.1c-2.7-2.7-7.2-2.7-9.9,0l-0.1,0.1c-2.7,2.7-7.2,2.7-9.9,0l-0.1-0.1c-2.7-2.7-7.2-2.7-9.9,0L30,100V90l5.1-5.1
	c2.7-2.7,7.2-2.7,9.9,0l0.1,0.1c2.7,2.7,7.2,2.7,9.9,0l0.1-0.1c2.7-2.7,7.2-2.7,9.9,0l0.1,0.1c2.7,2.7,7.2,2.7,9.9,0l0.1-0.1
	c2.7-2.7,7.2-2.7,9.9,0l0.1,0.1c2.7,2.7,7.2,2.7,9.9,0L100,80V90z"/>
<path d="M100,70l-5.1,5.1c-2.7,2.7-7.2,2.7-9.9,0l-0.1-0.1c-2.7-2.7-7.2-2.7-9.9,0l-0.1,0.1c-2.7,2.7-7.2,2.7-9.9,0
	l-0.1-0.1c-2.7-2.7-7.2-2.7-9.9,0l-0.1,0.1c-2.7,2.7-7.2,2.7-9.9,0l-0.1-0.1c-2.7-2.7-7.2-2.7-9.9,0L30,80V70l5.1-5.1
	c2.7-2.7,7.2-2.7,9.9,0l0.1,0.1c2.7,2.7,7.2,2.7,9.9,0l0.1-0.1c2.7-2.7,7.2-2.7,9.9,0l0.1,0.1c2.7,2.7,7.2,2.7,9.9,0l0.1-0.1
	c2.7-2.7,7.2-2.7,9.9,0l0.1,0.1c2.7,2.7,7.2,2.7,9.9,0L100,60V70z"/>
</svg>