<?xml version="1.0"?>
<svg width="800" height="500" version="1.1" xmlns="http://www.w3.org/2000/svg">
<rect width="800" height="500" fill="#6050A0"/>
<g fill="white">
<rect y="050" width="800" height="50"/>
<rect y="150" width="800" height="50"/>
<rect y="250" width="800" height="50"/>
<rect y="350" width="800" height="50"/>
<rect y="450" width="800" height="50"/>
<rect width="300" height="200"/>
<ellipse cx="550" cy="275" rx="200" ry="125" stroke="#6050A0" stroke-width="8"/></g>
<g fill="#6050A0">
<polygon points="90,0 30,180 180,70 0,70 150,180" transform="matrix(1,0,0,1,60,10)"/>
<path fill-rule="evenodd" transform="matrix(.5,0,0,.5,405,190)" d="M24.5,17l2-8h5l6,6l0,0l5,6l2,1l2,2l5,3l6-1l3-6l-1-4l4-7V8l1-2l9-2l3,2l1-1l7,1h1l2,4h5l5,5l4,1l1,1l9,1l2,2h1
	l7-7l-4-6l9-1l3,7h2l2,7v2l3,5l5,3l1,1l3,4h1l4,5l4,1l3-2l7,2l0,0l8-2l3,1l6-3l9,6l0,0h1l11-1l4,4h5l0,0h5l4-6l5,2l-1,4l4,5h2l3,6v1
	l8,6h1l8,7l0,0l5,6v1l-6,7l1,2l6,3l0,0l6,3l1,4l-6,6l0,0l-6,5l-1,1l0,0v10l5,3v4l5,3l1,5l4,2l1,6l-2,3l-8,1l-2-1l-5,1l0,0h-9l-6,3v1
	l-3,6l1,10l0,0l-4,1l-3,5h-4l-3,7h-7l-1,2l-1,3l-2,2l-1,2l-6,5l-7-2l-1,1l-3-1l-5-8l9-2v-6l3-5v-4v-2l-4-5l-7-2h-1l-7-2l-3-2v-2
	l-5-3l-1-3l-5-1l-3-6l1-3l-6-7l-3,1l-4,2l-5-1l-6,3h-2l-4-4h-8l-6-3l0,0l-6,3h-3l-6,4l-6-1l-3,1l-4-1l-2-2h-6l-3-5h-7l-3,8l1,2l-4,8
	l-9,2h-1h-2l-3,3l-5,2l-3,5l1,3l5,7h1l2,2h7l0,0l3,4l5,2l4,5l5,2l1,1l7,5v1l-2,6l1,2l-2,7l1,5l2,1l8-1l4-5v-1l5-8l5,1l2,2v4l-5,4
	l2,7l1,1l3,4l3,1l5,7l1,1l2,3v4l3,3l1,10l-1,1l-2,8l1,2l1,4l5,5v8l2,1l1,10l3,1l1,4l4,3v3l6,6l2-1l4,10l-2,2l-5,1l-2,2l-6,3l-2,4
	l2,5v3l-5,6l-7-1l-1-1l-8-2l-2,1h-3l-4,2l-7-1l0,0l-7-1l0,0h-5l-3-3l-7-2l-1-2l-5-1l-5-7v-1l-5-7v-1l-2-3l-6-3l-2-4h-2l-4-6l1-6l4-4
	h2h1l1,1l10,3l0,0l5-11h4l7-5v-1l-3-5l-5-2h-1l-7-4l0,0l-6-2l-2-8h1l1-8v-2l-1-1l-2-10l-1-1l-1-5l2-5l-2-3l2-7l-11-2h-1h-5l-4-11
	l-5-1l-7,9h-2l-9-10h-3l1-11l-1-1l-3-9l1-3l-2-5l6-13l10,4v-19l0,0v-1l-2-2l-2-13l4-3l-2-6l4-8l-1-3l2-5l-7-9l3-4l2-13h5l6-14l-3-5
	l1-3l-13-9v-7l2-4l-1-2L24.5,17 M527.5,33l-3,4l-3,1l-5,7v2l7,5l4-1l4-6l7,3l-1,4l-4,2l1,4l-5,5l1,3l6,4v1l4,7l6,1l1,1l5,1l2,6l-4,5
	l5,6l-2,1v6l-4,4l3,4h4l4-5h1l1-10l-2-2l1-4l4-5l-1-3l5-8l6,5v1l7,5v1l6,4l1,6l-3,3l-4,2l-2,2l-7,1l-2,3l1,9l0,0l8,2l4-2l6,7l1,1
	l6,7l2,1l7,8v4l-1,1v6l-2,3v3l1,1v8l1,1l-1,11h-1h-10l-3,10l4,3l1,2l5,4l1,6l-9,5h-2l0,0l-6-1l-1-1l-6-2l-2,1l-3-1l-6,3l-2,8l1,1
	l-2,7l1,3l-1,2l-7,5l-7-6v-2l-5-6l-5,2l-5-1l-2,1h-6l-2,2l2,7v1v4l-5,4l-1,6l-5,2l-1,6l5,4l0,0l7,1l1,5l-5,4l-4-1l-3,1h-1l-6-5l-5,1
	l-4-8h-3l-5,2l-2,6l0,0l-2,4l-4,3h-9h-1l-4-1h-2l-2-1l-5,1h-2l-7,1l-1,1h-4l-7-3l0,0l-4-1l-7,3l-1,2l-6,2h-3l-3-3h-4l-6-3l-2,1l-4,7
	l-1,3l-5,7v1l-2,3l-5,4h-2l-3,8v2l-3,5v4l-7,7h-5l0,0l-2,1l-9-2h-1h-8l-2-1l-7,1l-4-2l-3,1l-5-2h-2l0,0l-4-4h-1l-7,3v1l-5,5h-1l-5,5
	h-1l-4,6l-5,1l-1-2l-9,5l-5-6h-2l-3,1v8l6,5l-4,5l-7-2l-2,1h-3l-4,4l2,6l-4,4v3l-1,3l-7-1l-3-5h-6l-3-3h-2l-4,1l-5-2l-4,1h-7l-3-2
	v-3v-2l7-6l7,2v1l10-2l1-1l1-5l-1-2l-1-4l-3-3l1-9l-5-2l-1-1v-2l-6-6l3-7l2-1l1-4l-2-3h-10l-1-2l-7-1h-1l-7-3l-5,2v1l-5,3l-1-1l-5,1
	l-3-1l-3,1l-6-2l-5,2l-5-6h-3l-3-4l-6-3l-2-8v-1l-1-3v-4l-4-7v-3l-4-6l1-4l-6-7l1-2l-3-7l3-5l0,0l-2-2v-6l-1-1l2-7l-6-1l-1-4l-5-3
	l1-7l10,1l3,4l4,2h2l3-3l3-6l0,0l-7-5l-1-1l-6-3l1-5l3-4h2l5-5h3h1l7-4l2-4l4-1l2-2h2l10,5l0,0l3,2l-1,6l0,0l-2,7l4,4l-2,6l0,0l3,5
	v3l1,1l8,4l5-2l3,1l1,10l2,1v8l-1,2l4,7l4-1l4-8l2-1l5-1l2-1h7v1l4-1l5-1v-1l2-2l3-5l8-4v-1l2-2l3-4l5-2l1-7l-1-1l1-12h1h8l2,4l10-1
	l2,2l8-1l1,1l10-2l1-1l8-1l3-1l1-4h9l3,4l7,1l1-1v-5l-8-7v-3l-4-3l1-4l2-3l-1-5l1-2l7-2l1-4h6l3-5h5l1,1h5l6,4l1,1l2,2l2,8l-3,4l1,2
	l3,4l7-2l3-4l7,1l4,6l5,2l3,3l1,4l3,2l2,3l2,2l7,1l2,4l9,1l1-1l8,2l4-2l1,1l8-2l1-4l-3-7l-5-2l-1-3l-5-6l2-4l6-3l1-4v-4l-7-1l-3-7
	l1-1l-7-6l7-6l-5-5h-6h-1l-6,1l-2-1l-5,1l-5-5v-6l2-2l2-1l7,2l5-3l1-6l0,0v-8v-1l1-7l-2-2l-1-6l3-5l-1-4v-1l-2-9l-2-1l-3-8l1-2l1-1
	l3-6v-1l2-2l6-3l3-1l4,3l1,2l7,4l1,1l3,3h3l5,6l6-8l1,1l3-2l6,2l4-2l6,3l0,0l7,2l3-1l3,2l8-2l1,1h5l5-6l3-1l2-8l2-1l2-5l2-2l0,0
	l12-5l3,1l0,0l9,1l2,4v4l-2,2l-7,3l-4-2L527.5,33 M72.5,160l8-7l2,9h5l3,5h4l0,0v9l-3,2h-2l-5-6h-3l-4-6l-2-1L72.5,160 M301.5,163
	l2-5l8,1l2,1l-8,7h-1L301.5,163 M460.5,196l4,2l5,1l3-2h7l3-1h2l3-1l4,2l7-1l2-1l6-1l2,1l2-1l9,1l4,6l3,2l1,1v5v2l-2,7l-10,2l-2-1
	l-5,1v1l-6,6l-1,2l-3,5l-4,1l-2-1l-5-11l-8-2h-1l0,0l-5,1l-3-2h-7l-3-2l-5,1l-6-5v-3l-2-4l3-3l2-6L460.5,196 M243.5,235l5-1l2,1l5-1
	l4,1l3,6l-9,5v3h-5l-4,6l-8-1l-1-1v-2l-4-8l1-4l3-2l7-1L243.5,235 M248.5,390v4l3,2l6-1l2-8v-1l-4-3l-1,1L248.5,390"/>
</g></svg>