<?xml version="1.0" encoding="utf-8"?>
<svg version="1.1" xmlns="http://www.w3.org/2000/svg" width="100" height="100">
<rect fill="#CC3333" width="100" height="100"/>
<polygon fill="#FC0" points="30,0 30,100 0,100 "/>
<polygon fill="#06C" points="30,0 00,100 0,000 "/>
<g fill="#CC1818">
	<polygon points="17.9,43 12.1,43 8,47.1 8,52.9 12.1,57 17.9,57 22,52.9 22,47.1"/>
	<polygon points="15,36 12,42 18,42"/><polygon points="15,64 18,58 12,58"/>
	<polygon points="29,50 23,47 23,53"/><polygon points="1,50 7,53 7,47"/></g>
<g fill="white">
	<polygon points="90,0 30,180 180,70 0,70 150,180" transform="matrix(.2,0,0,.2,47,15)"/>
	<polygon points="90,0 30,180 180,70 0,70 150,180" transform="matrix(.05,0,0,.05,41,60)"/>
	<polygon points="90,0 30,180 180,70 0,70 150,180" transform="matrix(.05,0,0,.05,80,60)"/>
	<polygon points="90,0 30,180 180,70 0,70 150,180" transform="matrix(.05,0,0,.05,50,75)"/>
	<polygon points="90,0 30,180 180,70 0,70 150,180" transform="matrix(.05,0,0,.05,71,75)"/>
</g></svg>