<?xml version="1.0" encoding="utf-8"?>
<svg version="1.1" xmlns="http://www.w3.org/2000/svg" width="100" height="100">
<rect fill="#CC3333" width="100" height="100"/>
<polygon fill="#FC0" points="30,0 30,100 0,100 "/>
<polygon fill="#06C" points="30,0 0,100 0,0 "/>
<polygon points="90,0 30,180 180,70 0,70 150,180" fill="#CC1818" transform="matrix(.15,0,0,.15,1.5,36.5)"/>
<g><circle fill="white" cx="65" cy="50" r="30"/>
<path d="M65,20c-16.6,0-30,13.4-30,30s13.4,30,30,30c-8.3,0-15-6.7-15-15s6.7-15,15-15s15-6.7,15-15S73.3,20,65,20z"/>
<circle fill="white" cx="65" cy="35" r="5"/>
<circle cx="65" cy="65" r="5"/></g>
</svg>