<?xml version="1.0" encoding="UTF-8"?>
<svg version="1.1" viewBox="0 0 48 48" xmlns="http://www.w3.org/2000/svg">
	<path d="m24 34q0.8 0 1.4-0.6 0.6-0.5 0.6-1.4 0-0.8-0.6-1.4t-1.4-0.6q-0.85 0-1.43 0.6-0.57 0.6-0.57 1.4 0 0.9 0.57 1.4 0.58 0.6 1.43 0.6zm-2-8h4v-12h-4zm2 18q-4.15 0-7.8-1.6-3.65-1.5-6.35-4.2t-4.28-6.4q-1.57-3.6-1.57-7.8 0-4.1 1.57-7.8 1.58-3.7 4.28-6.3 2.7-2.7 6.35-4.3t7.8-1.6q4.2 0 7.8 1.6 3.7 1.6 6.4 4.3 2.6 2.6 4.2 6.3t1.6 7.8q0 4.2-1.6 7.8-1.6 3.7-4.2 6.4-2.7 2.7-6.4 4.2-3.6 1.6-7.8 1.6zm0-4q6.7 0 11.3-4.6 4.7-4.7 4.7-11.4t-4.7-11.3q-4.6-4.7-11.3-4.7t-11.4 4.7q-4.65 4.6-4.65 11.3t4.65 11.4q4.65 4.6 11.4 4.6z" fill="#cad3f5"/>
</svg>
