<svg width="320" height="320" viewBox="0 0 320 320" xmlns="http://www.w3.org/2000/svg">
	<path fill="none" stroke="#FCAF3C" stroke-width="20" d="M260.5 60H60.5V260H260.5V60Z" />
	<path fill="#0066FF"
		d="M260.5 300C282.591 300 300.5 282.091 300.5 260C300.5 237.909 282.591 220 260.5 220C238.409 220 220.5 237.909 220.5 260C220.5 282.091 238.409 300 260.5 300Z" />
	<path fill="#009473"
		d="M60.5 300C82.5914 300 100.5 282.091 100.5 260C100.5 237.909 82.5914 220 60.5 220C38.4086 220 20.5 237.909 20.5 260C20.5 282.091 38.4086 300 60.5 300Z" />
	<path fill="#F7770F"
		d="M260.5 100C282.591 100 300.5 82.0914 300.5 60C300.5 37.9086 282.591 20 260.5 20C238.409 20 220.5 37.9086 220.5 60C220.5 82.0914 238.409 100 260.5 100Z" />
	<path fill="#FF0066"
		d="M60.5 100C82.5914 100 100.5 82.0914 100.5 60C100.5 37.9086 82.5914 20 60.5 20C38.4086 20 20.5 37.9086 20.5 60C20.5 82.0914 38.4086 100 60.5 100Z" />
	<path fill="#FCAF3C" d="M110 130L100 170H152L137 230L186.8 170L220 130H162L172 90H120L110 130Z" />
</svg>
