<?xml version="1.0" encoding="utf-8"?>
<svg version="1.1" xmlns="http://www.w3.org/2000/svg" width="500" height="500">
<polygon fill="#6050A0" points="150,480 150,280 350,280 350,480 250,420"/>
<ellipse fill="white" stroke="#6050A0" stroke-width="10" cx="250" cy="180" rx="200" ry="150"/>
<g fill="#6050A0">
<path fill-rule="evenodd" d="M117.25,103.5l1-4h2.5l3,3l0,0l2.5,3l1,0.5l1,1l2.5,1.5l3-0.5l1.5-3l-0.5-2l2-3.5V99l0.5-1l4.5-1l1.5,1l0.5-0.5
l3.5,0.5h0.5l1,2h2.5l2.5,2.5l2,0.5l0.5,0.5l4.5,0.5l1,1h0.5l3.5-3.5l-2-3l4.5-0.5l1.5,3.5h1l1,3.5v1l1.5,2.5l2.5,1.5l0.5,0.5l1.5,2h0.5l2,2.5l2,0.5l1.5-1l3.5,1l0,0l4-1l1.5,0.5l3-1.5l4.5,3l0,0h0.5l5.5-0.5l2,2h2.5l0,0h2.5l2-3l2.5,1l-0.5,2l2,2.5h1l1.5,3v0.5l4,3
h0.5l4,3.5l0,0l2.5,3v0.5l-3,3.5l0.5,1l3,1.5l0,0l3,1.5l0.5,2l-3,3l0,0l-3,2.5l-0.5,0.5l0,0v5l2.5,1.5v2l2.5,1.5l0.5,2.5l2,1l0.5,3l-1,1.5l-4,0.5l-1-0.5l-2.5,0.5l0,0h-4.5l-3,1.5v0.5l-1.5,3l0.5,5l0,0l-2,0.5l-1.5,2.5h-2l-1.5,3.5h-3.5l-0.5,1l-0.5,1.5l-1,1
l-0.5,1l-3,2.5l-3.5-1l-0.5,0.5l-1.5-0.5l-2.5-4l4.5-1v-3l1.5-2.5v-2v-1l-2-2.5l-3.5-1h-0.5l-3.5-1l-1.5-1v-1l-2.5-1.5l-0.5-1.5l-2.5-0.5l-1.5-3l0.5-1.5l-3-3.5l-1.5,0.5l-2,1l-2.5-0.5l-3,1.5h-1l-2-2h-4l-3-1.5l0,0l-3,1.5h-1.5l-3,2l-3-0.5l-1.5,0.5l-2-0.5
l-1-1h-3l-1.5-2.5h-3.5l-1.5,4l0.5,1l-2,4l-4.5,1h-0.5h-1l-1.5,1.5l-2.5,1l-1.5,2.5l0.5,1.5l2.5,3.5h0.5l1,1h3.5l0,0l1.5,2l2.5,1l2,2.5l2.5,1l0.5,0.5l3.5,2.5v0.5l-1,3l0.5,1l-1,3.5l0.5,2.5l1,0.5l4-0.5l2-2.5v-0.5l2.5-4l2.5,0.5l1,1v2l-2.5,2l1,3.5l0.5,0.5
l1.5,2l1.5,0.5l2.5,3.5l0.5,0.5l1,1.5v2l1.5,1.5l0.5,5l-0.5,0.5l-1,4l0.5,1l0.5,2l2.5,2.5v4l1,0.5l0.5,5l1.5,0.5l0.5,2l2,1.5v1.5l3,3l1-0.5l2,5l-1,1l-2.5,0.5l-1,1l-3,1.5l-1,2l1,2.5v1.5l-2.5,3l-3.5-0.5l-0.5-0.5l-4-1l-1,0.5h-1.5l-2,1l-3.5-0.5l0,0l-3.5-0.5
l0,0h-2.5l-1.5-1.5l-3.5-1l-0.5-1l-2.5-0.5l-2.5-3.5v-0.5l-2.5-3.5v-0.5l-1-1.5l-3-1.5l-1-2h-1l-2-3l0.5-3l2-2h1h0.5l0.5,0.5l5,1.5l0,0l2.5-5.5h2l3.5-2.5V230l-1.5-2.5l-2.5-1h-0.5l-3.5-2l0,0l-3-1l-1-4h0.5l0.5-4v-1l-0.5-0.5l-1-5l-0.5-0.5l-0.5-2.5l1-2.5l-1-1.5
l1-3.5l-5.5-1h-0.5h-2.5l-2-5.5l-2.5-0.5l-3.5,4.5h-1l-4.5-5h-1.5l0.5-5.5l-0.5-0.5l-1.5-4.5l0.5-1.5l-1-2.5l3-6.5l5,2v-9.5l0,0V162l-1-1l-1-6.5l2-1.5l-1-3l2-4l-0.5-1.5l1-2.5l-3.5-4.5l1.5-2l1-6.5h2.5l3-7l-1.5-2.5l0.5-1.5l-6.5-4.5V110l1-2l-0.5-1L117.25,103.5
M368.75,111.5l-1.5,2l-1.5,0.5l-2.5,3.5v1l3.5,2.5l2-0.5l2-3l3.5,1.5l-0.5,2l-2,1l0.5,2l-2.5,2.5l0.5,1.5l3,2v0.5l2,3.5l3,0.5l0.5,0.5l2.5,0.5l1,3l-2,2.5l2.5,3l-1,0.5v3l-2,2l1.5,2h2l2-2.5h0.5l0.5-5l-1-1l0.5-2l2-2.5l-0.5-1.5l2.5-4l3,2.5v0.5l3.5,2.5v0.5
l3,2l0.5,3l-1.5,1.5l-2,1l-1,1l-3.5,0.5l-1,1.5l0.5,4.5l0,0l4,1l2-1l3,3.5l0.5,0.5l3,3.5l1,0.5l3.5,4v2l-0.5,0.5v3l-1,1.5v1.5l0.5,0.5v4l0.5,0.5l-0.5,5.5h-0.5h-5l-1.5,5l2,1.5l0.5,1l2.5,2l0.5,3l-4.5,2.5h-1l0,0l-3-0.5l-0.5-0.5l-3-1l-1,0.5l-1.5-0.5l-3,1.5
l-1,4l0.5,0.5l-1,3.5l0.5,1.5l-0.5,1l-3.5,2.5l-3.5-3v-1l-2.5-3l-2.5,1l-2.5-0.5l-1,0.5h-3l-1,1l1,3.5v0.5v2l-2.5,2l-0.5,3l-2.5,1l-0.5,3l2.5,2l0,0l3.5,0.5l0.5,2.5l-2.5,2l-2-0.5l-1.5,0.5h-0.5l-3-2.5l-2.5,0.5l-2-4h-1.5l-2.5,1l-1,3l0,0l-1,2l-2,1.5h-4.5h-0.5
l-2-0.5h-1l-1-0.5l-2.5,0.5h-1l-3.5,0.5l-0.5,0.5h-2l-3.5-1.5l0,0l-2-0.5l-3.5,1.5l-0.5,1l-3,1h-1.5l-1.5-1.5h-2l-3-1.5l-1,0.5l-2,3.5l-0.5,1.5l-2.5,3.5v0.5l-1,1.5l-2.5,2h-1l-1.5,4v1l-1.5,2.5v2l-3.5,3.5h-2.5l0,0l-1,0.5l-4.5-1h-0.5h-4l-1-0.5l-3.5,0.5l-2-1
l-1.5,0.5l-2.5-1h-1l0,0l-2-2h-0.5l-3.5,1.5v0.5l-2.5,2.5h-0.5l-2.5,2.5h-0.5l-2,3l-2.5,0.5l-0.5-1l-4.5,2.5l-2.5-3h-1l-1.5,0.5v4l3,2.5l-2,2.5l-3.5-1l-1,0.5h-1.5l-2,2l1,3l-2,2v1.5l-0.5,1.5l-3.5-0.5l-1.5-2.5h-3l-1.5-1.5h-1l-2,0.5l-2.5-1l-2,0.5h-3.5l-1.5-1
V273v-1l3.5-3l3.5,1v0.5l5-1l0.5-0.5l0.5-2.5l-0.5-1l-0.5-2l-1.5-1.5l0.5-4.5l-2.5-1l-0.5-0.5v-1l-3-3l1.5-3.5l1-0.5l0.5-2l-1-1.5h-5l-0.5-1l-3.5-0.5h-0.5l-3.5-1.5l-2.5,1v0.5l-2.5,1.5l-0.5-0.5l-2.5,0.5l-1.5-0.5l-1.5,0.5l-3-1l-2.5,1l-2.5-3h-1.5l-1.5-2l-3-1.5
l-1-4v-0.5l-0.5-1.5v-2l-2-3.5V225l-2-3l0.5-2l-3-3.5l0.5-1l-1.5-3.5l1.5-2.5l0,0l-1-1v-3l-0.5-0.5l1-3.5l-3-0.5l-0.5-2l-2.5-1.5l0.5-3.5l5,0.5l1.5,2l2,1h1l1.5-1.5l1.5-3l0,0l-3.5-2.5l-0.5-0.5l-3-1.5l0.5-2.5l1.5-2h1l2.5-2.5h1.5h0.5l3.5-2l1-2l2-0.5l1-1h1
l5,2.5l0,0l1.5,1l-0.5,3l0,0l-1,3.5l2,2l-1,3l0,0l1.5,2.5v1.5l0.5,0.5l4,2l2.5-1l1.5,0.5l0.5,5l1,0.5v4l-0.5,1l2,3.5l2-0.5l2-4l1-0.5l2.5-0.5l1-0.5h3.5v0.5l2-0.5l2.5-0.5V204l1-1l1.5-2.5l4-2V198l1-1l1.5-2l2.5-1l0.5-3.5l-0.5-0.5l0.5-6h0.5h4l1,2l5-0.5l1,1
l4-0.5l0.5,0.5l5-1l0.5-0.5l4-0.5l1.5-0.5l0.5-2h4.5l1.5,2l3.5,0.5l0.5-0.5v-2.5l-4-3.5v-1.5l-2-1.5l0.5-2l1-1.5l-0.5-2.5l0.5-1l3.5-1l0.5-2h3l1.5-2.5h2.5l0.5,0.5h2.5l3,2l0.5,0.5l1,1l1,4l-1.5,2l0.5,1l1.5,2l3.5-1l1.5-2l3.5,0.5l2,3l2.5,1l1.5,1.5l0.5,2l1.5,1
l1,1.5l1,1l3.5,0.5l1,2l4.5,0.5l0.5-0.5l4,1l2-1l0.5,0.5l4-1l0.5-2l-1.5-3.5l-2.5-1l-0.5-1.5l-2.5-3l1-2l3-1.5l0.5-2v-2l-3.5-0.5l-1.5-3.5l0.5-0.5l-3.5-3l3.5-3l-2.5-2.5h-3h-0.5l-3,0.5l-1-0.5l-2.5,0.5l-2.5-2.5v-3l1-1l1-0.5l3.5,1l2.5-1.5l0.5-3l0,0v-4V140
l0.5-3.5l-1-1l-0.5-3l1.5-2.5l-0.5-2v-0.5l-1-4.5l-1-0.5l-1.5-4l0.5-1l0.5-0.5l1.5-3v-0.5l1-1l3-1.5l1.5-0.5l2,1.5l0.5,1l3.5,2l0.5,0.5l1.5,1.5h1.5l2.5,3l3-4l0.5,0.5l1.5-1l3,1l2-1l3,1.5l0,0l3.5,1l1.5-0.5l1.5,1l4-1l0.5,0.5h2.5l2.5-3l1.5-0.5l1-4l1-0.5
l1-2.5l1-1l0,0l6-2.5l1.5,0.5l0,0l4.5,0.5l1,2v2l-1,1l-3.5,1.5l-2-1L368.75,111.5 M141.25,175l4-3.5l1,4.5h2.5l1.5,2.5h2l0,0v4.5l-1.5,1h-1l-2.5-3h-1.5l-2-3l-1-0.5L141.25,175 M255.75,176.5l1-2.5l4,0.5l1,0.5l-4,3.5h-0.5L255.75,176.5 M335.25,193l2,1l2.5,0.5
l1.5-1h3.5l1.5-0.5h1l1.5-0.5l2,1l3.5-0.5l1-0.5l3-0.5l1,0.5l1-0.5l4.5,0.5l2,3l1.5,1l0.5,0.5v2.5v1l-1,3.5l-5,1l-1-0.5l-2.5,0.5v0.5l-3,3l-0.5,1l-1.5,2.5l-2,0.5l-1-0.5l-2.5-5.5l-4-1h-0.5l0,0l-2.5,0.5l-1.5-1h-3.5l-1.5-1l-2.5,0.5l-3-2.5v-1.5l-1-2l1.5-1.5
l1-3L335.25,193 M226.75,212.5l2.5-0.5l1,0.5l2.5-0.5l2,0.5l1.5,3l-4.5,2.5v1.5h-2.5l-2,3l-4-0.5l-0.5-0.5v-1l-2-4l0.5-2l1.5-1l3.5-0.5L226.75,212.5 M229.25,290v2l1.5,1l3-0.5l1-4V288l-2-1.5l-0.5,0.5L229.25,290"/>
<polygon points="90,0 30,180 180,70 0,70 150,180" transform="matrix(.3,0,0,.3,223,40)"/>
</g></svg>