<?xml version="1.0"?>
<svg width="1920" height="1200" version="1.1" xmlns="http://www.w3.org/2000/svg">
<rect fill="#F60" width="1920" height="1200"/>
<g fill="white">
<path d="M629.72,415c68.31.49,158.11,74,179.13,144.05,2.39,7.79.95,14.11-1.44,20.93-14.8,52.07-17.67,102.68,16.24,149.4,4.3,5.84,10.51,15.08,2.39,21.89-9.07,7.79-17.19,2-24.84-5.35-43.46-41.85-55.41-93.92-42-151.83,5.25-22.39-.48-34.55-16.24-46.72-20.54-16.06-43.47-28.22-66.88-39.42-23.4-11.68-45.85-24.33-65.44-41.85-11-8.76-25.32-19.95-19.11-36.5,6.21-16.06,25.32-14.6,38.22-14.6Z"/>
<path d="M439.68,400c24.35,0,46.8,2.9,69.24,9.67,15.75,4.83,30.56,12.57,37.24,28,9.55,22.72,26.74,34.8,47.27,44.47A1132.61,1132.61,0,0,1,717.1,548.9c10,6.28,16.71,12.08,10.5,24.65-7.16,13.54-15.28,1.94-22-.48-67.8-26.59-138-43-207.23-62.36-30.08-8.22-58.73-19.82-81.65-42.06-14.32-14-32-28.53-25.3-50.76,7.16-23.69,31-16,48.22-17.89Z"/>
<path d="M539.62,542.5c62,4.46,120.14,24.27,176.85,48,13.46,5.94,7.21,16.34,6.25,25.26-1,12.87-9.61,7.43-15.86,6.43-41.33-7.42-82.66-5-123.51,3-29.79,5.94-57.19,1-79.29-23.28-10.57-11.39-17.78-24.77-12-40.12,5.77-15.85,20.67-19.32,35.57-19.32Z"/>
<path d="M725,669.71c-32.8-3-61.79,13.27-92.69,12.78-13.3-.49-27.09,1-39.45-6.39-8.08-4.92-13.31-11.31-12.83-21.63.48-9.83,7.6-13.76,15.21-16.71,36.12-14.25,72.72-12.29,109.32-2.46C721.2,639.24,716,657.91,725,669.71Z"/>
<path d="M760,734.75c-31,0-55.57.56-80.15,0-8.55,0-18.7-2.22-19.77-13.92-1.07-10.57,8.55-12.24,15.5-15.58,41.14-17.82,51.29-15,84.42,29.5Z"/>
<path d="M1290.28,415c-68.31.49-158.11,74-179.13,144.05-2.39,7.79-1,14.11,1.44,20.93,14.8,52.07,17.67,102.68-16.24,149.4-4.3,5.84-10.51,15.08-2.39,21.89,9.07,7.79,17.19,2,24.84-5.35,43.46-41.85,55.41-93.92,42-151.83-5.25-22.39.48-34.55,16.24-46.72,20.54-16.06,43.47-28.22,66.88-39.42,23.4-11.68,45.85-24.33,65.44-41.85,11-8.76,25.32-19.95,19.11-36.5-6.21-16.06-25.32-14.6-38.22-14.6Z"/>
<path d="M1480.32,400c-24.35,0-46.8,2.9-69.24,9.67-15.75,4.83-30.56,12.57-37.24,28-9.55,22.72-26.74,34.8-47.27,44.47A1132.61,1132.61,0,0,0,1202.9,548.9c-10,6.28-16.71,12.08-10.5,24.65,7.16,13.54,15.28,1.94,22-.48,67.8-26.59,138-43,207.23-62.36,30.08-8.22,58.73-19.82,81.65-42.06,14.32-14,32-28.53,25.3-50.76-7.16-23.69-31-16-48.22-17.89Z"/>
<path d="M1380.38,542.5c-62,4.46-120.14,24.27-176.85,48-13.46,5.94-7.21,16.34-6.25,25.26,1,12.87,9.61,7.43,15.86,6.43,41.33-7.42,82.66-5,123.51,3,29.79,5.94,57.19,1,79.29-23.28,10.57-11.39,17.78-24.77,12-40.12-5.77-15.85-20.67-19.32-35.57-19.32Z"/>
<path d="M1195,669.71c32.8-3,61.79,13.27,92.69,12.78,13.3-.49,27.09,1,39.45-6.39,8.08-4.92,13.31-11.31,12.83-21.63-.48-9.83-7.6-13.76-15.21-16.71-36.12-14.25-72.72-12.29-109.32-2.46-16.64,3.94-11.41,22.61-20.44,34.41Z"/>
<path d="M1160,734.75c31,0,55.57.56,80.15,0,8.55,0,18.7-2.22,19.77-13.92,1.07-10.57-8.55-12.24-15.5-15.58-41.14-17.82-51.29-15-84.42,29.5Z"/>
<polygon points="810 100 860 200 910 300 810 300 710 300 760 200 810 100"/>
<polygon points="1110 100 1160 200 1210 300 1110 300 1010 300 1060 200 1110 100"/>
<polygon points="658.58 868.58 527.16 1000 658.58 1131.42 658.58 868.58"/>
<polygon points="678.58 1131.42 810 1000 678.58 868.58 678.58 1131.42"/>
<circle cx="960" cy="600" r="125"/>
<ellipse cx="1250" cy="1000" rx="100" ry="150"/>
<polygon points="960 1100 885 950 810 800 960 800 1110 800 1035 950 960 1100"/>
</g>
</svg>