<?xml version="1.0" encoding="utf-8"?>
<svg version="1.1" xmlns="http://www.w3.org/2000/svg" width="100" height="100">
<rect fill="#CC1818" width="100" height="100"/><polygon points="0,0 50,0 0,100"/>
<g fill="#FC0">
	<polygon points="90,0 30,180 180,70 0,70 150,180" transform="matrix(.1,0,0,.1,11,11)"/>
	<path d="M89,80c0.5,1,0,1.3-0.5,1.5s-1,0.2-1.4-0.8s-0.3-3-0.3-3S88.6,79,89,80z"/>
	<path d="M61,67.5c0,0,0,2-0.6,2.9c-0.4,0.9-1,0.8-1.4,0.6s-0.9-0.6-0.3-1.5C59.2,68.5,61,67.5,61,67.5z"/>
	<path d="M56.1,69.1c0,0,1.6,1.1,2.1,2.1s0.1,1.3-0.4,1.6s-1,0.4-1.4-0.6C55.9,71.1,56.1,69.1,56.1,69.1z"/>
	<path d="M55,72.9c0,0,1.9,0.7,2.5,1.5c0.7,0.8,0.4,1.3,0.1,1.6c-0.4,0.3-0.9,0.6-1.6-0.2C55.4,74.9,55,72.9,55,72.9z"/>
	<path d="M62.3,74.1c0,0-1.1,1.7-2,2.3c-0.9,0.5-1.4,0.2-1.6-0.2c-0.3-0.4-0.4-0.9,0.5-1.5C60.1,74.1,62.3,74.1,62.3,74.1z"/>
	<path d="M55.3,77.1c0,0,2,0,2.9,0.6c0.9,0.5,0.8,1,0.6,1.5s-0.6,0.9-1.5,0.3S55.3,77.1,55.3,77.1z"/>
	<path d="M62.4,75.9c0,0-0.3,2-1,2.8c-0.7,0.9-1.2,0.7-1.6,0.4s-0.8-0.7-0.1-1.6C60.4,76.7,62.4,75.9,62.4,75.9z"/>
	<path d="M56.6,81.1c0,0,1.9-0.6,2.9-0.5c1.1,0.2,1.1,0.7,1.1,1.2s-0.3,1-1.3,0.8S56.6,81.1,56.6,81.1z"/>
	<path d="M63.2,77.8c0,0,0.1,2-0.3,3c-0.5,1-1,1-1.4,0.8C61,81.3,60.5,81,61,80C61.4,79,63.2,77.8,63.2,77.8z"/>
	<path d="M64.7,79.2c0,0,0.6,1.9,0.5,3c-0.2,1.1-0.7,1.2-1.2,1.1c-0.5-0.1-1-0.3-0.8-1.3C63.3,80.9,64.7,79.2,64.7,79.2z"/>
	<path d="M59,84.4c0,0,1.6-1.2,2.7-1.4c1.1-0.2,1.3,0.3,1.4,0.8c0.1,0.5,0.1,1-1,1.2S59,84.4,59,84.4z"/>
	<path d="M66.8,80.8c0,0,0.8,1.8,0.8,2.9c-0.1,1.1-0.6,1.2-1.1,1.2s-1-0.2-1-1.3C65.5,82.6,66.8,80.8,66.8,80.8z"/>
	<path d="M62,86.9c0,0,1.4-1.5,2.4-1.9s1.4,0,1.6,0.5s0.3,1-0.8,1.4C64.1,87.2,62,86.9,62,86.9z"/>
	<path d="M62.6,72c0,0-1.4,1.4-2.5,1.7c-1.1,0.3-1.4-0.1-1.5-0.6s-0.2-1,0.9-1.3C60.5,71.4,62.6,72,62.6,72z"/>
	<path d="M91.3,69.5c0.5,0.9,0.1,1.3-0.3,1.5s-1,0.3-1.5-0.6S89,67.5,89,67.5S90.8,68.5,91.3,69.5z"/>
	<path d="M93.6,72.1c-0.5,1-1,0.8-1.4,0.6c-0.4-0.2-0.8-0.6-0.4-1.6c0.5-1,2.1-2.1,2.1-2.1S94.1,71.2,93.6,72.1z"/>
	<path d="M94,75.8c-0.7,0.8-1.2,0.5-1.6,0.2s-0.6-0.8,0.1-1.6c0.7-0.8,2.5-1.5,2.5-1.5S94.6,74.9,94,75.8z"/>
	<path d="M90.9,74.7c1,0.6,0.8,1.1,0.5,1.5s-0.7,0.8-1.6,0.2c-1-0.5-2-2.3-2-2.3S89.9,74.1,90.9,74.7z"/>
	<path d="M92.7,79.5c-0.9,0.5-1.3,0.1-1.5-0.3s-0.3-1,0.6-1.5s2.9-0.6,2.9-0.6S93.6,79,92.7,79.5z"/>
	<path d="M90.3,77.5c0.7,0.9,0.3,1.3-0.1,1.6s-0.9,0.5-1.6-0.4s-1-2.8-1-2.8S89.6,76.7,90.3,77.5z"/>
	<path d="M90.7,82.6c-1.1,0.2-1.2-0.3-1.3-0.8c-0.1-0.5,0-1,1.1-1.2c1-0.2,2.9,0.5,2.9,0.5S91.8,82.4,90.7,82.6z"/>
	<path d="M86.9,82c0.2,1.1-0.3,1.3-0.8,1.3c-0.5,0.1-1,0-1.2-1.1s0.5-3,0.5-3S86.7,80.9,86.9,82z"/>
	<path d="M87.9,85.1c-1.1-0.2-1.1-0.7-1-1.2s0.3-0.9,1.4-0.8c1.1,0.2,2.7,1.4,2.7,1.4S89,85.2,87.9,85.1z"/>
	<path d="M84.5,83.7c0.1,1.1-0.5,1.2-1,1.3s-1-0.1-1.1-1.2s0.8-2.9,0.8-2.9S84.5,82.6,84.5,83.7z"/>
	<path d="M84.8,86.9c-1-0.4-0.9-0.9-0.8-1.4c0.2-0.5,0.5-0.9,1.6-0.5c1,0.4,2.4,1.9,2.4,1.9S85.9,87.2,84.8,86.9z"/>
	<path d="M90.5,71.7c1.1,0.3,1,0.8,0.9,1.3s-0.4,0.9-1.5,0.6S87.4,72,87.4,72S89.5,71.4,90.5,71.7z"/>
	<circle cx="75" cy="65" r="12.5"/></g>
<g fill="none"><path stroke="#FC0" stroke-linecap="round" stroke-linejoin="bevel" d="M67.5,86c0,0,7,4.5,15,0"/>
<g stroke="#CC1818">
	<line x1="65" y1="55" x2="85" y2="75"/><line x1="65" y1="75" x2="85" y2="55"/>
	<line x1="75" y1="77.5" x2="75" y2="52.5"/><line x1="62.5" y1="65" x2="87.5" y2="65"/>
</g></g></svg>