<?xml version="1.0" encoding="utf-8"?>
<svg version="1.1" xmlns="http://www.w3.org/2000/svg" width="1000" height="1000">
<circle cx="500" cy="500" r="500"/><circle fill="#06C" cx="500" cy="500" r="454"/>
<g fill="#3C3">
<path d="M326.7,81.8c1.4-0.1,3.2-0.4,3.7,0.9c0.7,1.8-1.2,2.7-2.4,3.4c-3.8,2.5-7.9,4.5-10.5,8.5
c0,0.1-0.1,0.1-0.1,0.2c0.1-0.1,0.2-0.3,0.4-0.4c7.3-1.4,13.2-5.9,19.8-9c6-2.8,12.1-5,18.3-7c0.3,0.6,0.6,0.9,0.6,1.2
c-0.5,2.1-2.5,4.6-0.8,6.1c2,1.7,4.6,0.5,7-0.9c4.2-2.4,8.7-4.3,13.9-6.8c-0.7,3.4-2.9,4.6-4.7,6.1c-5.1,4.2-10.2,8.5-10.4,15.9
c0,2.3-0.1,3.3,3.5,3.5c6.8,0.4,13.3-1.2,19.9-1.9c0.3,0,0.8-0.1,1,0.1c4.2,4.7,10.3,1.6,14.9,3.8c6.2,3,11.4,0.2,16.9-1.5
c0.9-0.3,1.8-1.3,2.8-0.5c1.1,0.9,0.2,1.7-0.3,2.6c-1.6,2.6,1.1,4.4,1.5,6.6c0.9,6.1,3.6,11.1,8.6,14.9c1.6,1.2,2.9,2.9,3.9,4.6
c4.9,8.6,6.1,8.9-0.9,16c-4.7,4.8-4.5,5.9,1.2,9.2c1.6,0.9,3.1,2.1,4.6,3.1c4,2.8,4.3,5.8,1.1,9.7c-4.4,5.2-10.2,8.7-15.2,13.1
c-5.4,4.8-6.7,13.1-4.1,19.8c3.9,9.9,8.7,19.1,14.2,28.1c4.3,7.2-2,15.6-11.7,16c-7.3,0.3-14.7,0.3-22.1,0.2
c-4.7-0.1-9.1,1.3-13.4,2.8c-8.7,3-11.2,11.1-13.5,18.7c-1.3,4.1-2.9,8.4-2.3,13c0.2,1.7-1.1,2.1-2.3,2.9
c-8.9,5.8-17.8,11.7-25,19.8c-2.4,2.6-5.4,4.6-9.3,4.5c-3-0.1-4.9,1.6-6.8,3.7c-5.3,5.6-9.5,12.2-15.9,16.9
c-6.5,4.8-13.5,3.6-20,1.6c-5-1.6-5-7.1-5.1-11.8c-0.1-4.1,2.4-5.5,5.9-6.4c3.9-1.1,6.9-4,8.4-7.6c2.3-5.3,5.5-10,8.1-15.1
c3.2-6.3,4.8-12.8,0.4-19.3c-1.8-2.7-4.6-4.4-7.4-5c-10.8-2-14.6-9.5-16.1-19.2c-0.1-1-0.2-2.3-0.8-2.9c-4.8-4.6-3.8-9.5-1.6-14.9
c1.3-3.1,0.8-6.8,0.3-10.2c-0.7-3.9-4.2-3.1-6.1-2.1c-5.3,2.8-11.6,0.4-16.8,3.7c-1.5,1-3.8,0.6-5-1.3c-1.6-2.7-4.8-3.1-6.9-4.9
c-6.4-5.4-11.6-0.8-17.1,1.3c-4.5,1.7-8.3,5.2-13.7,4.7c-4.6-0.4-7.8-3.1-8.5-7.8c-0.7-4.8-1.4-5.1-5.6-2.4
c-5.6,3.6-8.5,9.5-12.6,14.5c-4.8,5.9-10.8,9.5-17.7,12.8c-9.5,4.6-17.4,11.3-21.9,22c-3.4,8.2,0.6,14.9,1.2,22.2
c0.7,9.1,3.2,18,3.5,27.2c0.2,4.5-3.6,7.1-5,10.8c-2.6,6.7-6,13.1-9,19.6c-0.1,0.2-0.1,0.3-0.1,0.5c-0.3,2.8-1.8,6.3,0.6,8.3
c2.5,2,5.1-0.8,7.4-1.9c4.8-2.1,6.9-6.8,9.6-10.8c1.9-2.8,4.1-5.3,6.5-7.7c1.6-1.7,3.3-1.8,5.1-1.3c2.3,0.6,1.5,2.8,1.5,4.3
c0,3.2-1.7,5.8-3.8,8c-5.8,5.8-7,13.4-8.1,20.8c-0.4,2.7,0.8,5.7,1.7,8.4c3.7,10.8,5.2,21.8,4.3,33.2c-0.4,4.4,0.7,8.8,0.7,13.2
c0.1,11.1-4.3,20.9-7.8,30.9c-2.7,7.7,0.5,13.9,1.6,20.8c0.2,1.3,0.9,2.6,1,3.9c0.9,8.4,0.4,16.9,1.5,25.4c1.2,9,0.6,18.3,4.9,26.7
c3.4,6.7,4.7,14,7.7,20.8c0.6,1.4,1.2,2.9,2.2,3.9c5.5,4.9,7.6,11.4,9.7,18.1c2,6.6,0.3,9.9-6.6,11.3c-11.7,2.4-17.3,11.8-13.9,23
c1,3.3,1.1,6.6-0.9,9.9c-3.6,6-7,6.9-12.7,2.9c-2.8-2-5.5-4-8.2-5.9c-3.3-2.3-6.8-3.7-11-3.2c-3.4,0.3-6.5-0.4-9.7-2.1
c-18.8-9.9-29.4-25.8-35.2-45.7c-3.7-12.8-6.4-25.8-11.1-38.3c-3.5-9.3-4.6-19.1-1-29c0.6-1.6,1.2-3,2.8-3.4
c1.8-0.4,2.2,1.6,2.7,2.6c1.5,2.7,3,6.6,5.9,6.3c2.3-0.2,2.6-4.5,3.6-7.2c1.6-4.2,3.5-8.4,8.1-10.5c7.5-3.4,7.4-11.9,4.2-19.7
c-2.4-5.9-6.4-11.1-9.5-16.7c-3-5.5-2.1-11.6-0.6-17c3-10.9,6.3-21.7,7.8-33c1.5-11,5-21.6,9-32c1.6-4.2,3.1-8.6,4.3-12.9
c1-3.5-1.4-5.8-3.8-7.8c-2.6-2.1-3.6,0.7-5.4,1.9c-4.8,3.3-7.2,8.4-10.3,13c-2.1,3.2-3.8,6.5-8.7,4.6c-1.8-0.7-2.9,1.4-3.6,2.8
c-6.3,11.9-10.9,24.3-10.9,38c0,8.2-2.4,16.1-3.5,24.1c-1.6,11.9-2.6,24-2.3,36.2c0.4,16.8-4.4,32.7-10.3,48.3
c-0.2,0.4-0.6,0.8-1.3,1.8c-1.3-6.5-1.7-12.5-4.5-17.9c-0.9-1.7-1.7-4.1-3.5-4c-2.5,0.3-2.4,3.2-2.4,5c-0.2,11.1-0.5,22.2,0.9,33.3
c0,0.3-0.1,0.6-0.1,0.9c0.1-0.2,0.3-0.5,0.3-0.7c-2.5-29.3-1.1-58.4,2.8-87.5c4.8-35.7,14.1-70.3,27.6-103.6
c11-27.2,24.8-53.2,40.6-78.1c18.4-28.9,40-55.4,64.5-79.3c27.5-26.8,57.6-50.4,91.3-68.7c12.5-6.8,24.5-14.7,38.4-19C317.8,86.5,321.9,83.3,326.7,81.8z"/>
<path d="M658.8,89.4c4.9-1,18.1,3.6,19,7.4c1.2,4.7,3.4,8,6.7,11.1c3.3,3.1,7.1,5,11.1,6.9c0.8,0.4,1.5,1.1,2.3,0.6
c5.1-3.7,6.9,0.3,9.5,3.7c6.2,8.3,14.7,14,23.5,19.3c6.3,3.8,12.3,8.2,19.3,10.8c1.4,0.5,2.8,1.3,3.8,2.4
c9.7,10.8,21.9,19.4,29.2,32.5c1.6,2.8,4.7,6.2,7.1,4.7c2-1.2-1.2-4.9-2.8-7.1c-7-9.8-16.6-17.4-23.7-27.1c-1.8-2.4-4.6-4.1-6.2-7.9
c7.2,3.4,12.8,7.9,18.8,11.7c3.4,2.2,6.5,4.8,9.6,7.2c5.2,4.1,8.4,9.3,9.2,16.1c0.6,5.4,11.9,15.4,17.4,16.8
c5.7,1.4,9.1,6.2,13.4,9.7c16,13.1,29.1,28.7,39,46.9c5.5,10,12.8,19,17.6,29.5c0.6,1.3,1.2,2.5,1.1,3.9
c-0.8,10.6,4.1,18.9,10.8,26.4c5.3,5.9,8,12.8,9.5,20.4c0.3,1.6,0.7,3.5-0.8,4.8c-1.8,1.6-3.1-0.4-4.6-0.7c-2.2-0.5-4-3.5-6.9-0.8
c-2.6,2.4-2.1,5.2-1.4,7.6c2.8,10.2,6.1,20.3,9.2,30.5c0.2,0.8,0.5,1.6,0.6,2.5c0.4,3.8,0.9,8.8-2.7,10.2c-3.7,1.4-5.6-3.2-7.6-6.1
c-0.5-0.7-1.1-1.3-1.5-2c-6.2-10-5.8-9.3-16.1-5.1c-5.2,2.1-6.3,5.4-4.3,10.6c1.6,4.2,3.3,8.4,5,12.6c1,2.5,1.1,5.2,0.3,7.6
c-1.9,5.5-1.3,11.1-1.6,16.7c-0.1,2-0.3,4-1.1,6c-3.6,9,0.7,17.7,9.8,20.8c3.8,1.3,4.9,4.7,5.2,8.1c0.3,3.8-1.2,7.6-4.6,9.6
c-3.2,1.9-6.8,4-10.2-0.5c-1-1.3-3.2-2.5-4.9-2.5c-5-0.1-6.9-3.6-9.1-7c-1.4-2.2-2.7-5.8-5.5-5.1c-3.6,0.8-6,4.4-6.2,8
c-0.3,5.2-1.6,10.1-2.3,15.1c-1,7.3-6.6,12.6-13.9,13.2c-2.6,0.2-5.2,0.4-7.7,0.1c-10-1.5-19,2.2-27.2,6.8c-6.3,3.5-12,2.8-17.9,0.7
c-9.6-3.5-16-2.1-22.3,6c-2.8,3.5-6,6.3-10.1,8.2c-2.6,1.2-5.9,1.9-7.9,0.5c-6.5-4.7-14.6-4-21.4-7.2c-3.6-1.7-6.5-0.5-7.8,3.8
c-4.4,14.2-11.2,27.4-17.5,40.8c-2.2,4.6-5.7,8.5-10.1,11.2c-6.1,3.7-8.5,9.6-10,16.2c-1.8,7.9-5.6,15.3-7.6,23
c-1.7,6.6-5.2,11.6-9.6,16.2c-6.5,7-15,9-24,8.5c-16.9-0.9-33.9-0.1-50.8-0.5c-11.4-0.3-22.8-2.6-34.2-4.2c-2.9-0.4-4.8-3.2-6.9-5.1
c-3.4-3-6.5-3.5-11-1.4c-5.7,2.6-10.2,6.1-14.6,10.5c-6,6-12.6,11.5-19.4,16.7c-4.3,3.3-7.2,7.9-11.5,11.2c-2.3,1.8-4.5,3.9-7.6,3.5
c-7.7-1.1-14.8,1.3-22,3.4c-4.5,1.3-8-1.9-11.5-4.3c-1.2-0.8-2.2-2.1-3.3-3.1c-2-1.8-4.4-3-6.9-1.5c-2.5,1.5-4.4,3.6-4.6,6.8
c-0.3,4.6,1.2,8.7,3.4,12.5c0.5,0.9,1.3,1.6,1.8,2.5c1.7,3.3,6.5,5.6,3.4,10.5c-2.5,4-8.1,5.8-13.7,3.4c-6-2.5-11.4-1-16.8,1
c-4.4,1.6-7,7.2-5.8,11.7c0.8,2.8,0.6,5.2-0.8,7.8c-2,3.8-5.1,7.1-5.2,12c0,2.2-2.4,3.4-5,3.4c-5.3,0.1-9.7-1.8-13.2-5.5
c-3.7-4-8.4-6.2-13.6-7.3c-0.2,0-0.4,0-0.5-0.1c-8.8-7.9-20.8-5.4-30.9-9.4c-5.5-2.2-12.4-1.4-18.6-2.4c-5.9-1-9.9-4.4-10.3-9.4
c-0.5-7.2,10.1-15.3,17.1-12.8c3,1.1,6.1,2.1,8.8,3.8c3.6,2.2,7.2,1.6,10.8,0.9c1.2-0.2,2.3-0.7,3.4-0.9c8.8-1.1,11.7-7.3,8.5-16
c-2.4-6.5-6.7-12-8.4-18.9c-0.7-2.9-0.8-5.7-0.8-8.6c0-4.5-2.2-7.6-5.5-10.3c-7.6-6.2-11.5-15-14.9-23.7c-1.8-4.6,0.9-9.3,4.1-13
c1.7-2,3.5-3.7,3.8-6.4c0.9-9.3-1.3-9.7-11.1-12.2c-5-1.2-9.5-3-14.1-5.1c-8.5-3.9-17.3-7.3-26-11.1c-2.5-1.1-5.8-1.2-8.2,1.2
c-7.9,8.1-17.4,5.4-26.5,3.8c-7.5-1.3-14.8-3.6-22.1-5.4c-1.2-0.3-2.5-0.2-3.3-1.3c-7.7-10.8-17.4-20.1-24.3-31.5
c-0.7-1.1-1-2.2-1-3.4c0.2-9.3-1.7-18.3-2.3-27.5c-0.6-9.2-1.2-18.6-3.5-27.7c-0.1-0.5-0.2-1-0.2-1.5c1.2-13.3-3.4-26.3-2.3-39.7
c0.3-4.2-0.4-8.8,2.2-12.4c3.9-5.4,2.5-11.8,3.7-17.7c1.1-5.1,2-10.3,3.9-15.2c0.8-1.9,1.4-4.6,0.2-6c-4-4.6-3.2-10.6-5.2-15.7
c-2.6-6.7,2.8-14.4,9.4-13.6c3.2,0.4,5.4,2.1,6.3,5.2c0.6,2.2,1.8,4,3.2,5.7c2.1,2.7,4.5,2.6,6.9,0.2c0.4-0.4,0.7-0.8,1-1.2
c10.4-12.5,10.4-12.5,2.1-26.7c-3.7-6.4-3.5-7.8,1.2-13.9c4.9-6.5,11.5-11.4,18.4-14.6c5.6-2.5,11.6-4.4,16.4-8.4
c4.4-3.7,9-6.9,14-9.6c2.7-1.5,4.6-1.6,6.8,0.5c2.8,2.7,5.8,5.2,8.4,8c4.4,4.7,0.3,9-1.2,13.2c-1.7,4.9-4.9,9.2-6.3,14.3
c-0.3,1.2-0.9,2.4-0.3,3.4c2.6,4.3-0.1,8.1-1.5,11.7c-2.9,7.2-1.1,14.5-0.9,21.7c0.1,4.2,10.7,9.6,15.8,9.1c5.3-0.5,8.1,2.1,6.9,7.2
c-1.3,5.8-1.4,11.3,0.1,17.1c1.4,5.7-0.9,11.6-2.6,16.9c-2,6.4,0.1,11.4,3.4,16.1c2.3,3.3,5.4,2,7.6-0.6c2.6-3.1,5.2-6.3,7.2-9.8
c2.9-5.2,7.8-6.3,12.9-7.8c7-2,13.7-1.6,21-0.5c8.7,1.3,17.2-1.8,22.2-10.2c3.7-6.3,9.3-10.2,15.4-13.5c4.1-2.2,7.6-4.8,10.4-8.5
c3.7-4.9,7.9-9.1,13.1-12.5c4.7-3.1,7.2-7.9,7.2-13.7c0.1-8,1.4-15.8,3.7-23.5c1.1-3.7,3.2-4.6,6.7-4.8c6.2-0.3,10.6,4.2,16.2,5.6
c1.1,0.3,2.2,1.2,3.3,1.2c12.1-0.4,23.9,3.6,36.1,2.4c5.1-0.5,10-1.6,14.8-3.3c6.2-2.1,12.9-1,19-3.7c1.2-0.5,2.6-0.5,3.5-1.8
c2-2.8,3.4-6.4,7.6-6.7c5.7-0.4,11.1-0.3,15.9,3.6c3.4,2.8,7.5,4.4,12.1,4.6c2.9,0.1,4-1.1,4.1-3.9c0.2-5-2.1-9-5.5-12.1
c-6.4-6.1-10.9-13.5-15.9-20.7c-3.2-4.6,0.7-8.1,1.4-12c0.5-2.6,1.3-5.1,0.4-7.4c-1.5-3.7,0-6,3-7.5c3.9-2,6.9-5.2,10.4-7.6
c5-3.5,10.7-6,14.9-10.6c0.4-0.4,1.3-0.4,2-0.3c11.7,0.6,22.4,3.5,29.9,13.3c4.2,5.5,5.1,12.1,4.5,18.9c-0.4,5.4,2.3,10.2,7.1,12.1
c4.5,1.8,8-0.8,11-3.5c6-5.5,12.1-5.9,18.4-0.3c5.1,4.5,10.1,8.8,16.2,11.9c3,1.5,4.9,4.4,6.9,7.2c4.8,6.9,10.3,13.8,18,17
c7.6,3.1,14.3,8.7,22.5,9.8c8.3,1.1,16.9,2.1,25.2-0.5c1.9-0.6,4-0.5,6.1-0.7c6.8-0.8,9.9-6.2,6.2-12c-3.2-5.2-6.7-10.2-12.2-13.8
c-6-3.9-10.7-9.6-14.6-15.7c-2.3-3.5-2.4-7.4,0.2-11.5c4.9-7.7,2.6-14.2-5.6-18.5c-4.7-2.4-8.9-5.4-11.3-10.5
c-1.7-3.5-4.9-5.9-7.8-8.5c-3.1-2.8-4.5-6-4.4-10.3c0.2-8.1-8.5-14.1-16.5-12.3c-11.9,2.6-20.6,1.4-27.1-8.4
c-1.2-1.9-1.7-3.7-1.9-5.6c-0.3-4.5,1.6-6.4,5.8-4.8c3,1.1,5.7,1.9,7.9-0.8c2.3-2.8,1.8-6.7,0.4-9.3c-5.3-9.7-8.4-20.6-16.3-28.8
c-1.3-1.3-2.4-3-2.9-4.7c-3.1-11.9-12.6-18.7-20.9-26.5c-2.5-2.3-4.1-4.8-5.5-7.7c-1.1-2.6-2.3-5.5,0.1-7.6c2.2-2,5.6-1.3,7.8,0.2
c8.1,5.5,17.7,7.4,26.2,11.7c1.7,0.8,2.9,0.4,3.3-1c0.7-3.1,2.9-2.5,5.1-2.7c7-0.7,13.3,2.6,20,3.5c0.8,0.1,1.6,0.8,2.4,0.7
c2.6-0.1,6.1,1.3,7.5-1.6c1.3-2.8-2.1-4.1-3.6-5.9C667.4,97.6,661.6,95,658.8,89.4z M762.4,356.2c1.6,10,4.2,20.2,14.8,23.9
c10.5,3.6,21.8,4.8,33,4c6.1-0.4,10.8,1,14.9,5.7c3.8,4.4,6.3,9.6,9.7,14.2c1,1.3,2.1,3.5,4.4,2.7c2.1-0.7,3-2.3,3.4-4.5
c0.9-5.2,1.7-10.4,2.4-15.6c0.8-6,1.4-12.6,9.8-14c4.4-0.8,6.6-4.4,6.4-9.2c-0.6-11-4.2-20.4-12.2-28.3c-9.9-9.9-15.4-11-27.7-4.7
c-2.4,1.3-4.9,3.3-8.1,2.5c-8.4-2-15.6,2.3-22.9,4.9c-4.9,1.8-9.2,2-13.8,0.5c-4.7-1.5-10.2,0.6-11.4,5.3
C764,347.7,761.9,351.7,762.4,356.2z M385.3,429.5c-3.4-0.2-8.5-1.1-13.2,0.8c-4.2,1.6-8.5,2.3-12.8,3.1c-9.5,1.8-14,8.8-10.8,17.8
c1.2,3.5,2.5,7,3.1,10.5c1.5,9.5,8.6,14.3,17.1,10.2c7.2-3.4,13.6-8.6,20.3-12.8c4.5-2.8,8.7-7.2,12.9-11c3.2-2.9,6.4-6,4.4-10.9c-2-4.9-5.4-8.1-11.2-7.7C392.3,429.7,389.5,429.5,385.3,429.5z"/>
<path d="M746.4,792.5c5.1-1.1,7.9-4.9,11.6-7.4c1.3-0.9,2.4-2.9,4.4-1.6c1.5,1,2.2,2.6,2.1,4.4c-0.1,3,0.2,6.1-1.2,9
c-1.8,3.7-0.2,6.1,3.9,6.1c3.7,0.1,4.2,1.9,3.8,5c-1.3,8.7-5.8,15.2-13.3,19.7c-1.2,0.7-2.4,1.4-3.4,2.2c-2.7,2.1-4.6,1.8-6.3-1.5
c-2.7-5.2-5.2-5.8-10.4-3.2c-13.9,6.7-27.7,13.7-41.8,20.1c-7.9,3.6-16.5,5.7-24.2,9.6c-6.9,3.5-14.2,6-21.1,9.3
c-6.7,3.2-10.3,8.3-12,15.2c-0.8,3.3-2.6,6.3-2.3,9.8c0.2,2.4-2,3.3-3.5,4.6c-1.7,1.5-3.9,3.1-2.6,5.5c2.7,5-0.7,7.9-3.3,11.1
c-3.7,4.5-9,6.4-14.4,7.8c-4,1-7.5,2.2-10.1,5.9c-2.6,3.7-7.4,3.4-11.2,3.9c-6.9,0.9-14,0.6-21,0.8c-2.7,0.1-5.3-0.1-5.6-3.7
c-0.2-2-1.6-2.5-3.3-2.3c-5.5,0.9-9.8-2.2-14.2-4.5c-3.5-1.9-4.4-4.8-1.9-8.4c1.7-2.5,3.3-5.1,4.7-7.8c2.5-4.5,1.3-6.4-4.1-6.8
c-3.2-0.2-6.4,0-9.7-0.5c-11.6-1.7-19-10.6-28.7-15.7c-2.7-1.4-3-4.2-2.2-7.1c1.6-6.1,2.7-12.1-0.1-18.4c-1.8-4.1-0.5-8.2,3.9-11
c6.9-4.4,11.5-11.3,17.1-17c2.5-2.6,1.7-7,3.1-10.6c2.4-6.2,5.9-9.4,12.7-9.6c6.7-0.2,13.1-2.4,19.1-4.9c6.4-2.6,8.8-9.3,8.9-15.6
c0.1-8.8,3.5-13.4,12-15.5c4.6-1.1,9-3.7,13.3-5.8c3.5-1.8,6.7-1,10.3-0.3c7.5,1.5,15.2,2.4,22.4-1.3c3.6-1.8,6.3-4.6,7.7-8.4
c2-5.4-0.5-9.5-4.7-12.8c-4-3.1-3.5-6.3-1.1-10.5c5.1-8.8,10-17.8,12.7-27.8c2-7.3,5.3-14.2,7.1-21.5c0.2-0.8,0.6-1.6,0.7-2.4
c0.4-3.3-0.6-7.7,2.8-9.3c4.5-2.1,9.6-3.4,14.9-2c11.1,3,20.7,8.7,29.1,16.4c2.7,2.5,5.4,3.2,9,3.5c8,0.5,15.4-0.3,22.1-5.3
c2.6-1.9,5.4-1,7,1.6c4.8,7.8,7.8,12.2-1.6,20.6c-3.3,3-6.4,5.8-6.5,10.9c-0.1,2.3-1.9,4.6-3,6.9c-1.6,3.4-3.2,6.7-2.8,10.6
c0.6,5.8-3.8,10-5.1,15.2c-0.8,3.1,0.1,5.2,1.6,6.9c1.7,2,3.8,0.8,5.9-0.4c4.8-2.7,9.6-5.3,14.9-7.3c6.8-2.5,10.6-9.1,15-14.6
c1.1-1.4,0.3-3.2-1-4.6c-6.9-6.9-4.9-14.9-2.3-22.8c0.9-2.5,3.4-3.7,6.2-3.6c6.2,0.2,12.1-0.7,18-2.5c3.7-1.1,6.6,0,6.4,4.6c-0.8,14.7-1.7,29.1-6.8,43.4c-4.1,11.5-11.2,20-19.6,28C749.9,779.9,748,785.9,746.4,792.5z"/>
<path d="M937.3,555.1c-0.4,3.1,0.5,6.5-1.6,9.4c-0.9,1.2-0.2,3.9-2.9,3.5c-2.2-0.3-2.8-2.4-3.4-4.1
c-0.7-2.3-0.4-4.7-1.5-7c-4-8.5-9.8-9.2-16-1.9c-2.3,2.7-4.6,5.4-7.2,7.9c-3,2.8-6.2,5.4-10.6,5.4c-3.4,0-5,2.8-5.7,5.1
c-1.1,4.1-1.3,8.4,0.5,12.5c1,2.3,2.3,3.4,5.2,2.2c3.9-1.6,8.8,2.4,7.5,6.2c-1.3,3.8-2.1,7.8-4.5,11.2c-4.4,6.3-7.1,13.3-7.5,21.2
c-0.8,14.2-8.1,25.7-16.1,36.9c-0.9,1.3-2.2,2.7-3.6,2.1c-1.4-0.7-2.5-2.3-2.5-4.2c0-3.1,0-6.2,0-9.2c0.1-2.5-1.2-4.4-3.2-5.4
c-2.4-1.2-3.7,1.2-5,2.5c-10.7,11.1-18.7,24.1-27.8,36.4c-5,6.8-8.8,14.6-15.5,20.2c-2.2,1.9-3.4,4.6-4.9,7
c-0.8,1.2-1.7,3.3-3.8,2.8c-2-0.4-3.1-2.2-3.5-4c-2.2-9.3-0.6-18,4.2-26.4c6-10.5,13.7-20.1,17.1-32c0.8-2.7,0.4-5.4,1-8
c1-4.4,4.4-7,8.1-5c5.3,2.9,6.6-1.3,8.2-4.3c1.9-3.4,2.2-7.4,2.3-11.4c0.2-4.9,1.6-9.6,4.7-13.7c3.1-4.1,8.1-3.9,12.2-5.6
c12.3-5,17.1-12.8,18.2-26c0.4-4.1-2.1-5.7-5.9-3.7c-5.2,2.8-10.5,5.4-14.7,9.7c-1.8,1.8-3.6,3.9-6.5,3c-3-0.9-2.6-4.1-3.6-6.3
c-0.6-1.3-0.4-3.1-0.2-4.6c0.7-4.9,0.3-9.9,0-14.8c-0.4-5.5-1.1-10.6-3.2-16.1c-2.8-7.4-2.9-16.6-0.4-24.2c2.4-7.1,9.6-11.2,16-14.9
c3.1-1.8,6.2-3.2,8.5-6.1c2.6-3.3,5.8-3.4,9-1c8.1,6.2,14.3,13.8,16.6,23.9c0.5,2,0.1,4-0.7,6c-2.1,5.4,0,10.6,1.8,15.4
c1.3,3.5,5,1.9,6.5-0.5c4.4-6.7,10.9-12.1,11.8-20.9c0.3-2.8,3-5.1,4.1-8c0.5-1.2,2.5-2.2,3.5,0.1c0.8,1.7,2.1,3.6,1.8,5.2c-1.2,6.8,3.5,10.9,6.9,15.5C935.2,542.7,939.1,547.9,937.3,555.1z"/>
<path d="M203.8,805.4c-2,0.1-4.4-0.4-6.1,0.5c-8.1,4.3-12.9-1.3-17.4-6.1c-5.1-5.3-9.2-11.5-11.7-18.7c-2.7-7.9-8.9-13.3-14.3-19.3c-3.7-4.1-7.7-8-10.1-13.3c-1.9-4.3-1.1-6.2,3.4-6.3c5.9-0.2,11.9-1.7,17.6,1.5c1.1,0.6,2.8,0.9,3.8-0.3c1-1.1,0.7-2.6,0-3.9c-4.3-8.1-2.2-16.6-1.3-24.9c0.7-5.9,8.7-9.5,14-6.3c5.7,3.4,12,4.4,18.2,6.1c4.5,1.2,8.3,3.5,10.5,7.3c7.1,12,14.8,23.7,19,37.2c0.5,1.7,1.6,3.4,2.4,5c2.8,5.5,1.4,8.4-4.9,8.7c-3.8,0.2-7,0.8-9.5,3.8c-2.7,3.3-3.4,6.8-1.8,10.9c2,5-1,15-5.4,17.9C208.3,806.5,206,805.3,203.8,805.4z"/>
<path d="M337.5,798.2c-0.2,1.7-0.2,3.3-0.6,4.8c-1.3,5.3-4.7,6.9-9.7,5c-4.5-1.7-8.3-4.4-11.5-7.9c-2.8-3.1-2-5.8,1.3-8c4.8-3.2,15.1-2.4,19.4,1.6C337.7,794.9,337.5,796.7,337.5,798.2z"/>
<path d="M169.4,280.8c-0.3-7.9,0.9-15.2,7-21.1c0.9-0.8,1.4-2,2.8-1.4c1.2,0.5,1.1,1.6,1,2.6c-0.7,5.7,1,10.9,3.1,16.1c0.3,0.7,0.5,1.8,0.1,2.4c-2.6,4.5-4.3,9.5-7.4,13.8c-1,1.3-1.9,1.9-3.4,1.7c-1.8-0.3-2.5-1.7-2.6-3.3C169.8,288,169.6,284.4,169.4,280.8z"/>
<path d="M392.2,768.3c-4.7-0.8-10.5-2.9-10.1-7.9c0.4-4.3,8-12.4,12.2-12.5c4.4-0.1,8.9,3.6,8.5,7.5C402.1,762.5,398.4,767.6,392.2,768.3z"/>
<path d="M130.6,698c0-1.8-0.3-3.2,0.1-4.5c0.7-2.9,2.1-4.4,5.4-2.4c4.4,2.7,6.9,6.9,8.6,11.5c0.8,2.2,0.5,4.7-2,6.2c-2.5,1.6-4.6,1.4-7-0.3C131.9,705.7,130.2,702.2,130.6,698z"/>
<path d="M260.2,798.9c0.1,4.3-2,6-5.7,4.2c-4.5-2.1-8-5.5-10.2-10c-1.9-3.9-0.3-6.2,4.1-5.9C255.5,787.7,259.4,793.2,260.2,798.9z"/>
<path d="M504.9,272.3c1,0,2.3,0,3.7,0.2c3.5,0.6,4.1,2.6,2,5.2c-1.4,1.9-2.9,3.8-4.6,5.2c-2.1,1.7-4,5.6-6.9,3.6c-2.3-1.5-4.4-5-3.3-8.3c1-3.3,2.5-6.8,7.3-6C503.5,272.4,504.1,272.3,504.9,272.3z"/>
<path d="M150.5,685.4c2.6,0.7,5.4,2.4,5.6,6c0.1,1.5,0,4-2.6,4.1c-2.3,0.1-6.4-5-6.4-7.6C146.9,686,147.9,685.2,150.5,685.4z"/></g>
</svg>
