<?xml version="1.0" encoding="utf-8"?>
<svg version="1.1" xmlns="http://www.w3.org/2000/svg" width="100" height="100">
<rect fill="#CC1818" width="100" height="100"/><polygon points="0,0 50,0 0,100"/>
<g fill="#FC0">
<polygon points="88,64 88,62 85,62 85,61 79,58 76,54 73,58 73,54 70,48 67,54 67,58 64,54 61,58 55,61 55,62 52,62 52,64 50,64 50,70 52,70 55,70 61,70 67,70 73,70 79,70 85,70 88,70 90,70 90,64 "/>
<text transform="matrix(1 0 0 1 50 83)" font-family="sans-serif" font-style="italic" font-size="12px">KỐ ĐÔ</text>
<rect x="50" y="86" width="40" height="4"/>
</g>
<polygon points="90,0 30,180 180,70 0,70 150,180" fill="#FC0" transform="matrix(.1,0,0,.1,11,11)"/>
</svg>